Merriweather-BigSemiCndBlackItalic.ufo
<glyph name="ampersand" format="2">
  <advance width="1391"/>
  <unicode hex="0026"/>
  <outline>
    <contour>
      <point x="542" y="-17" type="curve" smooth="yes"/>
      <point x="745" y="-17"/>
      <point x="821" y="16"/>
      <point x="877" y="53" type="curve"/>
      <point x="938" y="22"/>
      <point x="1003" y="-14"/>
      <point x="1121" y="-14" type="curve" smooth="yes"/>
      <point x="1196" y="-14"/>
      <point x="1327" y="2"/>
      <point x="1342" y="19" type="curve"/>
      <point x="1347" y="62" type="line"/>
      <point x="1304" y="71"/>
      <point x="1246" y="100"/>
      <point x="1197" y="153" type="curve" smooth="yes"/>
      <point x="1179" y="172"/>
      <point x="1156" y="198"/>
      <point x="1130" y="238" type="curve"/>
      <point x="1240" y="348"/>
      <point x="1335" y="527"/>
      <point x="1341" y="648" type="curve" smooth="yes"/>
      <point x="1343" y="680"/>
      <point x="1343" y="702"/>
      <point x="1343" y="715" type="curve"/>
      <point x="1349" y="715"/>
      <point x="1360" y="715"/>
      <point x="1368" y="715" type="curve" smooth="yes"/>
      <point x="1387" y="715"/>
      <point x="1421" y="722"/>
      <point x="1455" y="740" type="curve"/>
      <point x="1454" y="784" type="line"/>
      <point x="1424" y="764"/>
      <point x="1359" y="767"/>
      <point x="1329" y="767" type="curve" smooth="yes"/>
      <point x="1226" y="767"/>
      <point x="1197" y="789"/>
      <point x="1104" y="789" type="curve" smooth="yes"/>
      <point x="1067" y="789"/>
      <point x="1037" y="777"/>
      <point x="1022" y="761" type="curve"/>
      <point x="1022" y="718" type="line"/>
      <point x="1044" y="734"/>
      <point x="1076" y="737"/>
      <point x="1103" y="737" type="curve" smooth="yes"/>
      <point x="1131" y="737"/>
      <point x="1157" y="733"/>
      <point x="1170" y="726" type="curve"/>
      <point x="1179" y="711"/>
      <point x="1184" y="655"/>
      <point x="1184" y="592" type="curve" smooth="yes"/>
      <point x="1184" y="465"/>
      <point x="1129" y="356"/>
      <point x="1076" y="302" type="curve"/>
      <point x="1020" y="375"/>
      <point x="887" y="595"/>
      <point x="738" y="827" type="curve"/>
      <point x="872" y="892"/>
      <point x="1117" y="997"/>
      <point x="1117" y="1228" type="curve" smooth="yes"/>
      <point x="1117" y="1389"/>
      <point x="1015" y="1505"/>
      <point x="791" y="1505" type="curve" smooth="yes"/>
      <point x="523" y="1505"/>
      <point x="294" y="1359"/>
      <point x="294" y="1065" type="curve" smooth="yes"/>
      <point x="294" y="963"/>
      <point x="348" y="828"/>
      <point x="425" y="695" type="curve"/>
      <point x="212" y="649"/>
      <point x="44" y="512"/>
      <point x="44" y="302" type="curve" smooth="yes"/>
      <point x="44" y="107"/>
      <point x="213" y="-17"/>
    </contour>
    <contour>
      <point x="659" y="42" type="curve" smooth="yes"/>
      <point x="472" y="42"/>
      <point x="334" y="167"/>
      <point x="334" y="394" type="curve" smooth="yes"/>
      <point x="334" y="572"/>
      <point x="386" y="618"/>
      <point x="445" y="668" type="curve"/>
      <point x="571" y="434"/>
      <point x="725" y="233"/>
      <point x="826" y="105" type="curve"/>
      <point x="764" y="64"/>
      <point x="718" y="42"/>
    </contour>
    <contour>
      <point x="718" y="858" type="curve"/>
      <point x="644" y="976"/>
      <point x="610" y="1087"/>
      <point x="610" y="1198" type="curve" smooth="yes"/>
      <point x="610" y="1374"/>
      <point x="681" y="1447"/>
      <point x="778" y="1447" type="curve" smooth="yes"/>
      <point x="851" y="1447"/>
      <point x="877" y="1384"/>
      <point x="877" y="1282" type="curve" smooth="yes"/>
      <point x="877" y="1115"/>
      <point x="812" y="946"/>
    </contour>
  </outline>
</glyph>
<glyph name="parenleft" format="2">
  <advance width="892"/>
  <unicode hex="0028"/>
  <outline>
    <contour>
      <point x="164" y="582" type="curve" smooth="yes"/>
      <point x="164" y="-1"/>
      <point x="519" y="-203"/>
      <point x="623" y="-255" type="curve"/>
      <point x="675" y="-231" type="line"/>
      <point x="605" y="-163"/>
      <point x="470" y="106"/>
      <point x="470" y="527" type="curve" smooth="yes"/>
      <point x="470" y="1031"/>
      <point x="612" y="1397"/>
      <point x="945" y="1619" type="curve"/>
      <point x="896" y="1652" type="line"/>
      <point x="460" y="1491"/>
      <point x="164" y="1108"/>
    </contour>
  </outline>
</glyph>
<glyph name="asterisk" format="2">
  <advance width="1090"/>
  <unicode hex="002A"/>
  <outline>
    <contour>
      <point x="130" y="1061" type="line"/>
      <point x="246" y="782" type="line"/>
      <point x="522" y="1033" type="line"/>
      <point x="591" y="1098" type="line"/>
      <point x="550" y="1007" type="line"/>
      <point x="424" y="649" type="line"/>
      <point x="727" y="647" type="line"/>
      <point x="681" y="992" type="line"/>
      <point x="670" y="1090" type="line"/>
      <point x="725" y="1025" type="line"/>
      <point x="956" y="782" type="line"/>
      <point x="1116" y="1028" type="line"/>
      <point x="783" y="1128" type="line"/>
      <point x="706" y="1148" type="line"/>
      <point x="792" y="1167" type="line"/>
      <point x="1154" y="1265" type="line"/>
      <point x="1038" y="1532" type="line"/>
      <point x="754" y="1279" type="line"/>
      <point x="678" y="1207" type="line"/>
      <point x="723" y="1308" type="line"/>
      <point x="848" y="1665" type="line"/>
      <point x="547" y="1669" type="line"/>
      <point x="583" y="1323" type="line"/>
      <point x="601" y="1216" type="line"/>
      <point x="538" y="1288" type="line"/>
      <point x="310" y="1532" type="line"/>
      <point x="146" y="1276" type="line"/>
      <point x="480" y="1177" type="line"/>
      <point x="566" y="1158" type="line"/>
      <point x="472" y="1140" type="line"/>
    </contour>
  </outline>
</glyph>
<glyph name="plus" format="2">
  <advance width="1116"/>
  <unicode hex="002B"/>
  <outline>
    <contour>
      <point x="492" y="320" type="line"/>
      <point x="460" y="117" type="line"/>
      <point x="552" y="117" type="line"/>
      <point x="584" y="320" type="line"/>
      <point x="613" y="527" type="line"/>
      <point x="800" y="527" type="line"/>
      <point x="971" y="527" type="line"/>
      <point x="981" y="607" type="line"/>
      <point x="810" y="607" type="line"/>
      <point x="620" y="607" type="line"/>
      <point x="652" y="816" type="line"/>
      <point x="682" y="1014" type="line"/>
      <point x="590" y="1014" type="line"/>
      <point x="560" y="816" type="line"/>
      <point x="531" y="607" type="line"/>
      <point x="315" y="607" type="line"/>
      <point x="162" y="607" type="line"/>
      <point x="152" y="527" type="line"/>
      <point x="305" y="527" type="line"/>
      <point x="521" y="527" type="line"/>
    </contour>
  </outline>
</glyph>
<glyph name="period" format="2">
  <advance width="376"/>
  <unicode hex="002E"/>
  <outline>
    <contour>
      <point x="4" y="110" type="curve" smooth="yes"/>
      <point x="4" y="30"/>
      <point x="56" y="-22"/>
      <point x="115" y="-22" type="curve" smooth="yes"/>
      <point x="202" y="-22"/>
      <point x="274" y="43"/>
      <point x="274" y="162" type="curve" smooth="yes"/>
      <point x="274" y="232"/>
      <point x="231" y="293"/>
      <point x="152" y="293" type="curve" smooth="yes"/>
      <point x="70" y="293"/>
      <point x="4" y="218"/>
    </contour>
  </outline>
</glyph>
<glyph name="one" format="2">
  <advance width="820"/>
  <unicode hex="0031"/>
  <anchor x="427" y="1660" name="top"/>
  <outline>
    <contour>
      <point x="-1" y="39" type="line"/>
      <point x="-5" y="0" type="line"/>
      <point x="719" y="0" type="line"/>
      <point x="723" y="39" type="line"/>
      <point x="545" y="72" type="line"/>
      <point x="735" y="1460" type="line"/>
      <point x="557" y="1506" type="line"/>
      <point x="453" y="1404"/>
      <point x="315" y="1306"/>
      <point x="118" y="1247" type="curve"/>
      <point x="129" y="1194" type="line"/>
      <point x="203" y="1199"/>
      <point x="319" y="1223"/>
      <point x="361" y="1234" type="curve"/>
      <point x="202" y="72" type="line"/>
    </contour>
  </outline>
</glyph>
<glyph name="four" format="2">
  <advance width="1130"/>
  <unicode hex="0034"/>
  <outline>
    <contour>
      <point x="569" y="0" type="line"/>
      <point x="900" y="0" type="line"/>
      <point x="944" y="321" type="line"/>
      <point x="1100" y="321" type="line"/>
      <point x="1120" y="486" type="line"/>
      <point x="966" y="472" type="line"/>
      <point x="1025" y="879" type="line"/>
      <point x="719" y="832" type="line"/>
      <point x="634" y="449" type="line"/>
      <point x="133" y="402" type="line"/>
      <point x="197" y="457"/>
      <point x="241" y="503"/>
      <point x="276" y="535" type="curve"/>
      <point x="381" y="639"/>
      <point x="742" y="1164"/>
      <point x="856" y="1388" type="curve"/>
      <point x="594" y="1507" type="line"/>
      <point x="502" y="1507" type="line"/>
      <point x="396" y="1205"/>
      <point x="184" y="694"/>
      <point x="19" y="442" type="curve"/>
      <point x="94" y="321" type="line"/>
      <point x="613" y="321" type="line"/>
    </contour>
  </outline>
</glyph>
<glyph name="six" format="2">
  <advance width="1143"/>
  <unicode hex="0036"/>
  <outline>
    <contour>
      <point x="552" y="-29" type="curve" smooth="yes"/>
      <point x="872" y="-29"/>
      <point x="1129" y="239"/>
      <point x="1129" y="598" type="curve" smooth="yes"/>
      <point x="1129" y="836"/>
      <point x="985" y="963"/>
      <point x="781" y="963" type="curve" smooth="yes"/>
      <point x="656" y="963"/>
      <point x="506" y="884"/>
      <point x="447" y="753" type="curve"/>
      <point x="482" y="1028"/>
      <point x="682" y="1407"/>
      <point x="972" y="1481" type="curve"/>
      <point x="955" y="1523" type="line"/>
      <point x="467" y="1487"/>
      <point x="71" y="1059"/>
      <point x="71" y="551" type="curve" smooth="yes"/>
      <point x="71" y="239"/>
      <point x="237" y="-29"/>
    </contour>
    <contour>
      <point x="573" y="26" type="curve" smooth="yes"/>
      <point x="473" y="26"/>
      <point x="424" y="152"/>
      <point x="424" y="414" type="curve" smooth="yes"/>
      <point x="424" y="568"/>
      <point x="429" y="604"/>
      <point x="440" y="697" type="curve"/>
      <point x="487" y="776"/>
      <point x="582" y="810"/>
      <point x="625" y="810" type="curve" smooth="yes"/>
      <point x="733" y="810"/>
      <point x="778" y="687"/>
      <point x="778" y="522" type="curve" smooth="yes"/>
      <point x="778" y="208"/>
      <point x="677" y="26"/>
    </contour>
  </outline>
</glyph>
<glyph name="nine" format="2">
  <advance width="1139"/>
  <unicode hex="0039"/>
  <outline>
    <contour>
      <point x="238" y="-49" type="line"/>
      <point x="743" y="-13"/>
      <point x="1135" y="426"/>
      <point x="1135" y="946" type="curve" smooth="yes"/>
      <point x="1135" y="1243"/>
      <point x="985" y="1503"/>
      <point x="650" y="1503" type="curve" smooth="yes"/>
      <point x="358" y="1503"/>
      <point x="86" y="1302"/>
      <point x="86" y="933" type="curve" smooth="yes"/>
      <point x="86" y="704"/>
      <point x="235" y="504"/>
      <point x="436" y="504" type="curve" smooth="yes"/>
      <point x="539" y="504"/>
      <point x="674" y="566"/>
      <point x="734" y="713" type="curve"/>
      <point x="709" y="434"/>
      <point x="508" y="50"/>
      <point x="223" y="-4" type="curve"/>
    </contour>
    <contour>
      <point x="574" y="654" type="curve" smooth="yes"/>
      <point x="487" y="654"/>
      <point x="445" y="785"/>
      <point x="445" y="962" type="curve" smooth="yes"/>
      <point x="445" y="1249"/>
      <point x="524" y="1452"/>
      <point x="646" y="1452" type="curve" smooth="yes"/>
      <point x="726" y="1452"/>
      <point x="777" y="1304"/>
      <point x="777" y="1096" type="curve" smooth="yes"/>
      <point x="777" y="950"/>
      <point x="758" y="856"/>
      <point x="737" y="767" type="curve"/>
      <point x="696" y="676"/>
      <point x="611" y="654"/>
    </contour>
  </outline>
</glyph>
<glyph name="less" format="2">
  <advance width="1057"/>
  <unicode hex="003C"/>
  <outline>
    <contour>
      <point x="111" y="596" type="line"/>
      <point x="101" y="525" type="line"/>
      <point x="847" y="96" type="line"/>
      <point x="860" y="189" type="line"/>
      <point x="216" y="555" type="line"/>
      <point x="967" y="927" type="line"/>
      <point x="980" y="1030" type="line"/>
    </contour>
  </outline>
</glyph>
<glyph name="A" format="2">
  <advance width="1139"/>
  <unicode hex="0041"/>
  <anchor x="426" y="0" name="bottom"/>
  <anchor x="951" y="0" name="ogonek"/>
  <anchor x="730" y="1486" name="top"/>
  <outline>
    <contour>
      <point x="-156" y="0" type="line"/>
      <point x="264" y="-1" type="line"/>
      <point x="269" y="35" type="line"/>
      <point x="86" y="72" type="line"/>
      <point x="507" y="1162" type="line"/>
      <point x="588" y="1400" type="line"/>
      <point x="543" y="1363" type="line"/>
      <point x="574" y="1095" type="line"/>
      <point x="708" y="72" type="line"/>
      <point x="556" y="38" type="line"/>
      <point x="551" y="0" type="line"/>
      <point x="1200" y="0" type="line"/>
      <point x="1204" y="38" type="line"/>
      <point x="1089" y="72" type="line"/>
      <point x="880" y="1490" type="line"/>
      <point x="574" y="1488" type="line"/>
      <point x="-13" y="75" type="line"/>
      <point x="-154" y="36" type="line"/>
    </contour>
    <contour>
      <point x="194" y="485" type="line"/>
      <point x="875" y="485" type="line"/>
      <point x="875" y="548" type="line"/>
      <point x="219" y="548" type="line"/>
    </contour>
  </outline>
</glyph>
<glyph name="C" format="2">
  <advance width="1111"/>
  <unicode hex="0043"/>
  <anchor x="589" y="0" name="bottom"/>
  <anchor x="755" y="1486" name="top"/>
  <outline>
    <contour>
      <point x="556" y="-24" type="curve" smooth="yes"/>
      <point x="815" y="-24"/>
      <point x="908" y="59"/>
      <point x="988" y="57" type="curve"/>
      <point x="1069" y="462" type="line"/>
      <point x="894" y="462" type="line"/>
      <point x="875" y="387"/>
      <point x="799" y="176"/>
      <point x="775" y="137" type="curve"/>
      <point x="748" y="70"/>
      <point x="671" y="34"/>
      <point x="600" y="34" type="curve" smooth="yes"/>
      <point x="441" y="34"/>
      <point x="420" y="355"/>
      <point x="420" y="539" type="curve" smooth="yes"/>
      <point x="420" y="1015"/>
      <point x="550" y="1449"/>
      <point x="771" y="1449" type="curve" smooth="yes"/>
      <point x="820" y="1449"/>
      <point x="850" y="1439"/>
      <point x="878" y="1415" type="curve"/>
      <point x="902" y="1006" type="line"/>
      <point x="1111" y="1006" type="line"/>
      <point x="1180" y="1451" type="line"/>
      <point x="1062" y="1450"/>
      <point x="995" y="1506"/>
      <point x="759" y="1506" type="curve" smooth="yes"/>
      <point x="279" y="1506"/>
      <point x="53" y="1026"/>
      <point x="53" y="595" type="curve" smooth="yes"/>
      <point x="53" y="288"/>
      <point x="145" y="-24"/>
    </contour>
  </outline>
</glyph>
<glyph name="E" format="2">
  <advance width="1119"/>
  <unicode hex="0045"/>
  <anchor x="583" y="0" name="bottom"/>
  <anchor x="768" y="0" name="ogonek"/>
  <anchor x="696" y="1486" name="top"/>
  <anchor x="157" y="1486" name="topleft"/>
  <outline>
    <contour>
      <point x="-49" y="0" type="line"/>
      <point x="978" y="0" type="line"/>
      <point x="1100" y="471" type="line"/>
      <point x="948" y="490" type="line"/>
      <point x="737" y="78" type="line"/>
      <point x="440" y="53" type="line"/>
      <point x="534" y="733" type="line"/>
      <point x="898" y="712" type="line"/>
      <point x="919" y="825" type="line"/>
      <point x="542" y="795" type="line"/>
      <point x="630" y="1434" type="line"/>
      <point x="883" y="1409" type="line"/>
      <point x="972" y="1102" type="line"/>
      <point x="1102" y="1102" type="line"/>
      <point x="1124" y="1486" type="line"/>
      <point x="157" y="1486" type="line"/>
      <point x="152" y="1450" type="line"/>
      <point x="280" y="1413" type="line"/>
      <point x="96" y="72" type="line"/>
      <point x="-44" y="38" type="line"/>
    </contour>
  </outline>
</glyph>
<glyph name="F" format="2">
  <advance width="1048"/>
  <unicode hex="0046"/>
  <anchor x="719" y="1486" name="top"/>
  <outline>
    <contour>
      <point x="-49" y="0" type="line"/>
      <point x="688" y="0" type="line"/>
      <point x="692" y="38" type="line"/>
      <point x="445" y="88" type="line"/>
      <point x="534" y="733" type="line"/>
      <point x="894" y="712" type="line"/>
      <point x="925" y="825" type="line"/>
      <point x="542" y="795" type="line"/>
      <point x="630" y="1434" type="line"/>
      <point x="896" y="1409" type="line"/>
      <point x="964" y="1102" type="line"/>
      <point x="1098" y="1102" type="line"/>
      <point x="1130" y="1486" type="line"/>
      <point x="157" y="1486" type="line"/>
      <point x="152" y="1450" type="line"/>
      <point x="280" y="1413" type="line"/>
      <point x="96" y="72" type="line"/>
      <point x="-44" y="38" type="line"/>
    </contour>
  </outline>
</glyph>
<glyph name="L" format="2">
  <advance width="1117"/>
  <unicode hex="004C"/>
  <anchor x="542" y="0" name="bottom"/>
  <anchor x="814" y="1110" name="car"/>
  <anchor x="924" y="1618" name="caron"/>
  <anchor x="389" y="743" name="center"/>
  <anchor x="470" y="1486" name="top"/>
  <anchor x="1237" y="1486" name="topright"/>
  <outline>
    <contour>
      <point x="-49" y="0" type="line"/>
      <point x="986" y="0" type="line"/>
      <point x="1107" y="504" type="line"/>
      <point x="938" y="523" type="line"/>
      <point x="747" y="79" type="line"/>
      <point x="440" y="53" type="line"/>
      <point x="627" y="1413" type="line"/>
      <point x="769" y="1450" type="line"/>
      <point x="773" y="1486" type="line"/>
      <point x="157" y="1486" type="line"/>
      <point x="152" y="1450" type="line"/>
      <point x="280" y="1413" type="line"/>
      <point x="96" y="72" type="line"/>
      <point x="-44" y="38" type="line"/>
    </contour>
  </outline>
</glyph>
<glyph name="M" format="2">
  <advance width="1598"/>
  <unicode hex="004D"/>
  <anchor x="816" y="0" name="bottom"/>
  <anchor x="1579" y="0" name="bottomright"/>
  <anchor x="957" y="1486" name="top"/>
  <outline>
    <contour>
      <point x="-114" y="0" type="line"/>
      <point x="300" y="0" type="line"/>
      <point x="305" y="36" type="line"/>
      <point x="139" y="72" type="line"/>
      <point x="334" y="1059" type="line"/>
      <point x="393" y="1362" type="line"/>
      <point x="406" y="957" type="line"/>
      <point x="458" y="0" type="line"/>
      <point x="747" y="0" type="line"/>
      <point x="1078" y="1047" type="line"/>
      <point x="1168" y="1361" type="line"/>
      <point x="1140" y="1049" type="line"/>
      <point x="1083" y="74" type="line"/>
      <point x="943" y="38" type="line"/>
      <point x="938" y="0" type="line"/>
      <point x="1574" y="0" type="line"/>
      <point x="1579" y="38" type="line"/>
      <point x="1430" y="74" type="line"/>
      <point x="1500" y="1411" type="line"/>
      <point x="1658" y="1450" type="line"/>
      <point x="1663" y="1486" type="line"/>
      <point x="1145" y="1486" type="line"/>
      <point x="841" y="530" type="line"/>
      <point x="757" y="221" type="line"/>
      <point x="746" y="519" type="line"/>
      <point x="710" y="1486" type="line"/>
      <point x="198" y="1486" type="line"/>
      <point x="192" y="1450" type="line"/>
      <point x="342" y="1412" type="line"/>
      <point x="29" y="72" type="line"/>
      <point x="-109" y="38" type="line"/>
    </contour>
  </outline>
</glyph>
<glyph name="N" format="2">
  <advance width="1323"/>
  <unicode hex="004E"/>
  <anchor x="696" y="0" name="bottom"/>
  <anchor x="900" y="1486" name="top"/>
  <outline>
    <contour>
      <point x="-38" y="0" type="line"/>
      <point x="410" y="0" type="line"/>
      <point x="415" y="36" type="line"/>
      <point x="222" y="72" type="line"/>
      <point x="366" y="1441" type="line"/>
      <point x="313" y="1433" type="line"/>
      <point x="448" y="1058" type="line"/>
      <point x="849" y="0" type="line"/>
      <point x="1089" y="0" type="line"/>
      <point x="1304" y="1411" type="line"/>
      <point x="1438" y="1450" type="line"/>
      <point x="1440" y="1486" type="line"/>
      <point x="1026" y="1486" type="line"/>
      <point x="1021" y="1450" type="line"/>
      <point x="1203" y="1411" type="line"/>
      <point x="1066" y="240" type="line"/>
      <point x="1111" y="300" type="line"/>
      <point x="999" y="590" type="line"/>
      <point x="661" y="1486" type="line"/>
      <point x="173" y="1486" type="line"/>
      <point x="167" y="1447" type="line"/>
      <point x="310" y="1411" type="line"/>
      <point x="108" y="72" type="line"/>
      <point x="-36" y="36" type="line"/>
    </contour>
  </outline>
</glyph>
<glyph name="S" format="2">
  <advance width="1033"/>
  <unicode hex="0053"/>
  <anchor x="451" y="0" name="bottom"/>
  <anchor x="656" y="1486" name="top"/>
  <outline>
    <contour>
      <point x="445" y="-24" type="curve" smooth="yes"/>
      <point x="828" y="-24"/>
      <point x="992" y="194"/>
      <point x="992" y="432" type="curve" smooth="yes"/>
      <point x="992" y="631"/>
      <point x="832" y="778"/>
      <point x="678" y="890" type="curve" smooth="yes"/>
      <point x="521" y="1004"/>
      <point x="433" y="1074"/>
      <point x="433" y="1220" type="curve" smooth="yes"/>
      <point x="433" y="1372"/>
      <point x="519" y="1447"/>
      <point x="630" y="1447" type="curve" smooth="yes"/>
      <point x="725" y="1447"/>
      <point x="787" y="1400"/>
      <point x="787" y="1334" type="curve"/>
      <point x="807" y="1138" type="line"/>
      <point x="1003" y="1138" type="line"/>
      <point x="1052" y="1432" type="line"/>
      <point x="993" y="1468"/>
      <point x="866" y="1504"/>
      <point x="645" y="1504" type="curve" smooth="yes"/>
      <point x="351" y="1504"/>
      <point x="129" y="1352"/>
      <point x="129" y="1070" type="curve" smooth="yes"/>
      <point x="129" y="873"/>
      <point x="258" y="727"/>
      <point x="427" y="617" type="curve" smooth="yes"/>
      <point x="602" y="502"/>
      <point x="689" y="398"/>
      <point x="689" y="290" type="curve" smooth="yes"/>
      <point x="689" y="140"/>
      <point x="623" y="34"/>
      <point x="454" y="34" type="curve" smooth="yes"/>
      <point x="345" y="34"/>
      <point x="275" y="97"/>
      <point x="264" y="164" type="curve"/>
      <point x="248" y="382" type="line"/>
      <point x="45" y="382" type="line"/>
      <point x="-12" y="74" type="line"/>
      <point x="33" y="38"/>
      <point x="251" y="-24"/>
    </contour>
  </outline>
</glyph>
<glyph name="asciicircum" format="2">
  <advance width="1074"/>
  <unicode hex="005E"/>
  <outline>
    <contour>
      <point x="609" y="1496" type="line"/>
      <point x="135" y="404" type="line"/>
      <point x="224" y="404" type="line"/>
      <point x="637" y="1362" type="line"/>
      <point x="816" y="404" type="line"/>
      <point x="913" y="404" type="line"/>
      <point x="693" y="1496" type="line"/>
    </contour>
  </outline>
</glyph>
<glyph name="a" format="2">
  <advance width="1028"/>
  <unicode hex="0061"/>
  <guideline x="569" y="980" angle="0"/>
  <guideline x="429" y="133" angle="0"/>
  <guideline x="429" y="174" angle="0"/>
  <anchor x="524" y="0" name="bottom"/>
  <anchor x="1129" y="1622" name="caron"/>
  <anchor x="793" y="0" name="ogonek"/>
  <anchor x="623" y="1108" name="top"/>
  <outline>
    <contour>
      <point x="867" y="185" type="curve"/>
      <point x="991" y="1022" type="line"/>
      <point x="802" y="986" type="line"/>
      <point x="735" y="1011"/>
      <point x="662" y="1027"/>
      <point x="601" y="1027" type="curve" smooth="yes"/>
      <point x="224" y="1027"/>
      <point x="17" y="673"/>
      <point x="17" y="346" type="curve" smooth="yes"/>
      <point x="17" y="87"/>
      <point x="164" y="-23"/>
      <point x="306" y="-23" type="curve" smooth="yes"/>
      <point x="457" y="-23"/>
      <point x="548" y="115"/>
      <point x="580" y="240" type="curve"/>
      <point x="567" y="140" type="line" smooth="yes"/>
      <point x="557" y="62"/>
      <point x="596" y="-23"/>
      <point x="704" y="-23" type="curve" smooth="yes"/>
      <point x="852" y="-23"/>
      <point x="943" y="44"/>
      <point x="1001" y="121" type="curve"/>
      <point x="979" y="171" type="line"/>
      <point x="950" y="138"/>
      <point x="922" y="126"/>
      <point x="900" y="126" type="curve" smooth="yes"/>
      <point x="870" y="126"/>
      <point x="861" y="144"/>
    </contour>
    <contour>
      <point x="668" y="935" type="curve"/>
      <point x="569" y="329" type="line"/>
      <point x="548" y="229"/>
      <point x="485" y="108"/>
      <point x="429" y="108" type="curve" smooth="yes"/>
      <point x="387" y="108"/>
      <point x="360" y="144"/>
      <point x="360" y="297" type="curve" smooth="yes"/>
      <point x="360" y="547"/>
      <point x="425" y="980"/>
      <point x="596" y="980" type="curve" smooth="yes"/>
      <point x="628" y="980"/>
      <point x="662" y="958"/>
    </contour>
  </outline>
</glyph>
<glyph name="b" format="2">
  <advance width="1020"/>
  <unicode hex="0062"/>
  <guideline x="98" y="1516" angle="0"/>
  <guideline x="440" y="90" angle="0"/>
  <guideline x="549" y="821" angle="0"/>
  <guideline x="536" y="687" angle="0"/>
  <guideline x="241" y="1503" angle="81.539"/>
  <anchor x="421" y="0" name="bottom"/>
  <anchor x="763" y="1109" name="top"/>
  <outline>
    <contour>
      <point x="461" y="841" type="curve"/>
      <point x="575" y="1604" type="line"/>
      <point x="538" y="1634" type="line"/>
      <point x="132" y="1579" type="line"/>
      <point x="127" y="1545" type="line"/>
      <point x="247" y="1505" type="line"/>
      <point x="17" y="-29" type="line"/>
      <point x="205" y="14" type="line"/>
      <point x="266" y="-4"/>
      <point x="345" y="-22"/>
      <point x="416" y="-22" type="curve" smooth="yes"/>
      <point x="805" y="-22"/>
      <point x="1003" y="302"/>
      <point x="1003" y="687" type="curve" smooth="yes"/>
      <point x="1003" y="905"/>
      <point x="890" y="1036"/>
      <point x="725" y="1036" type="curve" smooth="yes"/>
      <point x="605" y="1036"/>
      <point x="505" y="947"/>
    </contour>
    <contour>
      <point x="348" y="77" type="curve"/>
      <point x="437" y="675" type="line"/>
      <point x="480" y="846"/>
      <point x="551" y="905"/>
      <point x="592" y="905" type="curve" smooth="yes"/>
      <point x="637" y="905"/>
      <point x="660" y="845"/>
      <point x="660" y="739" type="curve" smooth="yes"/>
      <point x="660" y="408"/>
      <point x="583" y="33"/>
      <point x="420" y="33" type="curve" smooth="yes"/>
      <point x="389" y="33"/>
      <point x="361" y="46"/>
    </contour>
  </outline>
</glyph>
<glyph name="c" format="2">
  <advance width="799"/>
  <unicode hex="0063"/>
  <anchor x="386" y="0" name="bottom"/>
  <anchor x="597" y="1108" name="top"/>
  <outline>
    <contour>
      <point x="703" y="715" type="curve"/>
      <point x="777" y="715" type="line"/>
      <point x="855" y="995" type="line"/>
      <point x="783" y="1019"/>
      <point x="673" y="1035"/>
      <point x="607" y="1035" type="curve" smooth="yes"/>
      <point x="244" y="1035"/>
      <point x="21" y="710"/>
      <point x="21" y="408" type="curve" smooth="yes"/>
      <point x="21" y="124"/>
      <point x="168" y="-24"/>
      <point x="378" y="-24" type="curve" smooth="yes"/>
      <point x="560" y="-24"/>
      <point x="681" y="61"/>
      <point x="763" y="191" type="curve"/>
      <point x="738" y="235" type="line"/>
      <point x="696" y="181"/>
      <point x="612" y="106"/>
      <point x="512" y="106" type="curve" smooth="yes"/>
      <point x="435" y="106"/>
      <point x="366" y="167"/>
      <point x="366" y="399" type="curve" smooth="yes"/>
      <point x="366" y="712"/>
      <point x="485" y="973"/>
      <point x="578" y="973" type="curve" smooth="yes"/>
      <point x="640" y="973"/>
      <point x="647" y="915"/>
    </contour>
  </outline>
</glyph>
<glyph name="l" format="2">
  <advance width="521"/>
  <unicode hex="006C"/>
  <anchor x="225" y="0" name="bottom"/>
  <anchor x="676" y="1618" name="caron"/>
  <anchor x="414" y="1650" name="top"/>
  <outline>
    <contour>
      <point x="358" y="178" type="curve"/>
      <point x="572" y="1604" type="line"/>
      <point x="535" y="1634" type="line"/>
      <point x="129" y="1579" type="line"/>
      <point x="124" y="1545" type="line"/>
      <point x="244" y="1505" type="line"/>
      <point x="55" y="245" type="line" smooth="yes"/>
      <point x="44" y="171"/>
      <point x="41" y="126"/>
      <point x="41" y="105" type="curve" smooth="yes"/>
      <point x="41" y="15"/>
      <point x="94" y="-24"/>
      <point x="174" y="-24" type="curve" smooth="yes"/>
      <point x="314" y="-24"/>
      <point x="411" y="24"/>
      <point x="498" y="122" type="curve"/>
      <point x="476" y="168" type="line"/>
      <point x="444" y="135"/>
      <point x="411" y="121"/>
      <point x="389" y="121" type="curve" smooth="yes"/>
      <point x="372" y="121"/>
      <point x="358" y="131"/>
    </contour>
  </outline>
</glyph>
<glyph name="m" format="2">
  <advance width="1586"/>
  <unicode hex="006D"/>
  <anchor x="721" y="0" name="bottom"/>
  <anchor x="1455" y="0" name="bottomright"/>
  <anchor x="947" y="1108" name="top"/>
  <outline>
    <contour>
      <point x="480" y="992" type="line"/>
      <point x="440" y="1031" type="line"/>
      <point x="70" y="961" type="line"/>
      <point x="65" y="927" type="line"/>
      <point x="152" y="885" type="line"/>
      <point x="29" y="0" type="line"/>
      <point x="347" y="0" type="line"/>
      <point x="418" y="533" type="line"/>
      <point x="468" y="658"/>
      <point x="545" y="822"/>
      <point x="611" y="822" type="curve" smooth="yes"/>
      <point x="647" y="822"/>
      <point x="656" y="791"/>
      <point x="656" y="756" type="curve" smooth="yes"/>
      <point x="656" y="709"/>
      <point x="640" y="564"/>
      <point x="634" y="516" type="curve" smooth="yes"/>
      <point x="567" y="0" type="line"/>
      <point x="885" y="0" type="line"/>
      <point x="951" y="547" type="line" smooth="yes"/>
      <point x="952" y="557"/>
      <point x="954" y="568"/>
      <point x="955" y="578" type="curve"/>
      <point x="933" y="487" type="line"/>
      <point x="1030" y="749"/>
      <point x="1102" y="822"/>
      <point x="1145" y="822" type="curve" smooth="yes"/>
      <point x="1181" y="822"/>
      <point x="1191" y="791"/>
      <point x="1191" y="749" type="curve" smooth="yes"/>
      <point x="1191" y="687"/>
      <point x="1174" y="566"/>
      <point x="1157" y="434" type="curve" smooth="yes"/>
      <point x="1143" y="326"/>
      <point x="1117" y="145"/>
      <point x="1117" y="98" type="curve" smooth="yes"/>
      <point x="1117" y="8"/>
      <point x="1185" y="-24"/>
      <point x="1251" y="-24" type="curve" smooth="yes"/>
      <point x="1420" y="-24"/>
      <point x="1534" y="72"/>
      <point x="1579" y="121" type="curve"/>
      <point x="1557" y="169" type="line"/>
      <point x="1527" y="137"/>
      <point x="1491" y="126"/>
      <point x="1477" y="126" type="curve" smooth="yes"/>
      <point x="1459" y="126"/>
      <point x="1442" y="137"/>
      <point x="1442" y="185" type="curve"/>
      <point x="1449" y="252"/>
      <point x="1468" y="395"/>
      <point x="1481" y="494" type="curve" smooth="yes"/>
      <point x="1488" y="548"/>
      <point x="1513" y="700"/>
      <point x="1513" y="818" type="curve" smooth="yes"/>
      <point x="1513" y="928"/>
      <point x="1448" y="1031"/>
      <point x="1315" y="1031" type="curve" smooth="yes"/>
      <point x="1092" y="1031"/>
      <point x="987" y="741"/>
      <point x="941" y="581" type="curve"/>
      <point x="957" y="581" type="line"/>
      <point x="969" y="673"/>
      <point x="979" y="750"/>
      <point x="979" y="818" type="curve" smooth="yes"/>
      <point x="979" y="939"/>
      <point x="903" y="1031"/>
      <point x="773" y="1031" type="curve" smooth="yes"/>
      <point x="600" y="1031"/>
      <point x="489" y="826"/>
      <point x="438" y="667" type="curve"/>
    </contour>
  </outline>
</glyph>
<glyph name="n" format="2">
  <advance width="1058"/>
  <unicode hex="006E"/>
  <guideline x="386" y="267" angle="82.2013"/>
  <guideline x="543" y="645" angle="0"/>
  <guideline x="506" y="533" angle="0"/>
  <anchor x="470" y="0" name="bottom"/>
  <anchor x="927" y="0" name="bottomright"/>
  <anchor x="631" y="1110" name="top"/>
  <outline>
    <contour>
      <point x="438" y="667" type="curve"/>
      <point x="480" y="992" type="line"/>
      <point x="440" y="1031" type="line"/>
      <point x="70" y="961" type="line"/>
      <point x="65" y="927" type="line"/>
      <point x="152" y="885" type="line"/>
      <point x="32" y="0" type="line"/>
      <point x="346" y="0" type="line"/>
      <point x="419" y="533" type="line"/>
      <point x="477" y="687"/>
      <point x="558" y="822"/>
      <point x="617" y="822" type="curve" smooth="yes"/>
      <point x="653" y="822"/>
      <point x="662" y="791"/>
      <point x="662" y="746" type="curve" smooth="yes"/>
      <point x="662" y="687"/>
      <point x="641" y="566"/>
      <point x="623" y="434" type="curve" smooth="yes"/>
      <point x="608" y="326"/>
      <point x="584" y="145"/>
      <point x="584" y="98" type="curve" smooth="yes"/>
      <point x="584" y="8"/>
      <point x="651" y="-24"/>
      <point x="713" y="-24" type="curve" smooth="yes"/>
      <point x="892" y="-24"/>
      <point x="1003" y="68"/>
      <point x="1051" y="122" type="curve"/>
      <point x="1028" y="170" type="line"/>
      <point x="999" y="138"/>
      <point x="967" y="126"/>
      <point x="949" y="126" type="curve" smooth="yes"/>
      <point x="930" y="126"/>
      <point x="915" y="137"/>
      <point x="915" y="185" type="curve"/>
      <point x="921" y="252"/>
      <point x="941" y="396"/>
      <point x="953" y="494" type="curve" smooth="yes"/>
      <point x="966" y="602"/>
      <point x="990" y="700"/>
      <point x="990" y="818" type="curve" smooth="yes"/>
      <point x="990" y="928"/>
      <point x="924" y="1031"/>
      <point x="781" y="1031" type="curve" smooth="yes"/>
      <point x="611" y="1031"/>
      <point x="497" y="847"/>
    </contour>
  </outline>
</glyph>
<glyph name="o" format="2">
  <advance width="990"/>
  <unicode hex="006F"/>
  <anchor x="434" y="0" name="bottom"/>
  <anchor x="495" y="505" name="center"/>
  <anchor x="546" y="0" name="ogonek"/>
  <anchor x="604" y="1110" name="top"/>
  <anchor x="741" y="1005" name="topright"/>
  <outline>
    <contour>
      <point x="574" y="1036" type="curve" smooth="yes"/>
      <point x="249" y="1036"/>
      <point x="22" y="744"/>
      <point x="22" y="395" type="curve" smooth="yes"/>
      <point x="22" y="143"/>
      <point x="136" y="-28"/>
      <point x="419" y="-28" type="curve" smooth="yes"/>
      <point x="744" y="-28"/>
      <point x="969" y="265"/>
      <point x="969" y="615" type="curve" smooth="yes"/>
      <point x="969" y="868"/>
      <point x="854" y="1036"/>
    </contour>
    <contour>
      <point x="568" y="982" type="curve" smooth="yes"/>
      <point x="614" y="982"/>
      <point x="634" y="905"/>
      <point x="634" y="769" type="curve" smooth="yes"/>
      <point x="634" y="388"/>
      <point x="555" y="26"/>
      <point x="426" y="26" type="curve" smooth="yes"/>
      <point x="375" y="26"/>
      <point x="357" y="104"/>
      <point x="357" y="235" type="curve" smooth="yes"/>
      <point x="357" y="620"/>
      <point x="436" y="982"/>
    </contour>
  </outline>
</glyph>
<glyph name="r" format="2">
  <advance width="726"/>
  <unicode hex="0072"/>
  <guideline x="394" y="325" angle="262.3649"/>
  <anchor x="218" y="0" name="bottom"/>
  <anchor x="454" y="1110" name="top"/>
  <outline>
    <contour>
      <point x="437" y="699" type="curve"/>
      <point x="455" y="812" type="line"/>
      <point x="479" y="992" type="line"/>
      <point x="440" y="1031" type="line"/>
      <point x="70" y="961" type="line"/>
      <point x="65" y="927" type="line"/>
      <point x="152" y="885" type="line"/>
      <point x="32" y="0" type="line"/>
      <point x="350" y="0" type="line"/>
      <point x="435" y="649" type="line"/>
      <point x="471" y="687"/>
      <point x="530" y="708"/>
      <point x="599" y="708" type="curve" smooth="yes"/>
      <point x="657" y="708"/>
      <point x="707" y="679"/>
      <point x="714" y="669" type="curve"/>
      <point x="777" y="1015" type="line"/>
      <point x="765" y="1024"/>
      <point x="745" y="1031"/>
      <point x="710" y="1031" type="curve" smooth="yes"/>
      <point x="578" y="1031"/>
      <point x="494" y="846"/>
    </contour>
  </outline>
</glyph>
<glyph name="u" format="2">
  <advance width="1063"/>
  <unicode hex="0075"/>
  <guideline x="664" y="739" angle="82.2013"/>
  <anchor x="425" y="0" name="bottom"/>
  <anchor x="916" y="0" name="bottomright"/>
  <anchor x="820" y="0" name="ogonek"/>
  <anchor x="605" y="1110" name="top"/>
  <anchor x="913" y="1005" name="topright"/>
  <outline>
    <contour>
      <point x="262" y="-24" type="curve" smooth="yes"/>
      <point x="443" y="-24"/>
      <point x="566" y="136"/>
      <point x="621" y="326" type="curve"/>
      <point x="622" y="326" type="line"/>
      <point x="603" y="217"/>
      <point x="593" y="163"/>
      <point x="593" y="106" type="curve" smooth="yes"/>
      <point x="593" y="25"/>
      <point x="637" y="-23"/>
      <point x="735" y="-23" type="curve" smooth="yes"/>
      <point x="870" y="-23"/>
      <point x="969" y="40"/>
      <point x="1036" y="121" type="curve"/>
      <point x="1014" y="171" type="line"/>
      <point x="991" y="143"/>
      <point x="956" y="126"/>
      <point x="928" y="126" type="curve" smooth="yes"/>
      <point x="909" y="126"/>
      <point x="894" y="137"/>
      <point x="901" y="182" type="curve"/>
      <point x="1024" y="1005" type="line"/>
      <point x="710" y="1005" type="line"/>
      <point x="627" y="472" type="line"/>
      <point x="570" y="297"/>
      <point x="505" y="185"/>
      <point x="431" y="185" type="curve" smooth="yes"/>
      <point x="393" y="185"/>
      <point x="387" y="215"/>
      <point x="387" y="262" type="curve" smooth="yes"/>
      <point x="387" y="293"/>
      <point x="407" y="458"/>
      <point x="422" y="571" type="curve" smooth="yes"/>
      <point x="477" y="992" type="line"/>
      <point x="437" y="1031" type="line"/>
      <point x="68" y="961" type="line"/>
      <point x="63" y="927" type="line"/>
      <point x="149" y="885" type="line"/>
      <point x="99" y="511" type="line" smooth="yes"/>
      <point x="85" y="409"/>
      <point x="63" y="272"/>
      <point x="63" y="191" type="curve" smooth="yes"/>
      <point x="63" y="72"/>
      <point x="125" y="-24"/>
    </contour>
  </outline>
</glyph>
<glyph name="w" format="2">
  <advance width="1423"/>
  <unicode hex="0077"/>
  <guideline x="888" y="210" angle="0"/>
  <anchor x="805" y="1108" name="top"/>
  <outline>
    <contour>
      <point x="241" y="-20" type="line"/>
      <point x="490" y="-2" type="line"/>
      <point x="617" y="405" type="line"/>
      <point x="671" y="606" type="line"/>
      <point x="716" y="814" type="line"/>
      <point x="729" y="606" type="line"/>
      <point x="751" y="385" type="line"/>
      <point x="785" y="-20" type="line"/>
      <point x="1001" y="-6" type="line"/>
      <point x="1148" y="212" type="line" smooth="yes"/>
      <point x="1356" y="520"/>
      <point x="1442" y="686"/>
      <point x="1442" y="859" type="curve" smooth="yes"/>
      <point x="1442" y="958"/>
      <point x="1404" y="1041"/>
      <point x="1288" y="1041" type="curve" smooth="yes"/>
      <point x="1220" y="1041"/>
      <point x="1164" y="975"/>
      <point x="1164" y="904" type="curve" smooth="yes"/>
      <point x="1164" y="812"/>
      <point x="1262" y="722"/>
      <point x="1262" y="625" type="curve" smooth="yes"/>
      <point x="1262" y="542"/>
      <point x="1209" y="427"/>
      <point x="1141" y="315" type="curve" smooth="yes"/>
      <point x="994" y="73" type="line"/>
      <point x="1069" y="149" type="line"/>
      <point x="1044" y="441" type="line"/>
      <point x="998" y="1006" type="line"/>
      <point x="714" y="1006" type="line"/>
      <point x="557" y="414" type="line"/>
      <point x="459" y="62" type="line"/>
      <point x="502" y="97" type="line"/>
      <point x="477" y="395" type="line"/>
      <point x="446" y="834" type="line" smooth="yes"/>
      <point x="437" y="968"/>
      <point x="390" y="1040"/>
      <point x="271" y="1040" type="curve" smooth="yes"/>
      <point x="161" y="1040"/>
      <point x="70" y="984"/>
      <point x="12" y="919" type="curve"/>
      <point x="33" y="877" type="line"/>
      <point x="55" y="895"/>
      <point x="66" y="901"/>
      <point x="81" y="901" type="curve" smooth="yes"/>
      <point x="102" y="901"/>
      <point x="117" y="887"/>
      <point x="123" y="842" type="curve" smooth="yes"/>
      <point x="190" y="354" type="line"/>
    </contour>
  </outline>
</glyph>
<glyph name="z" format="2">
  <advance width="811"/>
  <unicode hex="007A"/>
  <guideline x="331" y="344" angle="50.806"/>
  <anchor x="359" y="0" name="bottom"/>
  <anchor x="501" y="1110" name="top"/>
  <outline>
    <contour>
      <point x="605" y="755" type="curve"/>
      <point x="505" y="642" type="line"/>
      <point x="-48" y="6" type="line"/>
      <point x="-14" y="-26" type="line"/>
      <point x="8" y="-2"/>
      <point x="25" y="10"/>
      <point x="68" y="10" type="curve" smooth="yes"/>
      <point x="183" y="10"/>
      <point x="443" y="-22"/>
      <point x="577" y="-22" type="curve" smooth="yes"/>
      <point x="621" y="-22"/>
      <point x="653" y="-15"/>
      <point x="668" y="-4" type="curve" smooth="yes"/>
      <point x="743" y="50"/>
      <point x="771" y="315"/>
      <point x="770" y="399" type="curve"/>
      <point x="723" y="399" type="line"/>
      <point x="706" y="318"/>
      <point x="658" y="247"/>
      <point x="571" y="247" type="curve" smooth="yes"/>
      <point x="461" y="247"/>
      <point x="327" y="250"/>
      <point x="235" y="250" type="curve"/>
      <point x="335" y="361" type="line"/>
      <point x="888" y="998" type="line"/>
      <point x="860" y="1029" type="line"/>
      <point x="829" y="1003"/>
      <point x="813" y="997"/>
      <point x="761" y="997" type="curve" smooth="yes"/>
      <point x="647" y="997"/>
      <point x="414" y="1030"/>
      <point x="280" y="1030" type="curve" smooth="yes"/>
      <point x="234" y="1030"/>
      <point x="210" y="1021"/>
      <point x="193" y="1010" type="curve" smooth="yes"/>
      <point x="121" y="963"/>
      <point x="90" y="696"/>
      <point x="96" y="615" type="curve"/>
      <point x="144" y="615" type="line"/>
      <point x="156" y="690"/>
      <point x="188" y="755"/>
      <point x="286" y="757" type="curve" smooth="yes"/>
      <point x="388" y="759"/>
      <point x="519" y="756"/>
    </contour>
  </outline>
</glyph>
<glyph name="sterling" format="2">
  <advance width="1320"/>
  <unicode hex="00A3"/>
  <outline>
    <contour>
      <point x="755" y="-14" type="curve" smooth="yes"/>
      <point x="1024" y="-14"/>
      <point x="1254" y="183"/>
      <point x="1254" y="401" type="curve" smooth="yes"/>
      <point x="1254" y="470"/>
      <point x="1231" y="511"/>
      <point x="1210" y="533" type="curve"/>
      <point x="920" y="533" type="line"/>
      <point x="943" y="488"/>
      <point x="956" y="447"/>
      <point x="956" y="373" type="curve" smooth="yes"/>
      <point x="956" y="180"/>
      <point x="868" y="44"/>
      <point x="731" y="44" type="curve" smooth="yes"/>
      <point x="625" y="44"/>
      <point x="580" y="125"/>
      <point x="448" y="191" type="curve"/>
      <point x="553" y="311"/>
      <point x="578" y="365"/>
      <point x="620" y="588" type="curve" smooth="yes"/>
      <point x="629" y="639"/>
      <point x="640" y="699"/>
      <point x="652" y="771" type="curve"/>
      <point x="894" y="771" type="line"/>
      <point x="904" y="849" type="line"/>
      <point x="662" y="849" type="line"/>
      <point x="670" y="919"/>
      <point x="677" y="982"/>
      <point x="685" y="1038" type="curve" smooth="yes"/>
      <point x="727" y="1340"/>
      <point x="770" y="1447"/>
      <point x="863" y="1447" type="curve" smooth="yes"/>
      <point x="960" y="1447"/>
      <point x="1018" y="1337"/>
      <point x="1064" y="1200" type="curve"/>
      <point x="1219" y="1400" type="line"/>
      <point x="1148" y="1466"/>
      <point x="1022" y="1505"/>
      <point x="895" y="1505" type="curve" smooth="yes"/>
      <point x="578" y="1505"/>
      <point x="416" y="1308"/>
      <point x="357" y="883" type="curve" smooth="yes"/>
      <point x="356" y="872"/>
      <point x="354" y="861"/>
      <point x="353" y="849" type="curve"/>
      <point x="189" y="849" type="line"/>
      <point x="178" y="771" type="line"/>
      <point x="344" y="771" type="line"/>
      <point x="325" y="641"/>
      <point x="312" y="545"/>
      <point x="302" y="473" type="curve" smooth="yes"/>
      <point x="277" y="294"/>
      <point x="273" y="265"/>
      <point x="250" y="232" type="curve"/>
      <point x="167" y="221"/>
      <point x="30" y="167"/>
      <point x="30" y="72" type="curve" smooth="yes"/>
      <point x="30" y="28"/>
      <point x="59" y="0"/>
      <point x="131" y="0" type="curve" smooth="yes"/>
      <point x="192" y="0"/>
      <point x="261" y="20"/>
      <point x="336" y="98" type="curve"/>
      <point x="416" y="98"/>
      <point x="553" y="-14"/>
    </contour>
  </outline>
</glyph>
<glyph name="dieresis" format="2">
  <advance width="998"/>
  <unicode hex="00A8"/>
  <anchor x="579" y="1110" name="_top"/>
  <anchor x="638" y="1520" name="top"/>
  <outline>
    <contour>
      <point x="398" y="1157" type="curve" smooth="yes"/>
      <point x="505" y="1157"/>
      <point x="563" y="1251"/>
      <point x="563" y="1350" type="curve" smooth="yes"/>
      <point x="563" y="1427"/>
      <point x="523" y="1509"/>
      <point x="422" y="1509" type="curve" smooth="yes"/>
      <point x="322" y="1509"/>
      <point x="262" y="1418"/>
      <point x="262" y="1313" type="curve" smooth="yes"/>
      <point x="262" y="1231"/>
      <point x="308" y="1157"/>
    </contour>
    <contour>
      <point x="799" y="1157" type="curve" smooth="yes"/>
      <point x="906" y="1157"/>
      <point x="964" y="1251"/>
      <point x="964" y="1350" type="curve" smooth="yes"/>
      <point x="964" y="1427"/>
      <point x="924" y="1509"/>
      <point x="823" y="1509" type="curve" smooth="yes"/>
      <point x="723" y="1509"/>
      <point x="663" y="1418"/>
      <point x="663" y="1313" type="curve" smooth="yes"/>
      <point x="663" y="1231"/>
      <point x="709" y="1157"/>
    </contour>
  </outline>
</glyph>
<glyph name="macron" format="2">
  <advance width="858"/>
  <unicode hex="00AF"/>
  <anchor x="514" y="1110" name="_top"/>
  <anchor x="555" y="1436" name="top"/>
  <outline>
    <contour>
      <point x="265" y="1353" type="line"/>
      <point x="241" y="1168" type="line"/>
      <point x="801" y="1168" type="line"/>
      <point x="825" y="1353" type="line"/>
    </contour>
  </outline>
</glyph>
<glyph name="degree" format="2">
  <advance width="667"/>
  <unicode hex="00B0"/>
  <outline>
    <contour>
      <point x="445" y="1053" type="curve" smooth="yes"/>
      <point x="590" y="1053"/>
      <point x="709" y="1174"/>
      <point x="709" y="1317" type="curve" smooth="yes"/>
      <point x="709" y="1469"/>
      <point x="590" y="1581"/>
      <point x="445" y="1581" type="curve" smooth="yes"/>
      <point x="300" y="1581"/>
      <point x="181" y="1469"/>
      <point x="181" y="1317" type="curve" smooth="yes"/>
      <point x="181" y="1174"/>
      <point x="300" y="1053"/>
    </contour>
    <contour>
      <point x="445" y="1121" type="curve" smooth="yes"/>
      <point x="345" y="1121"/>
      <point x="266" y="1214"/>
      <point x="266" y="1317" type="curve" smooth="yes"/>
      <point x="266" y="1427"/>
      <point x="339" y="1513"/>
      <point x="445" y="1513" type="curve" smooth="yes"/>
      <point x="551" y="1513"/>
      <point x="624" y="1427"/>
      <point x="624" y="1317" type="curve" smooth="yes"/>
      <point x="624" y="1214"/>
      <point x="545" y="1121"/>
    </contour>
  </outline>
</glyph>
<glyph name="acute" format="2">
  <advance width="765"/>
  <unicode hex="00B4"/>
  <anchor x="402" y="1110" name="_top"/>
  <anchor x="331" y="1517" name="top"/>
  <outline>
    <contour>
      <point x="238" y="1156" type="line"/>
      <point x="277" y="1121" type="line"/>
      <point x="405" y="1182"/>
      <point x="636" y="1337"/>
      <point x="747" y="1452" type="curve"/>
      <point x="549" y="1629" type="line"/>
    </contour>
  </outline>
</glyph>
<glyph name="AE" format="2">
  <advance width="1736"/>
  <unicode hex="00C6"/>
  <anchor x="1104" y="1486" name="top"/>
  <outline>
    <contour>
      <point x="-204" y="0" type="line"/>
      <point x="322" y="0" type="line"/>
      <point x="324" y="39" type="line"/>
      <point x="162" y="72" type="line"/>
      <point x="345" y="432" type="line"/>
      <point x="762" y="432" type="line"/>
      <point x="713" y="72" type="line"/>
      <point x="584" y="39" type="line"/>
      <point x="577" y="-1" type="line"/>
      <point x="1595" y="0" type="line"/>
      <point x="1717" y="471" type="line"/>
      <point x="1555" y="490" type="line"/>
      <point x="1364" y="78" type="line"/>
      <point x="1057" y="53" type="line"/>
      <point x="1151" y="733" type="line"/>
      <point x="1515" y="712" type="line"/>
      <point x="1536" y="825" type="line"/>
      <point x="1159" y="795" type="line"/>
      <point x="1247" y="1434" type="line"/>
      <point x="1507" y="1409" type="line"/>
      <point x="1585" y="1102" type="line"/>
      <point x="1719" y="1102" type="line"/>
      <point x="1741" y="1486" type="line"/>
      <point x="511" y="1486" type="line"/>
      <point x="506" y="1450" type="line"/>
      <point x="750" y="1413" type="line"/>
      <point x="-47" y="72" type="line"/>
      <point x="-201" y="39" type="line"/>
    </contour>
    <contour>
      <point x="378" y="498" type="line"/>
      <point x="843" y="1413" type="line"/>
      <point x="897" y="1413" type="line"/>
      <point x="771" y="498" type="line"/>
    </contour>
  </outline>
</glyph>
<glyph name="germandbls" format="2">
  <advance width="1117"/>
  <unicode hex="00DF"/>
  <guideline x="713" y="1518" angle="0"/>
  <outline>
    <contour>
      <point x="155" y="889" type="curve" smooth="yes"/>
      <point x="21" y="0" type="line"/>
      <point x="333" y="0" type="line"/>
      <point x="466" y="906" type="line" smooth="yes"/>
      <point x="526" y="1316"/>
      <point x="570" y="1520"/>
      <point x="697" y="1520" type="curve" smooth="yes"/>
      <point x="788" y="1520"/>
      <point x="826" y="1421"/>
      <point x="826" y="1330" type="curve" smooth="yes"/>
      <point x="826" y="1160"/>
      <point x="767" y="1045"/>
      <point x="692" y="943" type="curve" smooth="yes"/>
      <point x="618" y="843"/>
      <point x="542" y="745"/>
      <point x="537" y="637" type="curve" smooth="yes"/>
      <point x="531" y="512"/>
      <point x="609" y="442"/>
      <point x="688" y="376" type="curve" smooth="yes"/>
      <point x="736" y="336"/>
      <point x="798" y="279"/>
      <point x="798" y="194" type="curve" smooth="yes"/>
      <point x="798" y="107"/>
      <point x="750" y="36"/>
      <point x="672" y="36" type="curve" smooth="yes"/>
      <point x="604" y="36"/>
      <point x="537" y="102"/>
      <point x="495" y="194" type="curve"/>
      <point x="445" y="27" type="line"/>
      <point x="487" y="2"/>
      <point x="560" y="-23"/>
      <point x="658" y="-23" type="curve" smooth="yes"/>
      <point x="860" y="-23"/>
      <point x="1071" y="109"/>
      <point x="1071" y="336" type="curve" smooth="yes"/>
      <point x="1071" y="502"/>
      <point x="982" y="578"/>
      <point x="872" y="669" type="curve" smooth="yes"/>
      <point x="754" y="765"/>
      <point x="713" y="785"/>
      <point x="717" y="840" type="curve" smooth="yes"/>
      <point x="726" y="966"/>
      <point x="1093" y="987"/>
      <point x="1093" y="1284" type="curve" smooth="yes"/>
      <point x="1093" y="1455"/>
      <point x="936" y="1573"/>
      <point x="727" y="1573" type="curve" smooth="yes"/>
      <point x="328" y="1573"/>
      <point x="220" y="1320"/>
    </contour>
  </outline>
</glyph>
<glyph name="divide" format="2">
  <advance width="1049"/>
  <unicode hex="00F7"/>
  <outline>
    <contour>
      <point x="163" y="604" type="line"/>
      <point x="151" y="524" type="line"/>
      <point x="903" y="524" type="line"/>
      <point x="915" y="604" type="line"/>
    </contour>
    <contour>
      <point x="363" y="213" type="curve" smooth="yes"/>
      <point x="363" y="151"/>
      <point x="413" y="110"/>
      <point x="464" y="110" type="curve" smooth="yes"/>
      <point x="550" y="110"/>
      <point x="610" y="174"/>
      <point x="610" y="259" type="curve" smooth="yes"/>
      <point x="610" y="315"/>
      <point x="569" y="363"/>
      <point x="506" y="363" type="curve" smooth="yes"/>
      <point x="428" y="363"/>
      <point x="363" y="293"/>
    </contour>
    <contour>
      <point x="555" y="778" type="curve" smooth="yes"/>
      <point x="642" y="778"/>
      <point x="700" y="842"/>
      <point x="700" y="927" type="curve" smooth="yes"/>
      <point x="700" y="982"/>
      <point x="661" y="1031"/>
      <point x="598" y="1031" type="curve" smooth="yes"/>
      <point x="519" y="1031"/>
      <point x="453" y="961"/>
      <point x="453" y="881" type="curve" smooth="yes"/>
      <point x="453" y="819"/>
      <point x="504" y="778"/>
    </contour>
  </outline>
</glyph>
<glyph name="dcroat" format="2">
  <advance width="1031"/>
  <unicode hex="0111"/>
  <anchor x="434" y="0" name="bottom"/>
  <anchor x="1170" y="1622" name="caron"/>
  <anchor x="334" y="1110" name="top"/>
  <outline>
    <contour>
      <point x="491" y="1231" type="line"/>
      <point x="1126" y="1231" type="line"/>
      <point x="1139" y="1314" type="line"/>
      <point x="504" y="1314" type="line"/>
    </contour>
    <component base="d"/>
  </outline>
</glyph>
<glyph name="idotless" format="2">
  <advance width="536"/>
  <unicode hex="0131"/>
  <anchor x="212" y="0" name="bottom"/>
  <anchor x="307" y="0" name="ogonek"/>
  <anchor x="345" y="1108" name="top"/>
  <outline>
    <contour>
      <point x="202" y="-24" type="curve" smooth="yes"/>
      <point x="352" y="-24"/>
      <point x="463" y="44"/>
      <point x="527" y="121" type="curve"/>
      <point x="502" y="170" type="line"/>
      <point x="469" y="138"/>
      <point x="439" y="126"/>
      <point x="407" y="126" type="curve" smooth="yes"/>
      <point x="383" y="126"/>
      <point x="370" y="137"/>
      <point x="376" y="185" type="curve"/>
      <point x="486" y="992" type="line"/>
      <point x="446" y="1031" type="line"/>
      <point x="76" y="961" type="line"/>
      <point x="72" y="928" type="line"/>
      <point x="158" y="885" type="line"/>
      <point x="108" y="511"/>
      <point x="53" y="129"/>
      <point x="50" y="104" type="curve" smooth="yes"/>
      <point x="38" y="8"/>
      <point x="131" y="-24"/>
    </contour>
  </outline>
</glyph>
<glyph name="kgreenlandic" format="2">
  <advance width="1017"/>
  <unicode hex="0138"/>
  <outline>
    <contour>
      <point x="32" y="0" type="line"/>
      <point x="350" y="0" type="line"/>
      <point x="480" y="992" type="line"/>
      <point x="440" y="1031" type="line"/>
      <point x="70" y="961" type="line"/>
      <point x="65" y="927" type="line"/>
      <point x="152" y="885" type="line"/>
    </contour>
    <contour>
      <point x="737" y="-23" type="curve" smooth="yes"/>
      <point x="857" y="-23"/>
      <point x="963" y="36"/>
      <point x="1034" y="126" type="curve"/>
      <point x="1010" y="173" type="line"/>
      <point x="980" y="138"/>
      <point x="946" y="123"/>
      <point x="925" y="123" type="curve" smooth="yes"/>
      <point x="896" y="123"/>
      <point x="889" y="133"/>
      <point x="854" y="215" type="curve" smooth="yes"/>
      <point x="674" y="633" type="line"/>
      <point x="470" y="514" type="line"/>
      <point x="633" y="573"/>
      <point x="807" y="702"/>
      <point x="871" y="752" type="curve" smooth="yes"/>
      <point x="936" y="802"/>
      <point x="983" y="857"/>
      <point x="983" y="937" type="curve" smooth="yes"/>
      <point x="983" y="1000"/>
      <point x="942" y="1041"/>
      <point x="869" y="1041" type="curve" smooth="yes"/>
      <point x="810" y="1041"/>
      <point x="733" y="1016"/>
      <point x="714" y="840" type="curve" smooth="yes"/>
      <point x="704" y="754"/>
      <point x="682" y="706"/>
      <point x="670" y="687" type="curve" smooth="yes"/>
      <point x="634" y="630"/>
      <point x="598" y="594"/>
      <point x="426" y="492" type="curve"/>
      <point x="535" y="166" type="line" smooth="yes"/>
      <point x="583" y="22"/>
      <point x="625" y="-23"/>
    </contour>
  </outline>
</glyph>
<glyph name="lslash" format="2">
  <advance width="588"/>
  <unicode hex="0142"/>
  <guideline x="306" y="775" angle="206.1906"/>
  <anchor x="268" y="0" name="bottom"/>
  <anchor x="719" y="1618" name="caron"/>
  <anchor x="457" y="1650" name="top"/>
  <outline>
    <contour>
      <point x="25" y="656" type="line"/>
      <point x="274" y="758" type="line"/>
      <point x="399" y="803" type="line"/>
      <point x="669" y="919" type="line"/>
      <point x="669" y="1021" type="line"/>
      <point x="405" y="906" type="line"/>
      <point x="284" y="862" type="line"/>
      <point x="25" y="754" type="line"/>
    </contour>
    <component base="l" xOffset="43"/>
  </outline>
</glyph>
<glyph name="oe" format="2">
  <advance width="1443"/>
  <unicode hex="0153"/>
  <outline>
    <contour>
      <point x="1342" y="226" type="line"/>
      <point x="1282" y="154"/>
      <point x="1197" y="106"/>
      <point x="1101" y="106" type="curve" smooth="yes"/>
      <point x="974" y="106"/>
      <point x="936" y="190"/>
      <point x="936" y="328" type="curve" smooth="yes"/>
      <point x="936" y="370"/>
      <point x="940" y="416"/>
      <point x="945" y="467" type="curve"/>
      <point x="1098" y="465"/>
      <point x="1466" y="506"/>
      <point x="1466" y="820" type="curve" smooth="yes"/>
      <point x="1466" y="932"/>
      <point x="1385" y="1035"/>
      <point x="1174" y="1035" type="curve" smooth="yes"/>
      <point x="1055" y="1035"/>
      <point x="948" y="1001"/>
      <point x="859" y="938" type="curve"/>
      <point x="793" y="1002"/>
      <point x="698" y="1036"/>
      <point x="574" y="1036" type="curve" smooth="yes"/>
      <point x="260" y="1036"/>
      <point x="22" y="760"/>
      <point x="22" y="396" type="curve" smooth="yes"/>
      <point x="22" y="137"/>
      <point x="141" y="-28"/>
      <point x="419" y="-28" type="curve" smooth="yes"/>
      <point x="529" y="-28"/>
      <point x="627" y="6"/>
      <point x="709" y="63" type="curve"/>
      <point x="769" y="10"/>
      <point x="854" y="-22"/>
      <point x="972" y="-22" type="curve" smooth="yes"/>
      <point x="1173" y="-22"/>
      <point x="1303" y="86"/>
      <point x="1366" y="180" type="curve"/>
    </contour>
    <contour>
      <point x="568" y="982" type="curve" smooth="yes"/>
      <point x="639" y="982"/>
      <point x="648" y="905"/>
      <point x="648" y="743" type="curve" smooth="yes"/>
      <point x="648" y="382"/>
      <point x="501" y="26"/>
      <point x="426" y="26" type="curve" smooth="yes"/>
      <point x="372" y="26"/>
      <point x="359" y="87"/>
      <point x="359" y="210" type="curve" smooth="yes"/>
      <point x="359" y="515"/>
      <point x="429" y="982"/>
    </contour>
    <contour>
      <point x="1124" y="975" type="curve" smooth="yes"/>
      <point x="1149" y="975"/>
      <point x="1178" y="949"/>
      <point x="1178" y="871" type="curve" smooth="yes"/>
      <point x="1178" y="650"/>
      <point x="1081" y="535"/>
      <point x="951" y="508" type="curve"/>
      <point x="969" y="653"/>
      <point x="1027" y="975"/>
    </contour>
  </outline>
</glyph>
<glyph name="Schwa" format="2">
  <advance width="1182"/>
  <unicode hex="018F"/>
  <outline>
    <contour>
      <point x="194" y="1086" type="line"/>
      <point x="360" y="1086" type="line"/>
      <point x="448" y="1286" type="line" smooth="yes"/>
      <point x="474" y="1356"/>
      <point x="569" y="1448"/>
      <point x="655" y="1448" type="curve" smooth="yes"/>
      <point x="809" y="1448"/>
      <point x="829" y="1235"/>
      <point x="829" y="1025" type="curve" smooth="yes"/>
      <point x="829" y="899"/>
      <point x="828" y="881"/>
      <point x="821" y="761" type="curve"/>
      <point x="83" y="761" type="line"/>
      <point x="63" y="705"/>
      <point x="37" y="574"/>
      <point x="37" y="457" type="curve" smooth="yes"/>
      <point x="37" y="152"/>
      <point x="245" y="-22"/>
      <point x="471" y="-22" type="curve" smooth="yes"/>
      <point x="929" y="-22"/>
      <point x="1191" y="380"/>
      <point x="1191" y="924" type="curve" smooth="yes"/>
      <point x="1191" y="1195"/>
      <point x="1099" y="1505"/>
      <point x="677" y="1505" type="curve" smooth="yes"/>
      <point x="431" y="1505"/>
      <point x="330" y="1413"/>
      <point x="238" y="1413" type="curve"/>
    </contour>
    <contour>
      <point x="810" y="695" type="line"/>
      <point x="789" y="303"/>
      <point x="620" y="34"/>
      <point x="477" y="34" type="curve" smooth="yes"/>
      <point x="365" y="34"/>
      <point x="350" y="172"/>
      <point x="350" y="334" type="curve" smooth="yes"/>
      <point x="350" y="468"/>
      <point x="356" y="557"/>
      <point x="384" y="695" type="curve"/>
    </contour>
  </outline>
</glyph>
<glyph name="jdotless" format="2">
  <advance width="520"/>
  <unicode hex="0237"/>
  <anchor x="306" y="1109" name="top"/>
  <outline>
    <contour>
      <point x="347" y="-66" type="curve" smooth="yes"/>
      <point x="493" y="992" type="line"/>
      <point x="454" y="1031" type="line"/>
      <point x="76" y="961" type="line"/>
      <point x="72" y="928" type="line"/>
      <point x="165" y="884" type="line"/>
      <point x="36" y="-48" type="line" smooth="yes"/>
      <point x="4" y="-279"/>
      <point x="-29" y="-437"/>
      <point x="-133" y="-437" type="curve" smooth="yes"/>
      <point x="-150" y="-437"/>
      <point x="-168" y="-433"/>
      <point x="-189" y="-424" type="curve"/>
      <point x="-211" y="-479" type="line"/>
      <point x="-175" y="-498"/>
      <point x="-131" y="-508"/>
      <point x="-70" y="-508" type="curve" smooth="yes"/>
      <point x="151" y="-508"/>
      <point x="302" y="-391"/>
    </contour>
  </outline>
</glyph>
<glyph name="ezh" format="2">
  <advance width="779"/>
  <unicode hex="0292"/>
  <anchor x="478" y="1110" name="top"/>
  <outline>
    <contour>
      <point x="171" y="-497" type="curve" smooth="yes"/>
      <point x="452" y="-497"/>
      <point x="710" y="-285"/>
      <point x="710" y="68" type="curve" smooth="yes"/>
      <point x="710" y="255"/>
      <point x="637" y="393"/>
      <point x="415" y="393" type="curve" smooth="yes"/>
      <point x="385" y="393"/>
      <point x="355" y="390"/>
      <point x="324" y="383" type="curve"/>
      <point x="831" y="998" type="line"/>
      <point x="803" y="1029" type="line"/>
      <point x="772" y="1003"/>
      <point x="756" y="997"/>
      <point x="704" y="997" type="curve" smooth="yes"/>
      <point x="590" y="997"/>
      <point x="319" y="1030"/>
      <point x="185" y="1030" type="curve" smooth="yes"/>
      <point x="139" y="1030"/>
      <point x="116" y="1021"/>
      <point x="100" y="1010" type="curve" smooth="yes"/>
      <point x="32" y="963"/>
      <point x="24" y="706"/>
      <point x="37" y="625" type="curve"/>
      <point x="85" y="625" type="line"/>
      <point x="90" y="700"/>
      <point x="116" y="760"/>
      <point x="214" y="761" type="curve" smooth="yes"/>
      <point x="316" y="762"/>
      <point x="462" y="760"/>
      <point x="548" y="759" type="curve"/>
      <point x="447" y="652" type="line"/>
      <point x="193" y="341" type="line"/>
      <point x="229" y="301" type="line"/>
      <point x="260" y="319"/>
      <point x="286" y="324"/>
      <point x="309" y="324" type="curve" smooth="yes"/>
      <point x="388" y="324"/>
      <point x="427" y="226"/>
      <point x="427" y="100" type="curve" smooth="yes"/>
      <point x="427" y="-119"/>
      <point x="308" y="-420"/>
      <point x="80" y="-420" type="curve" smooth="yes"/>
      <point x="31" y="-420"/>
      <point x="-24" y="-409"/>
      <point x="-84" y="-384" type="curve"/>
      <point x="-102" y="-431" type="line"/>
      <point x="-24" y="-478"/>
      <point x="80" y="-497"/>
    </contour>
  </outline>
</glyph>
<glyph name="ringhalfleft" format="2">
  <advance width="367"/>
  <unicode hex="02BF"/>
  <anchor x="440" y="1110" name="_top"/>
  <anchor x="530" y="1736" name="top"/>
  <outline>
    <contour>
      <point x="462" y="1285" type="curve"/>
      <point x="482" y="1423" type="line"/>
      <point x="417" y="1423"/>
      <point x="342" y="1487"/>
      <point x="342" y="1556" type="curve" smooth="yes"/>
      <point x="342" y="1662"/>
      <point x="448" y="1706"/>
      <point x="522" y="1706" type="curve"/>
      <point x="540" y="1841" type="line"/>
      <point x="371" y="1840"/>
      <point x="154" y="1763"/>
      <point x="154" y="1534" type="curve" smooth="yes"/>
      <point x="154" y="1381"/>
      <point x="277" y="1285"/>
    </contour>
  </outline>
</glyph>
<glyph name="circumflex" format="2">
  <advance width="981"/>
  <unicode hex="02C6"/>
  <anchor x="577" y="1110" name="_top"/>
  <anchor x="645" y="1623" name="top"/>
  <outline>
    <contour>
      <point x="288" y="1129" type="line"/>
      <point x="415" y="1197"/>
      <point x="531" y="1283"/>
      <point x="617" y="1370" type="curve"/>
      <point x="687" y="1291"/>
      <point x="788" y="1198"/>
      <point x="874" y="1129" type="curve"/>
      <point x="922" y="1151" type="line"/>
      <point x="730" y="1600" type="line"/>
      <point x="566" y="1600" type="line"/>
      <point x="238" y="1157" type="line"/>
    </contour>
  </outline>
</glyph>
<glyph name="caron" format="2">
  <advance width="980"/>
  <unicode hex="02C7"/>
  <anchor x="566" y="1110" name="_top"/>
  <anchor x="630" y="1589" name="top"/>
  <outline>
    <contour>
      <point x="295" y="1578" type="line"/>
      <point x="477" y="1129" type="line"/>
      <point x="641" y="1129" type="line"/>
      <point x="979" y="1572" type="line"/>
      <point x="919" y="1600" type="line"/>
      <point x="803" y="1532"/>
      <point x="709" y="1449"/>
      <point x="590" y="1362" type="curve"/>
      <point x="520" y="1441"/>
      <point x="429" y="1531"/>
      <point x="343" y="1600" type="curve"/>
    </contour>
  </outline>
</glyph>
<glyph name="verticallinemod" format="2">
  <advance width="234"/>
  <unicode hex="02C8"/>
  <anchor x="197" y="1110" name="_top"/>
  <anchor x="253" y="1496" name="top"/>
  <outline>
    <contour>
      <point x="384" y="1672" type="line"/>
      <point x="170" y="1672" type="line"/>
      <point x="96" y="937" type="line"/>
      <point x="221" y="937" type="line"/>
    </contour>
  </outline>
</glyph>
<glyph name="circumflexcomb" format="2">
  <unicode hex="0302"/>
  <anchor x="439" y="1110" name="_top"/>
  <anchor x="507" y="1623" name="top"/>
  <outline>
    <contour>
      <point x="150" y="1129" type="line"/>
      <point x="277" y="1197"/>
      <point x="393" y="1283"/>
      <point x="479" y="1370" type="curve"/>
      <point x="549" y="1291"/>
      <point x="650" y="1198"/>
      <point x="736" y="1129" type="curve"/>
      <point x="784" y="1151" type="line"/>
      <point x="592" y="1600" type="line"/>
      <point x="428" y="1600" type="line"/>
      <point x="100" y="1157" type="line"/>
    </contour>
  </outline>
</glyph>
<glyph name="tildecomb" format="2">
  <unicode hex="0303"/>
  <anchor x="378" y="1110" name="_top"/>
  <anchor x="439" y="1557" name="top"/>
  <outline>
    <contour>
      <point x="115" y="1214" type="curve"/>
      <point x="164" y="1196" type="line"/>
      <point x="197" y="1276"/>
      <point x="218" y="1306"/>
      <point x="269" y="1306" type="curve" smooth="yes"/>
      <point x="352" y="1306"/>
      <point x="434" y="1179"/>
      <point x="536" y="1179" type="curve" smooth="yes"/>
      <point x="677" y="1179"/>
      <point x="709" y="1308"/>
      <point x="713" y="1461" type="curve"/>
      <point x="660" y="1478" type="line"/>
      <point x="632" y="1407"/>
      <point x="599" y="1390"/>
      <point x="554" y="1390" type="curve" smooth="yes"/>
      <point x="482" y="1390"/>
      <point x="435" y="1504"/>
      <point x="305" y="1504" type="curve" smooth="yes"/>
      <point x="179" y="1504"/>
      <point x="119" y="1383"/>
    </contour>
  </outline>
</glyph>
<glyph name="brevecomb" format="2">
  <unicode hex="0306"/>
  <anchor x="398" y="1110" name="_top"/>
  <anchor x="461" y="1567" name="top"/>
  <outline>
    <contour>
      <point x="399" y="1148" type="curve" smooth="yes"/>
      <point x="600" y="1148"/>
      <point x="720" y="1305"/>
      <point x="720" y="1512" type="curve" smooth="yes"/>
      <point x="720" y="1533"/>
      <point x="719" y="1541"/>
      <point x="719" y="1553" type="curve"/>
      <point x="649" y="1553" type="line"/>
      <point x="645" y="1447"/>
      <point x="561" y="1344"/>
      <point x="409" y="1344" type="curve" smooth="yes"/>
      <point x="273" y="1344"/>
      <point x="225" y="1415"/>
      <point x="225" y="1510" type="curve" smooth="yes"/>
      <point x="225" y="1533"/>
      <point x="228" y="1545"/>
      <point x="229" y="1553" type="curve"/>
      <point x="160" y="1553" type="line"/>
      <point x="152" y="1526"/>
      <point x="141" y="1495"/>
      <point x="141" y="1425" type="curve" smooth="yes"/>
      <point x="141" y="1276"/>
      <point x="218" y="1148"/>
    </contour>
  </outline>
</glyph>
<glyph name="dotaccentcomb" format="2">
  <unicode hex="0307"/>
  <anchor x="248" y="1110" name="_top"/>
  <anchor x="309" y="1501" name="top"/>
  <outline>
    <contour>
      <point x="266" y="1149" type="curve" smooth="yes"/>
      <point x="383" y="1149"/>
      <point x="446" y="1243"/>
      <point x="449" y="1342" type="curve" smooth="yes"/>
      <point x="452" y="1419"/>
      <point x="408" y="1501"/>
      <point x="299" y="1501" type="curve" smooth="yes"/>
      <point x="190" y="1501"/>
      <point x="124" y="1410"/>
      <point x="121" y="1305" type="curve" smooth="yes"/>
      <point x="118" y="1223"/>
      <point x="168" y="1149"/>
    </contour>
  </outline>
</glyph>
<glyph name="hookabovecomb" format="2">
  <unicode hex="0309"/>
  <anchor x="268" y="1110" name="_top"/>
  <anchor x="352" y="1724" name="top"/>
  <outline>
    <contour>
      <point x="254" y="1143" type="curve"/>
      <point x="315" y="1157" type="line"/>
      <point x="298" y="1212"/>
      <point x="302" y="1238"/>
      <point x="355" y="1264" type="curve" smooth="yes"/>
      <point x="462" y="1315"/>
      <point x="515" y="1395"/>
      <point x="515" y="1487" type="curve" smooth="yes"/>
      <point x="515" y="1613"/>
      <point x="422" y="1683"/>
      <point x="279" y="1683" type="curve" smooth="yes"/>
      <point x="237" y="1683"/>
      <point x="198" y="1677"/>
      <point x="183" y="1672" type="curve"/>
      <point x="155" y="1504" type="line"/>
      <point x="171" y="1509"/>
      <point x="188" y="1514"/>
      <point x="225" y="1514" type="curve" smooth="yes"/>
      <point x="283" y="1514"/>
      <point x="321" y="1492"/>
      <point x="321" y="1428" type="curve" smooth="yes"/>
      <point x="321" y="1416" type="line"/>
      <point x="289" y="1349"/>
      <point x="219" y="1318"/>
      <point x="219" y="1236" type="curve" smooth="yes"/>
      <point x="219" y="1197"/>
      <point x="234" y="1171"/>
    </contour>
  </outline>
</glyph>
<glyph name="hungarumlautcomb" format="2">
  <unicode hex="030B"/>
  <anchor x="401" y="1110" name="_top"/>
  <outline>
    <contour>
      <point x="99" y="1154" type="line"/>
      <point x="139" y="1122" type="line"/>
      <point x="272" y="1206"/>
      <point x="441" y="1351"/>
      <point x="550" y="1486" type="curve"/>
      <point x="332" y="1643" type="line"/>
    </contour>
    <contour>
      <point x="499" y="1154" type="line"/>
      <point x="539" y="1122" type="line"/>
      <point x="672" y="1206"/>
      <point x="871" y="1351"/>
      <point x="980" y="1486" type="curve"/>
      <point x="732" y="1643" type="line"/>
    </contour>
  </outline>
</glyph>
<glyph name="caroncomb" format="2">
  <unicode hex="030C"/>
  <anchor x="428" y="1110" name="_top"/>
  <anchor x="492" y="1589" name="top"/>
  <outline>
    <contour>
      <point x="157" y="1578" type="line"/>
      <point x="339" y="1129" type="line"/>
      <point x="503" y="1129" type="line"/>
      <point x="841" y="1572" type="line"/>
      <point x="781" y="1600" type="line"/>
      <point x="665" y="1532"/>
      <point x="571" y="1449"/>
      <point x="452" y="1362" type="curve"/>
      <point x="382" y="1441"/>
      <point x="291" y="1531"/>
      <point x="205" y="1600" type="curve"/>
    </contour>
  </outline>
</glyph>
<glyph name="dblgravecomb" format="2">
  <unicode hex="030F"/>
  <anchor x="611" y="1110" name="_top"/>
  <outline>
    <contour>
      <point x="541" y="1129" type="line"/>
      <point x="301" y="1626" type="line"/>
      <point x="120" y="1524" type="line"/>
      <point x="196" y="1364"/>
      <point x="382" y="1191"/>
      <point x="501" y="1105" type="curve"/>
    </contour>
    <contour>
      <point x="876" y="1125" type="line"/>
      <point x="710" y="1622" type="line"/>
      <point x="518" y="1528" type="line"/>
      <point x="591" y="1367"/>
      <point x="720" y="1193"/>
      <point x="835" y="1103" type="curve"/>
    </contour>
  </outline>
</glyph>
<glyph name="horncomb" format="2">
  <unicode hex="031B"/>
  <anchor x="-55" y="0" name="_topright"/>
  <outline>
    <contour>
      <point x="157" y="249" type="line"/>
      <point x="144" y="105"/>
      <point x="98" y="15"/>
      <point x="-59" y="0" type="curve"/>
      <point x="-65" y="-50" type="line"/>
      <point x="183" y="-123"/>
      <point x="393" y="-12"/>
      <point x="393" y="249" type="curve"/>
    </contour>
  </outline>
</glyph>
<glyph name="ogonekcomb" format="2">
  <unicode hex="0328"/>
  <anchor x="235" y="0" name="_ogonek"/>
  <outline>
    <contour>
      <point x="113" y="-446" type="curve" smooth="yes"/>
      <point x="241" y="-446"/>
      <point x="350" y="-366"/>
      <point x="403" y="-297" type="curve"/>
      <point x="376" y="-243" type="line"/>
      <point x="320" y="-285"/>
      <point x="275" y="-312"/>
      <point x="220" y="-312" type="curve" smooth="yes"/>
      <point x="162" y="-312"/>
      <point x="130" y="-281"/>
      <point x="130" y="-211" type="curve" smooth="yes"/>
      <point x="130" y="-136"/>
      <point x="155" y="-39"/>
      <point x="344" y="37" type="curve"/>
      <point x="280" y="58" type="line"/>
      <point x="265" y="23" type="line"/>
      <point x="78" y="-19"/>
      <point x="-97" y="-123"/>
      <point x="-97" y="-272" type="curve" smooth="yes"/>
      <point x="-97" y="-384"/>
      <point x="-16" y="-446"/>
    </contour>
  </outline>
</glyph>
<glyph name="macronbelowcomb" format="2">
  <unicode hex="0331"/>
  <anchor x="197" y="0" name="_bottom"/>
  <outline>
    <contour>
      <point x="-82" y="-167" type="line"/>
      <point x="-105" y="-352" type="line"/>
      <point x="403" y="-352" type="line"/>
      <point x="426" y="-167" type="line"/>
    </contour>
  </outline>
</glyph>
<glyph name="Delta" format="2">
  <advance width="1225"/>
  <unicode hex="0394"/>
  <outline>
    <contour>
      <point x="-12" y="0" type="line"/>
      <point x="1106" y="0" type="line"/>
      <point x="1140" y="66" type="line"/>
      <point x="745" y="1493" type="line"/>
      <point x="660" y="1493" type="line"/>
      <point x="-35" y="63" type="line"/>
    </contour>
    <contour>
      <point x="535" y="1078" type="line"/>
      <point x="561" y="972" type="line"/>
      <point x="776" y="96" type="line"/>
      <point x="919" y="178" type="line"/>
      <point x="42" y="178" type="line"/>
      <point x="47" y="64" type="line"/>
      <point x="487" y="979" type="line"/>
    </contour>
  </outline>
</glyph>
<glyph name="pi" format="2">
  <advance width="1150"/>
  <unicode hex="03C0"/>
  <outline>
    <contour>
      <point x="200" y="-20" type="line"/>
      <point x="346" y="0"/>
      <point x="420" y="172"/>
      <point x="460" y="394" type="curve" smooth="yes"/>
      <point x="521" y="732" type="line"/>
      <point x="765" y="732" type="line"/>
      <point x="690" y="558"/>
      <point x="610" y="357"/>
      <point x="610" y="177" type="curve" smooth="yes"/>
      <point x="610" y="55"/>
      <point x="691" y="-20"/>
      <point x="789" y="-20" type="curve" smooth="yes"/>
      <point x="974" y="-20"/>
      <point x="1054" y="143"/>
      <point x="1096" y="351" type="curve"/>
      <point x="1013" y="351" type="line"/>
      <point x="982" y="244"/>
      <point x="945" y="202"/>
      <point x="907" y="202" type="curve" smooth="yes"/>
      <point x="823" y="202"/>
      <point x="808" y="275"/>
      <point x="808" y="398" type="curve" smooth="yes"/>
      <point x="808" y="497"/>
      <point x="829" y="618"/>
      <point x="860" y="732" type="curve"/>
      <point x="945" y="732" type="line" smooth="yes"/>
      <point x="1134" y="732"/>
      <point x="1185" y="877"/>
      <point x="1185" y="1122" type="curve"/>
      <point x="1099" y="1122" type="line"/>
      <point x="1087" y="1044"/>
      <point x="1038" y="1004"/>
      <point x="959" y="1004" type="curve" smooth="yes"/>
      <point x="364" y="1004" type="line" smooth="yes"/>
      <point x="142" y="1004"/>
      <point x="57" y="859"/>
      <point x="57" y="595" type="curve"/>
      <point x="141" y="588" type="line"/>
      <point x="151" y="697"/>
      <point x="191" y="732"/>
      <point x="263" y="732" type="curve"/>
      <point x="447" y="732" type="line"/>
      <point x="328" y="487" type="line" smooth="yes"/>
      <point x="250" y="326"/>
      <point x="141" y="210"/>
      <point x="15" y="167" type="curve"/>
    </contour>
  </outline>
</glyph>
<glyph name="Dje-cy" format="2">
  <advance width="1690"/>
  <unicode hex="0402"/>
  <outline>
    <contour>
      <point x="221" y="0" type="line"/>
      <point x="970" y="0" type="line"/>
      <point x="976" y="38" type="line"/>
      <point x="784" y="80" type="line"/>
      <point x="867" y="693" type="line"/>
      <point x="932" y="727"/>
      <point x="1002" y="755"/>
      <point x="1088" y="755" type="curve" smooth="yes"/>
      <point x="1206" y="755"/>
      <point x="1271" y="649"/>
      <point x="1271" y="425" type="curve" smooth="yes"/>
      <point x="1271" y="291"/>
      <point x="1242" y="139"/>
      <point x="1185" y="93" type="curve" smooth="yes"/>
      <point x="1152" y="73"/>
      <point x="1098" y="53"/>
      <point x="1056" y="61" type="curve"/>
      <point x="1047" y="-4" type="line"/>
      <point x="1092" y="-10"/>
      <point x="1099" y="-12"/>
      <point x="1122" y="-12" type="curve" smooth="yes"/>
      <point x="1519" y="-12"/>
      <point x="1628" y="293"/>
      <point x="1628" y="479" type="curve" smooth="yes"/>
      <point x="1628" y="736"/>
      <point x="1453" y="850"/>
      <point x="1238" y="850" type="curve" smooth="yes"/>
      <point x="1075" y="850"/>
      <point x="956" y="807"/>
      <point x="878" y="771" type="curve"/>
      <point x="968" y="1434" type="line"/>
      <point x="1123" y="1425" type="line"/>
      <point x="1178" y="1050" type="line"/>
      <point x="1320" y="1050" type="line"/>
      <point x="1377" y="1486" type="line"/>
      <point x="214" y="1486" type="line"/>
      <point x="115" y="1050" type="line"/>
      <point x="277" y="1050" type="line"/>
      <point x="473" y="1425" type="line"/>
      <point x="619" y="1434" type="line"/>
      <point x="435" y="81" type="line"/>
      <point x="227" y="38" type="line"/>
    </contour>
  </outline>
</glyph>
<glyph name="Lje-cy" format="2">
  <advance width="1912"/>
  <unicode hex="0409"/>
  <outline>
    <contour>
      <point x="136" y="-26" type="curve" smooth="yes"/>
      <point x="309" y="-26"/>
      <point x="390" y="82"/>
      <point x="470" y="316" type="curve" smooth="yes"/>
      <point x="544" y="532"/>
      <point x="616" y="856"/>
      <point x="684" y="1307" type="curve" smooth="yes"/>
      <point x="700" y="1413" type="line"/>
      <point x="969" y="1413" type="line"/>
      <point x="787" y="74" type="line"/>
      <point x="648" y="38" type="line"/>
      <point x="643" y="0" type="line"/>
      <point x="935" y="0" type="line" smooth="yes"/>
      <point x="1042" y="0"/>
      <point x="1150" y="-20"/>
      <point x="1278" y="-20" type="curve" smooth="yes"/>
      <point x="1672" y="-20"/>
      <point x="1869" y="179"/>
      <point x="1869" y="504" type="curve" smooth="yes"/>
      <point x="1869" y="777"/>
      <point x="1714" y="918"/>
      <point x="1456" y="918" type="curve" smooth="yes"/>
      <point x="1388" y="918"/>
      <point x="1299" y="909"/>
      <point x="1247" y="899" type="curve"/>
      <point x="1318" y="1413" type="line"/>
      <point x="1449" y="1448" type="line"/>
      <point x="1454" y="1486" type="line"/>
      <point x="478" y="1486" type="line"/>
      <point x="473" y="1448" type="line"/>
      <point x="609" y="1413" type="line"/>
      <point x="592" y="1313" type="line" smooth="yes"/>
      <point x="504" y="797"/>
      <point x="425" y="506"/>
      <point x="353" y="379" type="curve" smooth="yes"/>
      <point x="317" y="316"/>
      <point x="266" y="267"/>
      <point x="167" y="267" type="curve" smooth="yes"/>
      <point x="137" y="267"/>
      <point x="106" y="272"/>
      <point x="59" y="282" type="curve"/>
      <point x="13" y="0" type="line"/>
      <point x="36" y="-14"/>
      <point x="79" y="-26"/>
    </contour>
    <contour>
      <point x="1257" y="40" type="curve" smooth="yes"/>
      <point x="1229" y="40"/>
      <point x="1182" y="45"/>
      <point x="1131" y="64" type="curve"/>
      <point x="1238" y="833" type="line"/>
      <point x="1266" y="838"/>
      <point x="1298" y="842"/>
      <point x="1329" y="842" type="curve" smooth="yes"/>
      <point x="1440" y="842"/>
      <point x="1507" y="785"/>
      <point x="1507" y="523" type="curve" smooth="yes"/>
      <point x="1507" y="241"/>
      <point x="1429" y="40"/>
    </contour>
  </outline>
</glyph>
<glyph name="Dzhe-cy" format="2">
  <advance width="1377"/>
  <unicode hex="040F"/>
  <outline>
    <contour>
      <point x="488" y="-410" type="curve"/>
      <point x="643" y="-410" type="line"/>
      <point x="664" y="-290"/>
      <point x="709" y="-106"/>
      <point x="747" y="0" type="curve"/>
      <point x="1277" y="0" type="line"/>
      <point x="1283" y="38" type="line"/>
      <point x="1150" y="73" type="line"/>
      <point x="1334" y="1414" type="line"/>
      <point x="1466" y="1448" type="line"/>
      <point x="1471" y="1486" type="line"/>
      <point x="864" y="1486" type="line"/>
      <point x="857" y="1448" type="line"/>
      <point x="987" y="1414" type="line"/>
      <point x="803" y="73" type="line"/>
      <point x="443" y="73" type="line"/>
      <point x="627" y="1414" type="line"/>
      <point x="771" y="1448" type="line"/>
      <point x="776" y="1486" type="line"/>
      <point x="170" y="1486" type="line"/>
      <point x="164" y="1448" type="line"/>
      <point x="280" y="1414" type="line"/>
      <point x="96" y="73" type="line"/>
      <point x="-33" y="38" type="line"/>
      <point x="-39" y="0" type="line"/>
      <point x="487" y="0" type="line"/>
      <point x="499" y="-102"/>
      <point x="499" y="-298"/>
    </contour>
  </outline>
</glyph>
<glyph name="Be-cy" format="2">
  <advance width="1268"/>
  <unicode hex="0411"/>
  <anchor x="569" y="-166" name="btm"/>
  <anchor x="793" y="1486" name="top"/>
  <outline>
    <contour>
      <point x="594" y="-20" type="curve" smooth="yes"/>
      <point x="994" y="-20"/>
      <point x="1202" y="168"/>
      <point x="1202" y="510" type="curve" smooth="yes"/>
      <point x="1202" y="751"/>
      <point x="1031" y="875"/>
      <point x="760" y="875" type="curve" smooth="yes"/>
      <point x="699" y="875"/>
      <point x="630" y="869"/>
      <point x="561" y="859" type="curve"/>
      <point x="642" y="1434" type="line"/>
      <point x="983" y="1404" type="line"/>
      <point x="1044" y="1050" type="line"/>
      <point x="1193" y="1050" type="line"/>
      <point x="1258" y="1486" type="line"/>
      <point x="175" y="1486" type="line"/>
      <point x="170" y="1448" type="line"/>
      <point x="286" y="1413" type="line"/>
      <point x="106" y="72" type="line"/>
      <point x="-34" y="38" type="line"/>
      <point x="-39" y="0" type="line"/>
      <point x="253" y="0" type="line" smooth="yes"/>
      <point x="357" y="0"/>
      <point x="478" y="-20"/>
    </contour>
    <contour>
      <point x="577" y="40" type="curve" smooth="yes"/>
      <point x="553" y="40"/>
      <point x="504" y="50"/>
      <point x="453" y="64" type="curve"/>
      <point x="553" y="792" type="line"/>
      <point x="572" y="794"/>
      <point x="607" y="800"/>
      <point x="643" y="800" type="curve" smooth="yes"/>
      <point x="781" y="800"/>
      <point x="839" y="703"/>
      <point x="839" y="499" type="curve" smooth="yes"/>
      <point x="839" y="183"/>
      <point x="738" y="40"/>
    </contour>
  </outline>
</glyph>
<glyph name="Ge-cy" format="2">
  <advance width="1014"/>
  <unicode hex="0413"/>
  <anchor x="671" y="0" name="bottomright"/>
  <anchor x="686" y="1486" name="top"/>
  <outline>
    <contour>
      <point x="-39" y="0" type="line"/>
      <point x="668" y="0" type="line"/>
      <point x="674" y="38" type="line"/>
      <point x="456" y="72" type="line"/>
      <point x="640" y="1434" type="line"/>
      <point x="840" y="1404" type="line"/>
      <point x="891" y="951" type="line"/>
      <point x="1039" y="951" type="line"/>
      <point x="1112" y="1486" type="line"/>
      <point x="176" y="1486" type="line"/>
      <point x="171" y="1448" type="line"/>
      <point x="287" y="1413" type="line"/>
      <point x="107" y="72" type="line"/>
      <point x="-33" y="38" type="line"/>
    </contour>
  </outline>
</glyph>
<glyph name="Ze-cy" format="2">
  <advance width="1130"/>
  <unicode hex="0417"/>
  <anchor x="537" y="0" name="bottom"/>
  <anchor x="697" y="1486" name="top"/>
  <outline>
    <contour>
      <point x="469" y="-18" type="curve" smooth="yes"/>
      <point x="826" y="-18"/>
      <point x="1085" y="152"/>
      <point x="1096" y="439" type="curve" smooth="yes"/>
      <point x="1105" y="653"/>
      <point x="972" y="782"/>
      <point x="767" y="790" type="curve"/>
      <point x="892" y="813"/>
      <point x="1134" y="895"/>
      <point x="1134" y="1160" type="curve" smooth="yes"/>
      <point x="1134" y="1366"/>
      <point x="971" y="1506"/>
      <point x="682" y="1506" type="curve" smooth="yes"/>
      <point x="480" y="1506"/>
      <point x="362" y="1450"/>
      <point x="235" y="1445" type="curve"/>
      <point x="179" y="1060" type="line"/>
      <point x="403" y="1060" type="line"/>
      <point x="486" y="1292" type="line"/>
      <point x="523" y="1379"/>
      <point x="569" y="1450"/>
      <point x="674" y="1450" type="curve" smooth="yes"/>
      <point x="761" y="1450"/>
      <point x="812" y="1357"/>
      <point x="812" y="1197" type="curve" smooth="yes"/>
      <point x="812" y="903"/>
      <point x="684" y="823"/>
      <point x="577" y="831" type="curve" smooth="yes"/>
      <point x="421" y="842" type="line"/>
      <point x="400" y="700" type="line"/>
      <point x="586" y="716" type="line"/>
      <point x="692" y="716"/>
      <point x="750" y="627"/>
      <point x="741" y="434" type="curve" smooth="yes"/>
      <point x="730" y="208"/>
      <point x="637" y="39"/>
      <point x="478" y="39" type="curve" smooth="yes"/>
      <point x="404" y="39"/>
      <point x="359" y="68"/>
      <point x="311" y="104" type="curve"/>
      <point x="283" y="440" type="line"/>
      <point x="89" y="440" type="line"/>
      <point x="40" y="88" type="line"/>
      <point x="109" y="69"/>
      <point x="211" y="-18"/>
    </contour>
  </outline>
</glyph>
<glyph name="Ka-cy" format="2">
  <advance width="1371"/>
  <unicode hex="041A"/>
  <anchor x="1334" y="0" name="bottomright"/>
  <anchor x="370" y="1205" name="tbar"/>
  <anchor x="770" y="1486" name="top"/>
  <outline>
    <contour>
      <point x="897" y="0" type="curve" smooth="yes"/>
      <point x="1330" y="0" type="line"/>
      <point x="1334" y="38" type="line"/>
      <point x="1267" y="54" type="line"/>
      <point x="1208" y="127"/>
      <point x="1156" y="239"/>
      <point x="1118" y="353" type="curve" smooth="yes"/>
      <point x="1009" y="679"/>
      <point x="939" y="840"/>
      <point x="699" y="830" type="curve"/>
      <point x="658" y="740" type="line"/>
      <point x="1278" y="1413" type="line"/>
      <point x="1419" y="1448" type="line"/>
      <point x="1423" y="1486" type="line"/>
      <point x="1006" y="1486" type="line"/>
      <point x="1002" y="1448" type="line"/>
      <point x="1141" y="1413" type="line"/>
      <point x="632" y="833" type="line"/>
      <point x="396" y="833" type="line"/>
      <point x="387" y="749" type="line"/>
      <point x="533" y="749" type="line" smooth="yes"/>
      <point x="727" y="749"/>
      <point x="792" y="0"/>
    </contour>
    <contour>
      <point x="-39" y="0" type="line"/>
      <point x="571" y="0" type="line"/>
      <point x="577" y="38" type="line"/>
      <point x="447" y="72" type="line"/>
      <point x="631" y="1413" type="line"/>
      <point x="782" y="1448" type="line"/>
      <point x="786" y="1486" type="line"/>
      <point x="168" y="1486" type="line"/>
      <point x="163" y="1448" type="line"/>
      <point x="281" y="1413" type="line"/>
      <point x="98" y="72" type="line"/>
      <point x="-33" y="38" type="line"/>
    </contour>
  </outline>
</glyph>
<glyph name="El-cy" format="2">
  <advance width="1362"/>
  <unicode hex="041B"/>
  <anchor x="1264" y="0" name="bottomright"/>
  <outline>
    <contour>
      <point x="700" y="1413" type="line"/>
      <point x="985" y="1413" type="line"/>
      <point x="801" y="71" type="line"/>
      <point x="660" y="38" type="line"/>
      <point x="654" y="0" type="line"/>
      <point x="1262" y="0" type="line"/>
      <point x="1268" y="38" type="line"/>
      <point x="1150" y="71" type="line"/>
      <point x="1334" y="1413" type="line"/>
      <point x="1453" y="1448" type="line"/>
      <point x="1458" y="1486" type="line"/>
      <point x="480" y="1486" type="line"/>
      <point x="473" y="1448" type="line"/>
      <point x="610" y="1413" type="line"/>
      <point x="592" y="1313" type="line" smooth="yes"/>
      <point x="499" y="796"/>
      <point x="429" y="519"/>
      <point x="353" y="379" type="curve" smooth="yes"/>
      <point x="313" y="305"/>
      <point x="254" y="267"/>
      <point x="162" y="267" type="curve" smooth="yes"/>
      <point x="139" y="267"/>
      <point x="106" y="272"/>
      <point x="59" y="282" type="curve"/>
      <point x="13" y="0" type="line"/>
      <point x="36" y="-14"/>
      <point x="79" y="-26"/>
      <point x="136" y="-26" type="curve" smooth="yes"/>
      <point x="309" y="-26"/>
      <point x="390" y="82"/>
      <point x="470" y="316" type="curve" smooth="yes"/>
      <point x="546" y="537"/>
      <point x="618" y="871"/>
      <point x="684" y="1307" type="curve" smooth="yes"/>
    </contour>
  </outline>
</glyph>
<glyph name="Pe-cy" format="2">
  <advance width="1358"/>
  <unicode hex="041F"/>
  <anchor x="1279" y="0" name="bottomright"/>
  <outline>
    <contour>
      <point x="-39" y="0" type="line"/>
      <point x="573" y="0" type="line"/>
      <point x="580" y="38" type="line"/>
      <point x="448" y="72" type="line"/>
      <point x="632" y="1413" type="line"/>
      <point x="989" y="1413" type="line"/>
      <point x="805" y="72" type="line"/>
      <point x="663" y="38" type="line"/>
      <point x="658" y="0" type="line"/>
      <point x="1258" y="0" type="line"/>
      <point x="1264" y="38" type="line"/>
      <point x="1150" y="72" type="line"/>
      <point x="1334" y="1413" type="line"/>
      <point x="1448" y="1448" type="line"/>
      <point x="1452" y="1486" type="line"/>
      <point x="167" y="1486" type="line"/>
      <point x="162" y="1448" type="line"/>
      <point x="287" y="1413" type="line"/>
      <point x="103" y="72" type="line"/>
      <point x="-34" y="38" type="line"/>
    </contour>
  </outline>
</glyph>
<glyph name="Ef-cy" format="2">
  <advance width="1752"/>
  <unicode hex="0424"/>
  <outline>
    <contour>
      <point x="484" y="-27" type="line"/>
      <point x="1087" y="-27" type="line"/>
      <point x="1094" y="11" type="line"/>
      <point x="964" y="45" type="line"/>
      <point x="1163" y="1432" type="line"/>
      <point x="1293" y="1469" type="line"/>
      <point x="1297" y="1505" type="line"/>
      <point x="693" y="1505" type="line"/>
      <point x="688" y="1469" type="line"/>
      <point x="818" y="1432" type="line"/>
      <point x="619" y="45" type="line"/>
      <point x="489" y="11" type="line"/>
    </contour>
    <contour>
      <point x="727" y="215" type="curve"/>
      <point x="739" y="269" type="line"/>
      <point x="522" y="303"/>
      <point x="410" y="445"/>
      <point x="410" y="703" type="curve" smooth="yes"/>
      <point x="410" y="968"/>
      <point x="527" y="1186"/>
      <point x="855" y="1219" type="curve"/>
      <point x="855" y="1265" type="line"/>
      <point x="306" y="1238"/>
      <point x="70" y="1009"/>
      <point x="70" y="696" type="curve" smooth="yes"/>
      <point x="70" y="358"/>
      <point x="344" y="231"/>
    </contour>
    <contour>
      <point x="901" y="215" type="line"/>
      <point x="1499" y="236"/>
      <point x="1749" y="482"/>
      <point x="1749" y="801" type="curve" smooth="yes"/>
      <point x="1749" y="1121"/>
      <point x="1496" y="1249"/>
      <point x="1037" y="1267" type="curve"/>
      <point x="1026" y="1220" type="line"/>
      <point x="1267" y="1199"/>
      <point x="1395" y="1066"/>
      <point x="1395" y="796" type="curve" smooth="yes"/>
      <point x="1395" y="511"/>
      <point x="1253" y="283"/>
      <point x="910" y="262" type="curve"/>
    </contour>
  </outline>
</glyph>
<glyph name="Tse-cy" format="2">
  <advance width="1402"/>
  <unicode hex="0426"/>
  <anchor x="820" y="1486" name="top"/>
  <outline>
    <contour>
      <point x="1013" y="-410" type="curve"/>
      <point x="1154" y="-410" type="line"/>
      <point x="1189" y="-324"/>
      <point x="1277" y="-64"/>
      <point x="1303" y="72" type="curve"/>
      <point x="1152" y="73" type="line"/>
      <point x="1336" y="1414" type="line"/>
      <point x="1466" y="1448" type="line"/>
      <point x="1471" y="1486" type="line"/>
      <point x="864" y="1486" type="line"/>
      <point x="857" y="1448" type="line"/>
      <point x="989" y="1414" type="line"/>
      <point x="805" y="73" type="line"/>
      <point x="445" y="73" type="line"/>
      <point x="629" y="1414" type="line"/>
      <point x="771" y="1448" type="line"/>
      <point x="776" y="1486" type="line"/>
      <point x="170" y="1486" type="line"/>
      <point x="164" y="1448" type="line"/>
      <point x="282" y="1414" type="line"/>
      <point x="98" y="73" type="line"/>
      <point x="-33" y="38" type="line"/>
      <point x="-39" y="0" type="line"/>
      <point x="1038" y="0" type="line"/>
      <point x="1040" y="-84"/>
      <point x="1023" y="-313"/>
    </contour>
  </outline>
</glyph>
<glyph name="Che-cy" format="2">
  <advance width="1302"/>
  <unicode hex="0427"/>
  <anchor x="559" y="0" name="bottomleft"/>
  <anchor x="1214" y="0" name="bottomright"/>
  <anchor x="764" y="1486" name="top"/>
  <outline>
    <contour>
      <point x="561" y="0" type="line"/>
      <point x="1200" y="0" type="line"/>
      <point x="1206" y="38" type="line"/>
      <point x="1088" y="72" type="line"/>
      <point x="1272" y="1413" type="line"/>
      <point x="1401" y="1448" type="line"/>
      <point x="1407" y="1486" type="line"/>
      <point x="801" y="1486" type="line"/>
      <point x="795" y="1448" type="line"/>
      <point x="923" y="1413" type="line"/>
      <point x="830" y="736" type="line"/>
      <point x="781" y="714"/>
      <point x="717" y="696"/>
      <point x="660" y="696" type="curve" smooth="yes"/>
      <point x="567" y="696"/>
      <point x="530" y="748"/>
      <point x="530" y="876" type="curve" smooth="yes"/>
      <point x="530" y="946"/>
      <point x="540" y="1037"/>
      <point x="556" y="1155" type="curve" smooth="yes"/>
      <point x="590" y="1413" type="line"/>
      <point x="700" y="1448" type="line"/>
      <point x="706" y="1486" type="line"/>
      <point x="141" y="1486" type="line"/>
      <point x="135" y="1448" type="line"/>
      <point x="244" y="1413" type="line"/>
      <point x="188" y="1026" type="line" smooth="yes"/>
      <point x="183" y="989"/>
      <point x="178" y="950"/>
      <point x="178" y="911" type="curve" smooth="yes"/>
      <point x="178" y="760"/>
      <point x="245" y="611"/>
      <point x="561" y="611" type="curve" smooth="yes"/>
      <point x="667" y="611"/>
      <point x="737" y="630"/>
      <point x="820" y="666" type="curve"/>
      <point x="739" y="72" type="line"/>
      <point x="567" y="38" type="line"/>
    </contour>
  </outline>
</glyph>
<glyph name="Sha-cy" format="2">
  <advance width="2037"/>
  <unicode hex="0428"/>
  <anchor x="1935" y="0" name="bottomright"/>
  <outline>
    <contour>
      <point x="-37" y="0" type="line"/>
      <point x="1936" y="0" type="line"/>
      <point x="1941" y="38" type="line"/>
      <point x="1828" y="73" type="line"/>
      <point x="2012" y="1414" type="line"/>
      <point x="2129" y="1448" type="line"/>
      <point x="2134" y="1486" type="line"/>
      <point x="1540" y="1486" type="line"/>
      <point x="1533" y="1448" type="line"/>
      <point x="1665" y="1414" type="line"/>
      <point x="1481" y="73" type="line"/>
      <point x="1142" y="73" type="line"/>
      <point x="1321" y="1414" type="line"/>
      <point x="1452" y="1448" type="line"/>
      <point x="1457" y="1486" type="line"/>
      <point x="863" y="1486" type="line"/>
      <point x="856" y="1448" type="line"/>
      <point x="974" y="1414" type="line"/>
      <point x="795" y="73" type="line"/>
      <point x="452" y="73" type="line"/>
      <point x="636" y="1414" type="line"/>
      <point x="775" y="1448" type="line"/>
      <point x="780" y="1486" type="line"/>
      <point x="172" y="1486" type="line"/>
      <point x="166" y="1448" type="line"/>
      <point x="289" y="1414" type="line"/>
      <point x="105" y="73" type="line"/>
      <point x="-31" y="38" type="line"/>
    </contour>
  </outline>
</glyph>
<glyph name="Iu-cy" format="2">
  <advance width="1946"/>
  <unicode hex="042E"/>
  <anchor x="883" y="1660" name="top"/>
  <outline>
    <contour>
      <point x="1247" y="-24" type="curve" smooth="yes"/>
      <point x="1678" y="-24"/>
      <point x="1956" y="376"/>
      <point x="1956" y="890" type="curve" smooth="yes"/>
      <point x="1956" y="1150"/>
      <point x="1864" y="1505"/>
      <point x="1459" y="1505" type="curve" smooth="yes"/>
      <point x="1086" y="1505"/>
      <point x="829" y="1201"/>
      <point x="769" y="797" type="curve"/>
      <point x="552" y="797" type="line"/>
      <point x="637" y="1413" type="line"/>
      <point x="779" y="1450" type="line"/>
      <point x="783" y="1486" type="line"/>
      <point x="167" y="1486" type="line"/>
      <point x="162" y="1450" type="line"/>
      <point x="290" y="1413" type="line"/>
      <point x="106" y="72" type="line"/>
      <point x="-34" y="38" type="line"/>
      <point x="-39" y="0" type="line"/>
      <point x="593" y="0" type="line"/>
      <point x="600" y="38" type="line"/>
      <point x="453" y="72" type="line"/>
      <point x="544" y="733" type="line"/>
      <point x="762" y="733" type="line"/>
      <point x="758" y="694"/>
      <point x="756" y="654"/>
      <point x="756" y="614" type="curve" smooth="yes"/>
      <point x="756" y="331"/>
      <point x="847" y="-24"/>
    </contour>
    <contour>
      <point x="1262" y="34" type="curve" smooth="yes"/>
      <point x="1145" y="34"/>
      <point x="1127" y="215"/>
      <point x="1127" y="568" type="curve" smooth="yes"/>
      <point x="1127" y="873"/>
      <point x="1215" y="1447"/>
      <point x="1443" y="1447" type="curve" smooth="yes"/>
      <point x="1561" y="1447"/>
      <point x="1586" y="1267"/>
      <point x="1586" y="1017" type="curve" smooth="yes"/>
      <point x="1586" y="482"/>
      <point x="1457" y="34"/>
    </contour>
  </outline>
</glyph>
<glyph name="de-cy" format="2">
  <advance width="994"/>
  <unicode hex="0434"/>
  <outline>
    <contour>
      <point x="393" y="-16" type="curve" smooth="yes"/>
      <point x="868" y="-16"/>
      <point x="979" y="575"/>
      <point x="993" y="974" type="curve" smooth="yes"/>
      <point x="1005" y="1322"/>
      <point x="906" y="1662"/>
      <point x="594" y="1662" type="curve" smooth="yes"/>
      <point x="429" y="1662"/>
      <point x="297" y="1578"/>
      <point x="199" y="1479" type="curve"/>
      <point x="196" y="1630" type="line"/>
      <point x="396" y="1284" type="line"/>
      <point x="228" y="1420" type="line"/>
      <point x="359" y="1540"/>
      <point x="422" y="1570"/>
      <point x="526" y="1570" type="curve" smooth="yes"/>
      <point x="650" y="1570"/>
      <point x="701" y="1365"/>
      <point x="679" y="964" type="curve"/>
      <point x="647" y="993"/>
      <point x="607" y="1028"/>
      <point x="512" y="1028" type="curve" smooth="yes"/>
      <point x="260" y="1028"/>
      <point x="21" y="776"/>
      <point x="21" y="377" type="curve" smooth="yes"/>
      <point x="21" y="95"/>
      <point x="195" y="-16"/>
    </contour>
    <contour>
      <point x="414" y="37" type="curve" smooth="yes"/>
      <point x="365" y="37"/>
      <point x="337" y="97"/>
      <point x="337" y="292" type="curve" smooth="yes"/>
      <point x="337" y="545"/>
      <point x="392" y="958"/>
      <point x="547" y="958" type="curve" smooth="yes"/>
      <point x="611" y="958"/>
      <point x="636" y="916"/>
      <point x="659" y="868" type="curve"/>
      <point x="657" y="614"/>
      <point x="545" y="37"/>
    </contour>
  </outline>
</glyph>
<glyph name="softsign-cy" format="2">
  <advance width="966"/>
  <unicode hex="044C"/>
  <anchor x="602" y="-166" name="btm"/>
  <anchor x="532" y="1660" name="top"/>
  <outline>
    <contour>
      <point x="460" y="-22" type="curve" smooth="yes"/>
      <point x="696" y="-22"/>
      <point x="918" y="159"/>
      <point x="918" y="445" type="curve" smooth="yes"/>
      <point x="918" y="658"/>
      <point x="812" y="748"/>
      <point x="685" y="748" type="curve" smooth="yes"/>
      <point x="576" y="748"/>
      <point x="488" y="675"/>
      <point x="417" y="555" type="curve"/>
      <point x="473" y="992" type="line"/>
      <point x="421" y="1031" type="line"/>
      <point x="63" y="961" type="line"/>
      <point x="58" y="927" type="line"/>
      <point x="151" y="876" type="line"/>
      <point x="96" y="474" type="line" smooth="yes"/>
      <point x="47" y="117"/>
      <point x="217" y="-22"/>
    </contour>
    <contour>
      <point x="463" y="37" type="curve" smooth="yes"/>
      <point x="398" y="37"/>
      <point x="358" y="101"/>
      <point x="385" y="310" type="curve" smooth="yes"/>
      <point x="395" y="387"/>
      <point x="401" y="431"/>
      <point x="409" y="474" type="curve"/>
      <point x="449" y="536"/>
      <point x="502" y="583"/>
      <point x="542" y="583" type="curve" smooth="yes"/>
      <point x="594" y="583"/>
      <point x="613" y="514"/>
      <point x="613" y="403" type="curve" smooth="yes"/>
      <point x="613" y="193"/>
      <point x="549" y="37"/>
    </contour>
  </outline>
</glyph>
<glyph name="ereversed-cy" format="2">
  <advance width="854"/>
  <unicode hex="044D"/>
  <anchor x="485" y="1110" name="top"/>
  <outline>
    <contour>
      <point x="462" y="1029" type="curve" smooth="yes"/>
      <point x="296" y="1029"/>
      <point x="128" y="934"/>
      <point x="55" y="834" type="curve"/>
      <point x="88" y="787" type="line"/>
      <point x="144" y="839"/>
      <point x="222" y="903"/>
      <point x="321" y="903" type="curve" smooth="yes"/>
      <point x="447" y="903"/>
      <point x="491" y="763"/>
      <point x="491" y="573" type="curve" smooth="yes"/>
      <point x="480" y="260"/>
      <point x="385" y="34"/>
      <point x="264" y="34" type="curve" smooth="yes"/>
      <point x="197" y="34"/>
      <point x="147" y="191"/>
      <point x="115" y="322" type="curve"/>
      <point x="53" y="322" type="line"/>
      <point x="-22" y="15" type="line"/>
      <point x="39" y="-11"/>
      <point x="160" y="-24"/>
      <point x="237" y="-24" type="curve" smooth="yes"/>
      <point x="643" y="-24"/>
      <point x="831" y="288"/>
      <point x="831" y="598" type="curve" smooth="yes"/>
      <point x="831" y="883"/>
      <point x="693" y="1029"/>
    </contour>
    <contour>
      <point x="168" y="476" type="line"/>
      <point x="317" y="485"/>
      <point x="447" y="493"/>
      <point x="596" y="501" type="curve"/>
      <point x="596" y="540" type="line"/>
      <point x="436" y="548"/>
      <point x="324" y="556"/>
      <point x="178" y="564" type="curve"/>
    </contour>
  </outline>
</glyph>
<glyph name="dje-cy" format="2">
  <advance width="1030"/>
  <unicode hex="0452"/>
  <anchor x="558" y="1660" name="top"/>
  <outline>
    <contour>
      <point x="435" y="674" type="curve"/>
      <point x="519" y="1228" type="line"/>
      <point x="706" y="1228" type="line"/>
      <point x="719" y="1306" type="line"/>
      <point x="531" y="1306" type="line"/>
      <point x="575" y="1604" type="line"/>
      <point x="538" y="1634" type="line"/>
      <point x="132" y="1579" type="line"/>
      <point x="127" y="1545" type="line"/>
      <point x="247" y="1505" type="line"/>
      <point x="218" y="1306" type="line"/>
      <point x="128" y="1306" type="line"/>
      <point x="115" y="1228" type="line"/>
      <point x="206" y="1228" type="line"/>
      <point x="21" y="0" type="line"/>
      <point x="337" y="0" type="line"/>
      <point x="411" y="532" type="line"/>
      <point x="484" y="726"/>
      <point x="555" y="822"/>
      <point x="606" y="822" type="curve" smooth="yes"/>
      <point x="641" y="822"/>
      <point x="648" y="791"/>
      <point x="648" y="740" type="curve" smooth="yes"/>
      <point x="648" y="687"/>
      <point x="588" y="213"/>
      <point x="565" y="63" type="curve" smooth="yes"/>
      <point x="504" y="-332"/>
      <point x="455" y="-439"/>
      <point x="358" y="-439" type="curve" smooth="yes"/>
      <point x="335" y="-439"/>
      <point x="309" y="-435"/>
      <point x="272" y="-423" type="curve"/>
      <point x="251" y="-474" type="line"/>
      <point x="304" y="-499"/>
      <point x="368" y="-510"/>
      <point x="444" y="-510" type="curve" smooth="yes"/>
      <point x="646" y="-510"/>
      <point x="823" y="-404"/>
      <point x="881" y="1" type="curve" smooth="yes"/>
      <point x="906" y="177"/>
      <point x="977" y="700"/>
      <point x="977" y="818" type="curve" smooth="yes"/>
      <point x="977" y="928"/>
      <point x="903" y="1031"/>
      <point x="770" y="1031" type="curve" smooth="yes"/>
      <point x="594" y="1031"/>
      <point x="489" y="842"/>
    </contour>
  </outline>
</glyph>
<glyph name="lje-cy" format="2">
  <advance width="1472"/>
  <unicode hex="0459"/>
  <anchor x="838" y="0" name="bottomright"/>
  <anchor x="1138" y="-166" name="btm"/>
  <anchor x="776" y="1110" name="top"/>
  <outline>
    <contour>
      <point x="727" y="921" type="line"/>
      <point x="981" y="1005" type="line"/>
      <point x="178" y="1006" type="line"/>
      <point x="168" y="969" type="line"/>
      <point x="317" y="896" type="line"/>
      <point x="282" y="693"/>
      <point x="264" y="424"/>
      <point x="188" y="320" type="curve" smooth="yes"/>
      <point x="149" y="267"/>
      <point x="116" y="269"/>
      <point x="84" y="269" type="curve" smooth="yes"/>
      <point x="52" y="269"/>
      <point x="28" y="279"/>
      <point x="2" y="285" type="curve"/>
      <point x="-84" y="1" type="line"/>
      <point x="-66" y="-10"/>
      <point x="-42" y="-16"/>
      <point x="-6" y="-16" type="curve" smooth="yes"/>
      <point x="71" y="-16"/>
      <point x="151" y="29"/>
      <point x="224" y="159" type="curve" smooth="yes"/>
      <point x="316" y="324"/>
      <point x="349" y="620"/>
      <point x="405" y="921" type="curve"/>
    </contour>
    <contour>
      <point x="966" y="-22" type="curve" smooth="yes"/>
      <point x="1202" y="-22"/>
      <point x="1424" y="159"/>
      <point x="1424" y="445" type="curve" smooth="yes"/>
      <point x="1424" y="658"/>
      <point x="1318" y="748"/>
      <point x="1191" y="748" type="curve" smooth="yes"/>
      <point x="1082" y="748"/>
      <point x="994" y="675"/>
      <point x="923" y="555" type="curve"/>
      <point x="981" y="1005" type="line"/>
      <point x="766" y="989" type="line"/>
      <point x="664" y="927" type="line"/>
      <point x="602" y="474" type="line" smooth="yes"/>
      <point x="553" y="117"/>
      <point x="723" y="-22"/>
    </contour>
    <contour>
      <point x="969" y="37" type="curve" smooth="yes"/>
      <point x="904" y="37"/>
      <point x="864" y="101"/>
      <point x="891" y="310" type="curve" smooth="yes"/>
      <point x="901" y="387"/>
      <point x="907" y="431"/>
      <point x="915" y="474" type="curve"/>
      <point x="955" y="536"/>
      <point x="1008" y="583"/>
      <point x="1048" y="583" type="curve" smooth="yes"/>
      <point x="1100" y="583"/>
      <point x="1119" y="514"/>
      <point x="1119" y="403" type="curve" smooth="yes"/>
      <point x="1119" y="193"/>
      <point x="1055" y="37"/>
    </contour>
  </outline>
</glyph>
<glyph name="yusbig-cy" format="2">
  <advance width="1459"/>
  <unicode hex="046B"/>
  <outline>
    <contour>
      <point x="1052" y="544" type="curve"/>
      <point x="899" y="544" type="line"/>
      <point x="1330" y="888" type="line"/>
      <point x="1335" y="1005" type="line"/>
      <point x="227" y="1005" type="line"/>
      <point x="214" y="887" type="line"/>
      <point x="562" y="544" type="line"/>
      <point x="394" y="544" type="line"/>
      <point x="122" y="544"/>
      <point x="33" y="82"/>
      <point x="-62" y="57" type="curve" smooth="yes"/>
      <point x="-130" y="39" type="line"/>
      <point x="-138" y="0" type="line"/>
      <point x="164" y="0" type="line"/>
      <point x="328" y="0"/>
      <point x="331" y="484"/>
      <point x="499" y="484" type="curve"/>
      <point x="578" y="484" type="line"/>
      <point x="511" y="0" type="line"/>
      <point x="813" y="0" type="line"/>
      <point x="871" y="484" type="line"/>
      <point x="935" y="484" type="line"/>
      <point x="1097" y="484"/>
      <point x="998" y="0"/>
      <point x="1163" y="0" type="curve" smooth="yes"/>
      <point x="1456" y="0" type="line"/>
      <point x="1465" y="39" type="line"/>
      <point x="1382" y="57" type="line" smooth="yes"/>
      <point x="1300" y="75"/>
      <point x="1329" y="544"/>
    </contour>
    <contour>
      <point x="409" y="900" type="line"/>
      <point x="307" y="852" type="line"/>
      <point x="1229" y="852" type="line"/>
      <point x="1247" y="912" type="line"/>
      <point x="745" y="471" type="line"/>
      <point x="790" y="471" type="line"/>
    </contour>
  </outline>
</glyph>
<glyph name="fita-cy" format="2">
  <advance width="990"/>
  <unicode hex="0473"/>
  <anchor x="434" y="0" name="bottom"/>
  <anchor x="495" y="505" name="center"/>
  <anchor x="566" y="20" name="ogonek"/>
  <anchor x="584" y="1110" name="top"/>
  <anchor x="741" y="1005" name="topright"/>
  <outline>
    <contour>
      <point x="635" y="488" type="curve"/>
      <point x="649" y="643" type="line"/>
      <point x="635" y="587"/>
      <point x="610" y="545"/>
      <point x="580" y="545" type="curve" smooth="yes"/>
      <point x="531" y="545"/>
      <point x="538" y="656"/>
      <point x="457" y="656" type="curve" smooth="yes"/>
      <point x="422" y="656"/>
      <point x="385" y="631"/>
      <point x="365" y="573" type="curve"/>
      <point x="349" y="426" type="line"/>
      <point x="362" y="455"/>
      <point x="377" y="476"/>
      <point x="403" y="476" type="curve" smooth="yes"/>
      <point x="448" y="476"/>
      <point x="457" y="368"/>
      <point x="531" y="368" type="curve" smooth="yes"/>
      <point x="576" y="368"/>
      <point x="609" y="409"/>
    </contour>
    <contour>
      <point x="574" y="1036" type="curve" smooth="yes"/>
      <point x="264" y="1036"/>
      <point x="22" y="767"/>
      <point x="22" y="395" type="curve" smooth="yes"/>
      <point x="22" y="143"/>
      <point x="136" y="-28"/>
      <point x="419" y="-28" type="curve" smooth="yes"/>
      <point x="744" y="-28"/>
      <point x="969" y="265"/>
      <point x="969" y="621" type="curve" smooth="yes"/>
      <point x="969" y="880"/>
      <point x="840" y="1036"/>
    </contour>
    <contour>
      <point x="568" y="982" type="curve" smooth="yes"/>
      <point x="624" y="982"/>
      <point x="631" y="919"/>
      <point x="631" y="769" type="curve" smooth="yes"/>
      <point x="631" y="428"/>
      <point x="545" y="26"/>
      <point x="426" y="26" type="curve" smooth="yes"/>
      <point x="365" y="26"/>
      <point x="360" y="104"/>
      <point x="360" y="235" type="curve" smooth="yes"/>
      <point x="360" y="525"/>
      <point x="433" y="982"/>
    </contour>
  </outline>
</glyph>
<glyph name="Izhitsa-cy" format="2">
  <advance width="1321"/>
  <unicode hex="0474"/>
  <anchor x="722" y="-166" name="btm"/>
  <anchor x="692" y="1660" name="top"/>
  <outline>
    <contour>
      <point x="400" y="0" type="line"/>
      <point x="698" y="0" type="line"/>
      <point x="1107" y="1049" type="line" smooth="yes"/>
      <point x="1182" y="1241"/>
      <point x="1278" y="1289"/>
      <point x="1346" y="1289" type="curve" smooth="yes"/>
      <point x="1356" y="1289"/>
      <point x="1362" y="1287"/>
      <point x="1371" y="1285" type="curve"/>
      <point x="1388" y="1484" type="line"/>
      <point x="1379" y="1490"/>
      <point x="1348" y="1500"/>
      <point x="1300" y="1500" type="curve" smooth="yes"/>
      <point x="1193" y="1500"/>
      <point x="1054" y="1439"/>
      <point x="1000" y="1242" type="curve" smooth="yes"/>
      <point x="753" y="340" type="line"/>
      <point x="668" y="80" type="line"/>
      <point x="707" y="130" type="line"/>
      <point x="669" y="473" type="line"/>
      <point x="564" y="1414" type="line"/>
      <point x="716" y="1448" type="line"/>
      <point x="721" y="1486" type="line"/>
      <point x="80" y="1486" type="line"/>
      <point x="76" y="1448" type="line"/>
      <point x="191" y="1414" type="line"/>
    </contour>
  </outline>
</glyph>
<glyph name="Semisoftsign-cy" format="2">
  <advance width="1245"/>
  <unicode hex="048C"/>
  <anchor x="749" y="1660" name="top"/>
  <outline>
    <contour>
      <point x="132" y="1116" type="line"/>
      <point x="986" y="1116" type="line"/>
      <point x="991" y="1182" type="line"/>
      <point x="139" y="1182" type="line"/>
    </contour>
    <component base="Softsign-cy"/>
  </outline>
</glyph>
<glyph name="semisoftsign-cy" format="2">
  <advance width="1015"/>
  <unicode hex="048D"/>
  <outline>
    <contour>
      <point x="442" y="555" type="curve"/>
      <point x="509" y="1013" type="line"/>
      <point x="747" y="1013" type="line"/>
      <point x="760" y="1096" type="line"/>
      <point x="521" y="1096" type="line"/>
      <point x="591" y="1577" type="line"/>
      <point x="541" y="1604" type="line"/>
      <point x="149" y="1551" type="line"/>
      <point x="144" y="1517" type="line"/>
      <point x="264" y="1477" type="line"/>
      <point x="210" y="1096" type="line"/>
      <point x="67" y="1096" type="line"/>
      <point x="54" y="1013" type="line"/>
      <point x="198" y="1013" type="line"/>
      <point x="121" y="474" type="line" smooth="yes"/>
      <point x="70" y="119"/>
      <point x="242" y="-22"/>
      <point x="485" y="-22" type="curve" smooth="yes"/>
      <point x="751" y="-22"/>
      <point x="973" y="159"/>
      <point x="973" y="445" type="curve" smooth="yes"/>
      <point x="973" y="658"/>
      <point x="887" y="748"/>
      <point x="730" y="748" type="curve" smooth="yes"/>
      <point x="621" y="748"/>
      <point x="513" y="675"/>
    </contour>
    <contour>
      <point x="567" y="583" type="curve" smooth="yes"/>
      <point x="619" y="583"/>
      <point x="648" y="514"/>
      <point x="648" y="403" type="curve" smooth="yes"/>
      <point x="648" y="193"/>
      <point x="574" y="37"/>
      <point x="488" y="37" type="curve" smooth="yes"/>
      <point x="423" y="37"/>
      <point x="383" y="101"/>
      <point x="410" y="310" type="curve" smooth="yes"/>
      <point x="420" y="387"/>
      <point x="426" y="431"/>
      <point x="434" y="474" type="curve"/>
      <point x="474" y="536"/>
      <point x="527" y="583"/>
    </contour>
  </outline>
</glyph>
<glyph name="gheupturn-cy" format="2">
  <advance width="826"/>
  <unicode hex="0491"/>
  <anchor x="308" y="1110" name="top"/>
  <outline>
    <contour>
      <point x="763" y="1340" type="line"/>
      <point x="618" y="1005" type="line"/>
      <point x="47" y="1005" type="line"/>
      <point x="34" y="940" type="line"/>
      <point x="173" y="894" type="line"/>
      <point x="42" y="0" type="line"/>
      <point x="361" y="0" type="line"/>
      <point x="491" y="924" type="line"/>
      <point x="850" y="909" type="line"/>
      <point x="892" y="1340" type="line"/>
    </contour>
  </outline>
</glyph>
<glyph name="ghestroke-cy" format="2">
  <advance width="921"/>
  <unicode hex="0493"/>
  <outline>
    <contour>
      <point x="127" y="1004" type="line"/>
      <point x="114" y="940" type="line"/>
      <point x="230" y="894" type="line"/>
      <point x="174" y="478" type="line"/>
      <point x="47" y="478" type="line"/>
      <point x="38" y="396" type="line"/>
      <point x="163" y="396" type="line"/>
      <point x="110" y="0" type="line"/>
      <point x="425" y="0" type="line"/>
      <point x="477" y="396" type="line"/>
      <point x="686" y="396" type="line"/>
      <point x="696" y="478" type="line"/>
      <point x="489" y="478" type="line"/>
      <point x="551" y="933" type="line"/>
      <point x="703" y="882" type="line"/>
      <point x="721" y="618" type="line"/>
      <point x="836" y="618" type="line"/>
      <point x="930" y="1004" type="line"/>
    </contour>
  </outline>
</glyph>
<glyph name="Kaverticalstroke-cy" format="2">
  <advance width="1493"/>
  <unicode hex="049C"/>
  <outline>
    <contour>
      <point x="581" y="445" type="line"/>
      <point x="665" y="445" type="line"/>
      <point x="753" y="1102" type="line"/>
      <point x="671" y="1102" type="line"/>
    </contour>
    <contour>
      <point x="1017" y="0" type="curve" smooth="yes"/>
      <point x="1452" y="0" type="line"/>
      <point x="1456" y="38" type="line"/>
      <point x="1388" y="66" type="line"/>
      <point x="1319" y="109"/>
      <point x="1278" y="225"/>
      <point x="1232" y="353" type="curve" smooth="yes"/>
      <point x="1073" y="795"/>
      <point x="1059" y="832"/>
      <point x="851" y="832" type="curve"/>
      <point x="782" y="740" type="line"/>
      <point x="1397" y="1413" type="line"/>
      <point x="1543" y="1448" type="line"/>
      <point x="1547" y="1486" type="line"/>
      <point x="1116" y="1486" type="line"/>
      <point x="1112" y="1448" type="line"/>
      <point x="1272" y="1413" type="line"/>
      <point x="756" y="833" type="line"/>
      <point x="520" y="833" type="line"/>
      <point x="511" y="749" type="line"/>
      <point x="718" y="749" type="line" smooth="yes"/>
      <point x="781" y="749"/>
      <point x="958" y="0"/>
    </contour>
    <contour>
      <point x="-39" y="0" type="line"/>
      <point x="596" y="0" type="line"/>
      <point x="602" y="38" type="line"/>
      <point x="454" y="72" type="line"/>
      <point x="638" y="1413" type="line"/>
      <point x="780" y="1448" type="line"/>
      <point x="784" y="1486" type="line"/>
      <point x="169" y="1486" type="line"/>
      <point x="164" y="1448" type="line"/>
      <point x="291" y="1413" type="line"/>
      <point x="106" y="72" type="line"/>
      <point x="-33" y="38" type="line"/>
    </contour>
  </outline>
</glyph>
<glyph name="Kabashkir-cy" format="2">
  <advance width="1701"/>
  <unicode hex="04A0"/>
  <outline>
    <contour>
      <point x="289" y="0" type="line"/>
      <point x="898" y="0" type="line"/>
      <point x="904" y="38" type="line"/>
      <point x="774" y="72" type="line"/>
      <point x="958" y="1413" type="line"/>
      <point x="1109" y="1448" type="line"/>
      <point x="1113" y="1486" type="line"/>
      <point x="196" y="1486" type="line"/>
      <point x="101" y="951" type="line"/>
      <point x="271" y="951" type="line"/>
      <point x="423" y="1420" type="line"/>
      <point x="611" y="1434" type="line"/>
      <point x="426" y="72" type="line"/>
      <point x="295" y="38" type="line"/>
    </contour>
    <contour>
      <point x="1234" y="0" type="curve" smooth="yes"/>
      <point x="1660" y="0" type="line"/>
      <point x="1664" y="38" type="line"/>
      <point x="1597" y="54" type="line"/>
      <point x="1538" y="127"/>
      <point x="1496" y="238"/>
      <point x="1453" y="353" type="curve" smooth="yes"/>
      <point x="1339" y="658"/>
      <point x="1270" y="848"/>
      <point x="1020" y="833" type="curve"/>
      <point x="1043" y="761" type="line"/>
      <point x="1599" y="1413" type="line"/>
      <point x="1769" y="1448" type="line"/>
      <point x="1773" y="1486" type="line"/>
      <point x="1336" y="1486" type="line"/>
      <point x="1332" y="1448" type="line"/>
      <point x="1471" y="1413" type="line"/>
      <point x="986" y="833" type="line"/>
      <point x="683" y="833" type="line"/>
      <point x="674" y="749" type="line"/>
      <point x="878" y="749" type="line" smooth="yes"/>
      <point x="1054" y="749"/>
      <point x="1129" y="0"/>
    </contour>
  </outline>
</glyph>
<glyph name="kabashkir-cy" format="2">
  <advance width="1248"/>
  <unicode hex="04A1"/>
  <outline>
    <contour>
      <point x="619" y="0" type="line"/>
      <point x="757" y="1006" type="line"/>
      <point x="89" y="1006" type="line"/>
      <point x="31" y="598" type="line"/>
      <point x="139" y="598" type="line"/>
      <point x="280" y="899" type="line"/>
      <point x="436" y="936" type="line"/>
      <point x="304" y="0" type="line"/>
    </contour>
    <contour>
      <point x="979" y="-16" type="curve" smooth="yes"/>
      <point x="1128" y="-16"/>
      <point x="1223" y="70"/>
      <point x="1261" y="117" type="curve"/>
      <point x="1241" y="162" type="line"/>
      <point x="1230" y="150"/>
      <point x="1215" y="141"/>
      <point x="1199" y="141" type="curve" smooth="yes"/>
      <point x="1154" y="141"/>
      <point x="1116" y="215"/>
      <point x="1105" y="245" type="curve" smooth="yes"/>
      <point x="969" y="619" type="line"/>
      <point x="869" y="565" type="line"/>
      <point x="984" y="607"/>
      <point x="1120" y="724"/>
      <point x="1164" y="766" type="curve" smooth="yes"/>
      <point x="1194" y="794"/>
      <point x="1241" y="852"/>
      <point x="1240" y="927" type="curve" smooth="yes"/>
      <point x="1238" y="974"/>
      <point x="1214" y="1032"/>
      <point x="1129" y="1032" type="curve" smooth="yes"/>
      <point x="1037" y="1032"/>
      <point x="991" y="952"/>
      <point x="988" y="853" type="curve" smooth="yes"/>
      <point x="986" y="804"/>
      <point x="979" y="739"/>
      <point x="930" y="662" type="curve" smooth="yes"/>
      <point x="892" y="602"/>
      <point x="820" y="553"/>
      <point x="703" y="465" type="curve"/>
      <point x="833" y="67" type="line" smooth="yes"/>
      <point x="847" y="25"/>
      <point x="898" y="-16"/>
    </contour>
  </outline>
</glyph>
<glyph name="Tetse-cy" format="2">
  <advance width="1935"/>
  <unicode hex="04B4"/>
  <anchor x="747" y="-166" name="btm"/>
  <anchor x="753" y="1660" name="top"/>
  <outline>
    <contour>
      <point x="1546" y="-410" type="curve"/>
      <point x="1688" y="-410" type="line"/>
      <point x="1721" y="-324"/>
      <point x="1810" y="-63"/>
      <point x="1836" y="73" type="curve"/>
      <point x="1685" y="73" type="line"/>
      <point x="1868" y="1414" type="line"/>
      <point x="1998" y="1448" type="line"/>
      <point x="2003" y="1486" type="line"/>
      <point x="1407" y="1486" type="line"/>
      <point x="1400" y="1448" type="line"/>
      <point x="1522" y="1414" type="line"/>
      <point x="1338" y="73" type="line"/>
      <point x="742" y="73" type="line"/>
      <point x="926" y="1435" type="line"/>
      <point x="1041" y="1427" type="line"/>
      <point x="1099" y="950" type="line"/>
      <point x="1238" y="950" type="line"/>
      <point x="1296" y="1486" type="line"/>
      <point x="200" y="1486" type="line"/>
      <point x="101" y="950" type="line"/>
      <point x="260" y="950" type="line"/>
      <point x="444" y="1427" type="line"/>
      <point x="581" y="1434" type="line"/>
      <point x="395" y="73" type="line"/>
      <point x="166" y="38" type="line"/>
      <point x="160" y="0" type="line"/>
      <point x="1570" y="0" type="line"/>
      <point x="1572" y="-84"/>
      <point x="1556" y="-313"/>
    </contour>
  </outline>
</glyph>
<glyph name="Shha-cy" format="2">
  <advance width="1410"/>
  <unicode hex="04BA"/>
  <anchor x="620" y="0" name="bottom"/>
  <anchor x="1273" y="0" name="bottomright"/>
  <anchor x="843" y="-166" name="btm"/>
  <anchor x="817" y="1660" name="top"/>
  <outline>
    <contour>
      <point x="-24" y="0" type="line"/>
      <point x="560" y="0" type="line"/>
      <point x="565" y="38" type="line"/>
      <point x="447" y="73" type="line"/>
      <point x="544" y="778" type="line"/>
      <point x="588" y="806"/>
      <point x="682" y="835"/>
      <point x="751" y="835" type="curve" smooth="yes"/>
      <point x="836" y="835"/>
      <point x="878" y="783"/>
      <point x="878" y="642" type="curve" smooth="yes"/>
      <point x="878" y="552"/>
      <point x="861" y="423"/>
      <point x="848" y="331" type="curve" smooth="yes"/>
      <point x="812" y="73" type="line"/>
      <point x="693" y="36" type="line"/>
      <point x="689" y="0" type="line"/>
      <point x="1273" y="0" type="line"/>
      <point x="1278" y="36" type="line"/>
      <point x="1159" y="73" type="line"/>
      <point x="1213" y="460" type="line" smooth="yes"/>
      <point x="1218" y="495"/>
      <point x="1225" y="552"/>
      <point x="1225" y="604" type="curve" smooth="yes"/>
      <point x="1225" y="771"/>
      <point x="1153" y="920"/>
      <point x="878" y="920" type="curve" smooth="yes"/>
      <point x="751" y="920"/>
      <point x="642" y="894"/>
      <point x="554" y="850" type="curve"/>
      <point x="631" y="1414" type="line"/>
      <point x="761" y="1448" type="line"/>
      <point x="766" y="1486" type="line"/>
      <point x="157" y="1486" type="line"/>
      <point x="150" y="1448" type="line"/>
      <point x="282" y="1414" type="line"/>
      <point x="98" y="73" type="line"/>
      <point x="-20" y="38" type="line"/>
    </contour>
  </outline>
</glyph>
<glyph name="cheabkhasian-cy" format="2">
  <advance width="1166"/>
  <unicode hex="04BD"/>
  <anchor x="722" y="0" name="bottomright"/>
  <outline>
    <contour>
      <point x="281" y="774" type="curve"/>
      <point x="148" y="911" type="line"/>
      <point x="80" y="852"/>
      <point x="43" y="766"/>
      <point x="43" y="689" type="curve" smooth="yes"/>
      <point x="43" y="597"/>
      <point x="97" y="470"/>
      <point x="290" y="452" type="curve"/>
      <point x="289" y="436"/>
      <point x="288" y="411"/>
      <point x="288" y="399" type="curve" smooth="yes"/>
      <point x="288" y="186"/>
      <point x="392" y="-20"/>
      <point x="665" y="-20" type="curve" smooth="yes"/>
      <point x="872" y="-20"/>
      <point x="1038" y="107"/>
      <point x="1100" y="206" type="curve"/>
      <point x="1072" y="251" type="line"/>
      <point x="1016" y="177"/>
      <point x="906" y="111"/>
      <point x="787" y="111" type="curve" smooth="yes"/>
      <point x="649" y="111"/>
      <point x="642" y="251"/>
      <point x="647" y="445" type="curve"/>
      <point x="841" y="461"/>
      <point x="1160" y="533"/>
      <point x="1160" y="805" type="curve" smooth="yes"/>
      <point x="1160" y="935"/>
      <point x="1070" y="1032"/>
      <point x="869" y="1032" type="curve" smooth="yes"/>
      <point x="603" y="1032"/>
      <point x="380" y="881"/>
      <point x="295" y="506" type="curve"/>
      <point x="241" y="524"/>
      <point x="228" y="579"/>
      <point x="228" y="624" type="curve" smooth="yes"/>
      <point x="228" y="671"/>
      <point x="249" y="731"/>
    </contour>
    <contour>
      <point x="794" y="973" type="curve" smooth="yes"/>
      <point x="833" y="973"/>
      <point x="854" y="917"/>
      <point x="854" y="816" type="curve" smooth="yes"/>
      <point x="854" y="617"/>
      <point x="748" y="532"/>
      <point x="649" y="498" type="curve"/>
      <point x="666" y="700"/>
      <point x="698" y="973"/>
    </contour>
  </outline>
</glyph>
<glyph name="Kahook-cy" format="2">
  <advance width="1287"/>
  <unicode hex="04C3"/>
  <outline>
    <contour>
      <point x="-39" y="0" type="line"/>
      <point x="583" y="0" type="line"/>
      <point x="588" y="38" type="line"/>
      <point x="456" y="72" type="line"/>
      <point x="642" y="1413" type="line"/>
      <point x="772" y="1448" type="line"/>
      <point x="776" y="1486" type="line"/>
      <point x="179" y="1486" type="line"/>
      <point x="174" y="1448" type="line"/>
      <point x="292" y="1413" type="line"/>
      <point x="107" y="72" type="line"/>
      <point x="-34" y="38" type="line"/>
    </contour>
    <contour>
      <point x="468" y="-354" type="curve" smooth="yes"/>
      <point x="945" y="-343"/>
      <point x="1243" y="7"/>
      <point x="1243" y="439" type="curve" smooth="yes"/>
      <point x="1243" y="663"/>
      <point x="1103" y="846"/>
      <point x="848" y="846" type="curve" smooth="yes"/>
      <point x="673" y="846"/>
      <point x="597" y="810"/>
      <point x="552" y="790" type="curve"/>
      <point x="528" y="719" type="line"/>
      <point x="595" y="746"/>
      <point x="623" y="751"/>
      <point x="664" y="751" type="curve" smooth="yes"/>
      <point x="810" y="751"/>
      <point x="861" y="637"/>
      <point x="861" y="384" type="curve" smooth="yes"/>
      <point x="861" y="26"/>
      <point x="763" y="-292"/>
      <point x="451" y="-284" type="curve" smooth="yes"/>
      <point x="427" y="-284"/>
      <point x="408" y="-282"/>
      <point x="397" y="-280" type="curve"/>
      <point x="388" y="-348" type="line"/>
      <point x="416" y="-353"/>
      <point x="426" y="-355"/>
    </contour>
    <contour>
      <point x="760" y="793" type="line"/>
      <point x="1272" y="1413" type="line"/>
      <point x="1420" y="1448" type="line"/>
      <point x="1424" y="1486" type="line"/>
      <point x="989" y="1486" type="line"/>
      <point x="985" y="1448" type="line"/>
      <point x="1145" y="1413" type="line"/>
      <point x="675" y="816" type="line"/>
    </contour>
  </outline>
</glyph>
<glyph name="kahook-cy" format="2">
  <advance width="1093"/>
  <unicode hex="04C4"/>
  <outline>
    <contour>
      <point x="52" y="0" type="line"/>
      <point x="365" y="0" type="line"/>
      <point x="428" y="445" type="line"/>
      <point x="440" y="450"/>
      <point x="458" y="454"/>
      <point x="475" y="454" type="curve" smooth="yes"/>
      <point x="610" y="454"/>
      <point x="709" y="375"/>
      <point x="709" y="140" type="curve" smooth="yes"/>
      <point x="709" y="-127"/>
      <point x="578" y="-343"/>
      <point x="453" y="-343" type="curve" smooth="yes"/>
      <point x="378" y="-343"/>
      <point x="362" y="-337"/>
      <point x="346" y="-334" type="curve"/>
      <point x="336" y="-379" type="line"/>
      <point x="354" y="-387"/>
      <point x="406" y="-394"/>
      <point x="452" y="-394" type="curve" smooth="yes"/>
      <point x="753" y="-394"/>
      <point x="1013" y="-98"/>
      <point x="1013" y="161" type="curve" smooth="yes"/>
      <point x="1013" y="460"/>
      <point x="745" y="541"/>
      <point x="570" y="517" type="curve"/>
      <point x="744" y="589"/>
      <point x="903" y="694"/>
      <point x="957" y="782" type="curve" smooth="yes"/>
      <point x="979" y="818"/>
      <point x="1010" y="888"/>
      <point x="1010" y="939" type="curve" smooth="yes"/>
      <point x="1010" y="1001"/>
      <point x="970" y="1041"/>
      <point x="904" y="1041" type="curve" smooth="yes"/>
      <point x="839" y="1041"/>
      <point x="770" y="1015"/>
      <point x="747" y="884" type="curve" smooth="yes"/>
      <point x="737" y="828"/>
      <point x="741" y="748"/>
      <point x="714" y="691" type="curve" smooth="yes"/>
      <point x="694" y="650"/>
      <point x="624" y="586"/>
      <point x="528" y="519" type="curve"/>
      <point x="489" y="516"/>
      <point x="466" y="509"/>
      <point x="436" y="501" type="curve"/>
      <point x="499" y="993" type="line"/>
      <point x="457" y="1030" type="line"/>
      <point x="75" y="961" type="line"/>
      <point x="70" y="927" type="line"/>
      <point x="172" y="879" type="line"/>
    </contour>
  </outline>
</glyph>
<glyph name="enhook-cy" format="2">
  <advance width="1059"/>
  <unicode hex="04C8"/>
  <anchor x="786" y="-166" name="btm"/>
  <anchor x="702" y="1660" name="top"/>
  <outline>
    <contour>
      <point x="915" y="141" type="curve" smooth="yes"/>
      <point x="1030" y="1006" type="line"/>
      <point x="715" y="1006" type="line"/>
      <point x="651" y="547" type="line"/>
      <point x="426" y="547" type="line"/>
      <point x="484" y="992" type="line"/>
      <point x="441" y="1033" type="line"/>
      <point x="75" y="961" type="line"/>
      <point x="70" y="927" type="line"/>
      <point x="157" y="885" type="line"/>
      <point x="37" y="0" type="line"/>
      <point x="353" y="0" type="line"/>
      <point x="417" y="466" type="line"/>
      <point x="641" y="466" type="line"/>
      <point x="611" y="203" type="line" smooth="yes"/>
      <point x="563" y="-219"/>
      <point x="518" y="-304"/>
      <point x="410" y="-304" type="curve" smooth="yes"/>
      <point x="373" y="-304"/>
      <point x="338" y="-293"/>
      <point x="311" y="-281" type="curve"/>
      <point x="293" y="-336" type="line"/>
      <point x="322" y="-356"/>
      <point x="382" y="-376"/>
      <point x="469" y="-376" type="curve" smooth="yes"/>
      <point x="692" y="-376"/>
      <point x="864" y="-240"/>
    </contour>
  </outline>
</glyph>
<glyph name="Komide-cy" format="2">
  <advance width="1244"/>
  <unicode hex="0500"/>
  <outline>
    <contour>
      <point x="479" y="-20" type="curve" smooth="yes"/>
      <point x="540" y="-20"/>
      <point x="673" y="0"/>
      <point x="773" y="0" type="curve" smooth="yes"/>
      <point x="1145" y="0" type="line"/>
      <point x="1150" y="38" type="line"/>
      <point x="1020" y="72" type="line"/>
      <point x="1209" y="1413" type="line"/>
      <point x="1336" y="1448" type="line"/>
      <point x="1340" y="1486" type="line"/>
      <point x="712" y="1486" type="line"/>
      <point x="707" y="1448" type="line"/>
      <point x="858" y="1413" type="line"/>
      <point x="782" y="861" type="line"/>
      <point x="742" y="877"/>
      <point x="699" y="895"/>
      <point x="594" y="895" type="curve" smooth="yes"/>
      <point x="279" y="895"/>
      <point x="20" y="732"/>
      <point x="20" y="330" type="curve" smooth="yes"/>
      <point x="20" y="119"/>
      <point x="190" y="-20"/>
    </contour>
    <contour>
      <point x="544" y="40" type="curve" smooth="yes"/>
      <point x="463" y="40"/>
      <point x="371" y="77"/>
      <point x="371" y="272" type="curve" smooth="yes"/>
      <point x="371" y="631"/>
      <point x="498" y="819"/>
      <point x="652" y="819" type="curve" smooth="yes"/>
      <point x="698" y="819"/>
      <point x="738" y="815"/>
      <point x="774" y="799" type="curve"/>
      <point x="672" y="63" type="line"/>
      <point x="615" y="45"/>
      <point x="581" y="40"/>
    </contour>
  </outline>
</glyph>
<glyph name="Komidje-cy" format="2">
  <advance width="1734"/>
  <unicode hex="0502"/>
  <outline>
    <contour>
      <point x="1086" y="547" type="curve"/>
      <point x="872" y="37" type="line"/>
      <point x="930" y="0"/>
      <point x="1060" y="-22"/>
      <point x="1171" y="-22" type="curve" smooth="yes"/>
      <point x="1477" y="-22"/>
      <point x="1661" y="110"/>
      <point x="1699" y="390" type="curve" smooth="yes"/>
      <point x="1766" y="878" type="line"/>
      <point x="1437" y="878" type="line"/>
      <point x="1367" y="382" type="line" smooth="yes"/>
      <point x="1335" y="152"/>
      <point x="1304" y="35"/>
      <point x="1180" y="35" type="curve" smooth="yes"/>
      <point x="1113" y="35"/>
      <point x="1062" y="88"/>
      <point x="1062" y="175" type="curve" smooth="yes"/>
      <point x="1062" y="263"/>
      <point x="1067" y="409"/>
    </contour>
    <contour>
      <point x="479" y="-20" type="curve" smooth="yes"/>
      <point x="689" y="-20"/>
      <point x="812" y="5"/>
      <point x="897" y="43" type="curve"/>
      <point x="1020" y="72" type="line"/>
      <point x="1209" y="1413" type="line"/>
      <point x="1336" y="1448" type="line"/>
      <point x="1340" y="1486" type="line"/>
      <point x="712" y="1486" type="line"/>
      <point x="707" y="1448" type="line"/>
      <point x="858" y="1413" type="line"/>
      <point x="782" y="861" type="line"/>
      <point x="742" y="877"/>
      <point x="699" y="895"/>
      <point x="594" y="895" type="curve" smooth="yes"/>
      <point x="279" y="895"/>
      <point x="20" y="732"/>
      <point x="20" y="330" type="curve" smooth="yes"/>
      <point x="20" y="119"/>
      <point x="190" y="-20"/>
    </contour>
    <contour>
      <point x="544" y="40" type="curve" smooth="yes"/>
      <point x="463" y="40"/>
      <point x="371" y="77"/>
      <point x="371" y="272" type="curve" smooth="yes"/>
      <point x="371" y="631"/>
      <point x="498" y="819"/>
      <point x="652" y="819" type="curve" smooth="yes"/>
      <point x="698" y="819"/>
      <point x="738" y="815"/>
      <point x="774" y="799" type="curve"/>
      <point x="672" y="63" type="line"/>
      <point x="615" y="45"/>
      <point x="581" y="40"/>
    </contour>
  </outline>
</glyph>
<glyph name="komidzje-cy" format="2">
  <advance width="859"/>
  <unicode hex="0507"/>
  <outline>
    <contour>
      <point x="46" y="408" type="line"/>
      <point x="92" y="403"/>
      <point x="148" y="404"/>
      <point x="185" y="409" type="curve"/>
      <point x="250" y="314"/>
      <point x="166" y="-19"/>
      <point x="509" y="-19" type="curve" smooth="yes"/>
      <point x="527" y="-19"/>
      <point x="545" y="-17"/>
      <point x="563" y="-14" type="curve"/>
      <point x="521" y="-63"/>
      <point x="471" y="-116"/>
      <point x="471" y="-213" type="curve" smooth="yes"/>
      <point x="471" y="-263"/>
      <point x="471" y="-305"/>
      <point x="461" y="-340" type="curve" smooth="yes"/>
      <point x="449" y="-383"/>
      <point x="424" y="-416"/>
      <point x="367" y="-439" type="curve"/>
      <point x="389" y="-502" type="line"/>
      <point x="545" y="-484"/>
      <point x="710" y="-371"/>
      <point x="710" y="-218" type="curve" smooth="yes"/>
      <point x="710" y="-161"/>
      <point x="695" y="-94"/>
      <point x="695" y="-53" type="curve" smooth="yes"/>
      <point x="695" y="-14"/>
      <point x="706" y="23"/>
      <point x="725" y="58" type="curve"/>
      <point x="755" y="80"/>
      <point x="780" y="103"/>
      <point x="797" y="122" type="curve"/>
      <point x="774" y="170" type="line"/>
      <point x="748" y="141"/>
      <point x="717" y="126"/>
      <point x="699" y="126" type="curve" smooth="yes"/>
      <point x="587" y="126"/>
      <point x="519" y="374"/>
      <point x="379" y="434" type="curve"/>
      <point x="590" y="449"/>
      <point x="705" y="597"/>
      <point x="705" y="749" type="curve" smooth="yes"/>
      <point x="705" y="910"/>
      <point x="598" y="1017"/>
      <point x="314" y="1017" type="curve" smooth="yes"/>
      <point x="239" y="1017"/>
      <point x="174" y="1011"/>
      <point x="130" y="1001" type="curve"/>
      <point x="120" y="938" type="line"/>
      <point x="161" y="950"/>
      <point x="172" y="959"/>
      <point x="221" y="959" type="curve" smooth="yes"/>
      <point x="331" y="959"/>
      <point x="386" y="849"/>
      <point x="386" y="746" type="curve" smooth="yes"/>
      <point x="386" y="606"/>
      <point x="310" y="465"/>
      <point x="143" y="465" type="curve" smooth="yes"/>
      <point x="105" y="465"/>
      <point x="79" y="466"/>
      <point x="56" y="477" type="curve"/>
    </contour>
  </outline>
</glyph>
<glyph name="Komilje-cy" format="2">
  <advance width="1844"/>
  <unicode hex="0508"/>
  <outline>
    <contour>
      <point x="13" y="0" type="line"/>
      <point x="36" y="-14"/>
      <point x="79" y="-26"/>
      <point x="136" y="-26" type="curve" smooth="yes"/>
      <point x="309" y="-26"/>
      <point x="390" y="82"/>
      <point x="470" y="316" type="curve" smooth="yes"/>
      <point x="546" y="537"/>
      <point x="618" y="871"/>
      <point x="684" y="1307" type="curve" smooth="yes"/>
      <point x="700" y="1413" type="line"/>
      <point x="985" y="1413" type="line"/>
      <point x="844" y="382" type="line" smooth="yes"/>
      <point x="841" y="358"/>
      <point x="837" y="334"/>
      <point x="837" y="312" type="curve" smooth="yes"/>
      <point x="837" y="97"/>
      <point x="1036" y="-19"/>
      <point x="1300" y="-19" type="curve" smooth="yes"/>
      <point x="1595" y="-19"/>
      <point x="1783" y="109"/>
      <point x="1821" y="397" type="curve" smooth="yes"/>
      <point x="1884" y="878" type="line"/>
      <point x="1559" y="878" type="line"/>
      <point x="1487" y="389" type="line" smooth="yes"/>
      <point x="1457" y="186"/>
      <point x="1427" y="35"/>
      <point x="1289" y="35" type="curve" smooth="yes"/>
      <point x="1233" y="35"/>
      <point x="1177" y="90"/>
      <point x="1177" y="195" type="curve" smooth="yes"/>
      <point x="1177" y="283"/>
      <point x="1191" y="394"/>
      <point x="1210" y="532" type="curve" smooth="yes"/>
      <point x="1334" y="1413" type="line"/>
      <point x="1456" y="1448" type="line"/>
      <point x="1458" y="1486" type="line"/>
      <point x="480" y="1486" type="line"/>
      <point x="475" y="1448" type="line"/>
      <point x="610" y="1413" type="line"/>
      <point x="592" y="1313" type="line" smooth="yes"/>
      <point x="499" y="796"/>
      <point x="429" y="519"/>
      <point x="353" y="379" type="curve" smooth="yes"/>
      <point x="313" y="305"/>
      <point x="254" y="267"/>
      <point x="162" y="267" type="curve" smooth="yes"/>
      <point x="139" y="267"/>
      <point x="106" y="272"/>
      <point x="59" y="282" type="curve"/>
    </contour>
  </outline>
</glyph>
<glyph name="komilje-cy" format="2">
  <advance width="1385"/>
  <unicode hex="0509"/>
  <outline>
    <contour>
      <point x="896" y="-22" type="curve" smooth="yes"/>
      <point x="1135" y="-22"/>
      <point x="1302" y="108"/>
      <point x="1338" y="380" type="curve" smooth="yes"/>
      <point x="1371" y="628" type="line"/>
      <point x="1112" y="628" type="line"/>
      <point x="1074" y="362" type="line" smooth="yes"/>
      <point x="1045" y="159"/>
      <point x="1012" y="34"/>
      <point x="920" y="34" type="curve" smooth="yes"/>
      <point x="815" y="34"/>
      <point x="808" y="153"/>
      <point x="838" y="356" type="curve" smooth="yes"/>
      <point x="933" y="1006" type="line"/>
      <point x="229" y="1006" type="line"/>
      <point x="221" y="969" type="line"/>
      <point x="360" y="896" type="line"/>
      <point x="321" y="693"/>
      <point x="256" y="419"/>
      <point x="170" y="315" type="curve" smooth="yes"/>
      <point x="128" y="264"/>
      <point x="108" y="264"/>
      <point x="76" y="264" type="curve" smooth="yes"/>
      <point x="44" y="264"/>
      <point x="-3" y="274"/>
      <point x="-29" y="280" type="curve"/>
      <point x="-84" y="1" type="line"/>
      <point x="-66" y="-10"/>
      <point x="-42" y="-16"/>
      <point x="-6" y="-16" type="curve" smooth="yes"/>
      <point x="71" y="-16"/>
      <point x="141" y="29"/>
      <point x="214" y="159" type="curve" smooth="yes"/>
      <point x="306" y="324"/>
      <point x="383" y="620"/>
      <point x="453" y="921" type="curve"/>
      <point x="601" y="920" type="line"/>
      <point x="575" y="725"/>
      <point x="547" y="530"/>
      <point x="518" y="335" type="curve" smooth="yes"/>
      <point x="483" y="99"/>
      <point x="650" y="-22"/>
    </contour>
  </outline>
</glyph>
<glyph name="reversedze-cy" format="2">
  <advance width="766"/>
  <unicode hex="0511"/>
  <outline>
    <contour>
      <point x="536" y="1028" type="curve" smooth="yes"/>
      <point x="372" y="1028"/>
      <point x="45" y="970"/>
      <point x="45" y="705" type="curve" smooth="yes"/>
      <point x="45" y="542"/>
      <point x="259" y="470"/>
      <point x="441" y="507" type="curve"/>
      <point x="395" y="523" type="line"/>
      <point x="186" y="514"/>
      <point x="-15" y="425"/>
      <point x="-15" y="233" type="curve" smooth="yes"/>
      <point x="-15" y="57"/>
      <point x="138" y="-15"/>
      <point x="325" y="-16" type="curve" smooth="yes"/>
      <point x="530" y="-17"/>
      <point x="695" y="89"/>
      <point x="749" y="159" type="curve"/>
      <point x="723" y="223" type="line"/>
      <point x="696" y="167"/>
      <point x="562" y="101"/>
      <point x="447" y="101" type="curve" smooth="yes"/>
      <point x="347" y="101"/>
      <point x="292" y="161"/>
      <point x="292" y="256" type="curve" smooth="yes"/>
      <point x="292" y="350"/>
      <point x="327" y="495"/>
      <point x="502" y="489" type="curve" smooth="yes"/>
      <point x="589" y="486" type="line"/>
      <point x="615" y="573" type="line"/>
      <point x="494" y="550" type="line"/>
      <point x="404" y="550"/>
      <point x="352" y="620"/>
      <point x="352" y="731" type="curve" smooth="yes"/>
      <point x="352" y="861"/>
      <point x="403" y="960"/>
      <point x="546" y="960" type="curve" smooth="yes"/>
      <point x="650" y="960"/>
      <point x="701" y="848"/>
      <point x="737" y="796" type="curve"/>
      <point x="819" y="953" type="line"/>
      <point x="773" y="978"/>
      <point x="682" y="1028"/>
    </contour>
  </outline>
</glyph>
<glyph name="dram-arm" format="2">
  <advance width="1459"/>
  <unicode hex="058F"/>
  <outline>
    <contour>
      <point x="1179" y="384" type="line"/>
      <point x="1380" y="384" type="line"/>
      <point x="1391" y="451" type="line"/>
      <point x="1190" y="451" type="line"/>
      <point x="1213" y="623" type="line"/>
      <point x="1414" y="623" type="line"/>
      <point x="1425" y="690" type="line"/>
      <point x="1224" y="690" type="line"/>
      <point x="1262" y="950" type="line" smooth="yes"/>
      <point x="1285" y="1106"/>
      <point x="1365" y="1505"/>
      <point x="833" y="1505" type="curve" smooth="yes"/>
      <point x="523" y="1505"/>
      <point x="307" y="1370"/>
      <point x="264" y="1054" type="curve" smooth="yes"/>
      <point x="245" y="915" type="line"/>
      <point x="143" y="876" type="line"/>
      <point x="136" y="840" type="line"/>
      <point x="636" y="840" type="line"/>
      <point x="643" y="876" type="line"/>
      <point x="563" y="917" type="line"/>
      <point x="582" y="1058" type="line" smooth="yes"/>
      <point x="611" y="1275"/>
      <point x="680" y="1451"/>
      <point x="822" y="1451" type="curve" smooth="yes"/>
      <point x="1004" y="1451"/>
      <point x="958" y="1170"/>
      <point x="931" y="995" type="curve" smooth="yes"/>
      <point x="884" y="690" type="line"/>
      <point x="673" y="690" type="line"/>
      <point x="662" y="623" type="line"/>
      <point x="873" y="623" type="line"/>
      <point x="851" y="451" type="line"/>
      <point x="640" y="451" type="line"/>
      <point x="629" y="384" type="line"/>
      <point x="840" y="384" type="line"/>
      <point x="800" y="77" type="line"/>
      <point x="666" y="40" type="line"/>
      <point x="658" y="0" type="line"/>
      <point x="1256" y="0" type="line"/>
      <point x="1264" y="40" type="line"/>
      <point x="1140" y="74" type="line"/>
    </contour>
  </outline>
</glyph>
<glyph name="Germandbls" format="2">
  <advance width="1385"/>
  <unicode hex="1E9E"/>
  <outline>
    <contour>
      <point x="833" y="-19" type="curve" smooth="yes"/>
      <point x="1108" y="-19"/>
      <point x="1355" y="137"/>
      <point x="1355" y="499" type="curve" smooth="yes"/>
      <point x="1355" y="793"/>
      <point x="1093" y="848"/>
      <point x="979" y="848" type="curve"/>
      <point x="1337" y="1287" type="line"/>
      <point x="1350" y="1382" type="line"/>
      <point x="1277" y="1382"/>
      <point x="1162" y="1500"/>
      <point x="911" y="1505" type="curve" smooth="yes"/>
      <point x="494" y="1514"/>
      <point x="252" y="1221"/>
      <point x="201" y="851" type="curve" smooth="yes"/>
      <point x="94" y="72" type="line"/>
      <point x="-46" y="40" type="line"/>
      <point x="-51" y="0" type="line"/>
      <point x="432" y="0" type="line"/>
      <point x="553" y="895" type="line" smooth="yes"/>
      <point x="588" y="1151"/>
      <point x="691" y="1456"/>
      <point x="894" y="1456" type="curve" smooth="yes"/>
      <point x="1016" y="1456"/>
      <point x="1077" y="1396"/>
      <point x="1121" y="1363" type="curve"/>
      <point x="728" y="818" type="line"/>
      <point x="722" y="788" type="line"/>
      <point x="883" y="765"/>
      <point x="1020" y="692"/>
      <point x="1020" y="427" type="curve" smooth="yes"/>
      <point x="1020" y="273"/>
      <point x="949" y="42"/>
      <point x="849" y="42" type="curve" smooth="yes"/>
      <point x="785" y="42"/>
      <point x="749" y="63"/>
      <point x="748" y="176" type="curve"/>
      <point x="744" y="336" type="line"/>
      <point x="581" y="336" type="line"/>
      <point x="548" y="46" type="line"/>
      <point x="593" y="40"/>
      <point x="683" y="-19"/>
    </contour>
  </outline>
</glyph>
<glyph name="figuredash" format="2">
  <advance width="1265"/>
  <unicode hex="2012"/>
  <outline>
    <contour>
      <point x="311" y="604" type="line"/>
      <point x="299" y="524" type="line"/>
      <point x="971" y="524" type="line"/>
      <point x="983" y="604" type="line"/>
    </contour>
  </outline>
</glyph>
<glyph name="daggerdbl" format="2">
  <advance width="888"/>
  <unicode hex="2021"/>
  <outline>
    <contour>
      <point x="366" y="114" type="line"/>
      <point x="429" y="114" type="line"/>
      <point x="543" y="542" type="line"/>
      <point x="507" y="679" type="line"/>
      <point x="765" y="600" type="line"/>
      <point x="794" y="809" type="line"/>
      <point x="505" y="730" type="line"/>
      <point x="593" y="908" type="line"/>
      <point x="566" y="1140" type="line"/>
      <point x="850" y="1061" type="line"/>
      <point x="876" y="1270" type="line"/>
      <point x="571" y="1191" type="line"/>
      <point x="691" y="1533" type="line"/>
      <point x="701" y="1610" type="line"/>
      <point x="520" y="1610" type="line"/>
      <point x="508" y="1533" type="line"/>
      <point x="526" y="1191" type="line"/>
      <point x="261" y="1270" type="line"/>
      <point x="232" y="1061" type="line"/>
      <point x="519" y="1140" type="line"/>
      <point x="428" y="908" type="line"/>
      <point x="457" y="730" type="line"/>
      <point x="187" y="809" type="line"/>
      <point x="158" y="600" type="line"/>
      <point x="450" y="679" type="line"/>
      <point x="364" y="542" type="line"/>
    </contour>
  </outline>
</glyph>
<glyph name="bullet" format="2">
  <advance width="728"/>
  <unicode hex="2022"/>
  <outline>
    <contour>
      <point x="364" y="515" type="curve" smooth="yes"/>
      <point x="529" y="515"/>
      <point x="602" y="665"/>
      <point x="607" y="800" type="curve" smooth="yes"/>
      <point x="611" y="913"/>
      <point x="533" y="1005"/>
      <point x="435" y="1005" type="curve" smooth="yes"/>
      <point x="286" y="1005"/>
      <point x="197" y="860"/>
      <point x="192" y="723" type="curve" smooth="yes"/>
      <point x="188" y="614"/>
      <point x="268" y="515"/>
    </contour>
  </outline>
</glyph>
<glyph name="guilsinglright" format="2">
  <advance width="680"/>
  <unicode hex="203A"/>
  <outline>
    <contour>
      <point x="84" y="123" type="line"/>
      <point x="596" y="554" type="line"/>
      <point x="623" y="668" type="line"/>
      <point x="260" y="1116" type="line"/>
      <point x="228" y="1088" type="line"/>
      <point x="381" y="621" type="line"/>
      <point x="61" y="148" type="line"/>
    </contour>
  </outline>
</glyph>
<glyph name="euro" format="2">
  <advance width="1268"/>
  <unicode hex="20AC"/>
  <outline>
    <contour>
      <point x="116" y="922" type="line"/>
      <point x="89" y="855" type="line"/>
      <point x="257" y="855" type="line"/>
      <point x="236" y="750"/>
      <point x="232" y="712"/>
      <point x="232" y="624" type="curve"/>
      <point x="83" y="624" type="line"/>
      <point x="56" y="557" type="line"/>
      <point x="235" y="557" type="line"/>
      <point x="257" y="172"/>
      <point x="424" y="-28"/>
      <point x="718" y="-28" type="curve" smooth="yes"/>
      <point x="828" y="-28"/>
      <point x="911" y="0"/>
      <point x="997" y="30" type="curve" smooth="yes"/>
      <point x="1042" y="46"/>
      <point x="1086" y="59"/>
      <point x="1118" y="59" type="curve"/>
      <point x="1196" y="437" type="line"/>
      <point x="1014" y="445" type="line"/>
      <point x="906" y="184" type="line"/>
      <point x="871" y="89"/>
      <point x="807" y="29"/>
      <point x="738" y="29" type="curve" smooth="yes"/>
      <point x="624" y="29"/>
      <point x="525" y="190"/>
      <point x="552" y="557" type="curve"/>
      <point x="821" y="557" type="line"/>
      <point x="847" y="624" type="line"/>
      <point x="557" y="624" type="line"/>
      <point x="560" y="682"/>
      <point x="574" y="785"/>
      <point x="587" y="855" type="curve"/>
      <point x="931" y="855" type="line"/>
      <point x="958" y="922" type="line"/>
      <point x="600" y="922" type="line"/>
      <point x="671" y="1263"/>
      <point x="798" y="1452"/>
      <point x="938" y="1452" type="curve" smooth="yes"/>
      <point x="1012" y="1452"/>
      <point x="1047" y="1404"/>
      <point x="1045" y="1321" type="curve" smooth="yes"/>
      <point x="1039" y="1051" type="line"/>
      <point x="1244" y="1051" type="line"/>
      <point x="1329" y="1428" type="line"/>
      <point x="1272" y="1428"/>
      <point x="1231" y="1446"/>
      <point x="1195" y="1460" type="curve" smooth="yes"/>
      <point x="1144" y="1480"/>
      <point x="1056" y="1513"/>
      <point x="938" y="1513" type="curve" smooth="yes"/>
      <point x="600" y="1513"/>
      <point x="368" y="1245"/>
      <point x="275" y="922" type="curve"/>
    </contour>
  </outline>
</glyph>
<glyph name="tugrik" format="2">
  <advance width="1363"/>
  <unicode hex="20AE"/>
  <anchor x="743" y="0" name="bottom"/>
  <anchor x="933" y="1486" name="top"/>
  <outline>
    <contour>
      <point x="179" y="1038" type="line"/>
      <point x="330" y="1038" type="line"/>
      <point x="520" y="1416" type="line"/>
      <point x="646" y="1434" type="line"/>
      <point x="553" y="755" type="line"/>
      <point x="348" y="688" type="line"/>
      <point x="339" y="623" type="line"/>
      <point x="542" y="689" type="line"/>
      <point x="511" y="438" type="line"/>
      <point x="307" y="372" type="line"/>
      <point x="297" y="307" type="line"/>
      <point x="499" y="373" type="line"/>
      <point x="462" y="83" type="line"/>
      <point x="258" y="38" type="line"/>
      <point x="249" y="0" type="line"/>
      <point x="1016" y="0" type="line"/>
      <point x="1023" y="38" type="line"/>
      <point x="808" y="83" type="line"/>
      <point x="860" y="476" type="line"/>
      <point x="1046" y="541" type="line"/>
      <point x="1055" y="606" type="line"/>
      <point x="872" y="542" type="line"/>
      <point x="903" y="793" type="line"/>
      <point x="1088" y="857" type="line"/>
      <point x="1097" y="923" type="line"/>
      <point x="914" y="858" type="line"/>
      <point x="991" y="1434" type="line"/>
      <point x="1112" y="1416" type="line"/>
      <point x="1194" y="1045" type="line"/>
      <point x="1335" y="1045" type="line"/>
      <point x="1383" y="1486" type="line"/>
      <point x="267" y="1486" type="line"/>
    </contour>
  </outline>
</glyph>
<glyph name="guarani" format="2">
  <advance width="1253"/>
  <unicode hex="20B2"/>
  <outline>
    <contour>
      <point x="528" y="-260" type="line"/>
      <point x="624" y="-260" type="line"/>
      <point x="655" y="-22" type="line"/>
      <point x="775" y="-13"/>
      <point x="879" y="19"/>
      <point x="961" y="47" type="curve" smooth="yes"/>
      <point x="999" y="60"/>
      <point x="1060" y="72"/>
      <point x="1105" y="72" type="curve"/>
      <point x="1194" y="725" type="line"/>
      <point x="721" y="725" type="line"/>
      <point x="714" y="689" type="line"/>
      <point x="864" y="647" type="line"/>
      <point x="792" y="81" type="line"/>
      <point x="742" y="53"/>
      <point x="690" y="34"/>
      <point x="634" y="34" type="curve" smooth="yes"/>
      <point x="429" y="34"/>
      <point x="404" y="304"/>
      <point x="404" y="538" type="curve" smooth="yes"/>
      <point x="404" y="1112"/>
      <point x="554" y="1447"/>
      <point x="790" y="1447" type="curve" smooth="yes"/>
      <point x="868" y="1447"/>
      <point x="937" y="1411"/>
      <point x="957" y="1390" type="curve"/>
      <point x="981" y="1090" type="line"/>
      <point x="1189" y="1090" type="line"/>
      <point x="1245" y="1450" type="line"/>
      <point x="1150" y="1460" type="line"/>
      <point x="1076" y="1474"/>
      <point x="1014" y="1500"/>
      <point x="877" y="1505" type="curve"/>
      <point x="910" y="1738" type="line"/>
      <point x="813" y="1738" type="line"/>
      <point x="778" y="1505" type="line"/>
      <point x="292" y="1487"/>
      <point x="68" y="1061"/>
      <point x="68" y="605" type="curve" smooth="yes"/>
      <point x="68" y="293"/>
      <point x="173" y="-1"/>
      <point x="558" y="-22" type="curve"/>
    </contour>
  </outline>
</glyph>
<glyph name="tenge" format="2">
  <advance width="1429"/>
  <unicode hex="20B8"/>
  <outline>
    <contour>
      <point x="292" y="0" type="line"/>
      <point x="1049" y="0" type="line"/>
      <point x="1056" y="39" type="line"/>
      <point x="843" y="83" type="line"/>
      <point x="973" y="1082" type="line"/>
      <point x="1098" y="1053" type="line"/>
      <point x="1174" y="691" type="line"/>
      <point x="1315" y="691" type="line"/>
      <point x="1363" y="1139" type="line"/>
      <point x="261" y="1139" type="line"/>
      <point x="166" y="691" type="line"/>
      <point x="334" y="691" type="line"/>
      <point x="477" y="1053" type="line"/>
      <point x="630" y="1082" type="line"/>
      <point x="499" y="83" type="line"/>
      <point x="300" y="39" type="line"/>
    </contour>
    <contour>
      <point x="301" y="1425" type="line"/>
      <point x="1402" y="1425" type="line"/>
      <point x="1413" y="1486" type="line"/>
      <point x="313" y="1486" type="line"/>
    </contour>
  </outline>
</glyph>
<glyph name="rupeeIndian" format="2">
  <advance width="1237"/>
  <unicode hex="20B9"/>
  <anchor x="539" y="1486" name="top"/>
  <outline>
    <contour>
      <point x="633" y="0" type="curve" smooth="yes"/>
      <point x="1019" y="0" type="line"/>
      <point x="1025" y="34" type="line"/>
      <point x="980" y="51" type="line" smooth="yes"/>
      <point x="889" y="85"/>
      <point x="956" y="586"/>
      <point x="658" y="654" type="curve"/>
      <point x="820" y="696"/>
      <point x="957" y="854"/>
      <point x="1001" y="1022" type="curve"/>
      <point x="1187" y="1022" type="line"/>
      <point x="1196" y="1084" type="line"/>
      <point x="1012" y="1084" type="line"/>
      <point x="1034" y="1224"/>
      <point x="999" y="1347"/>
      <point x="919" y="1424" type="curve"/>
      <point x="1258" y="1424" type="line"/>
      <point x="1267" y="1486" type="line"/>
      <point x="273" y="1486" type="line"/>
      <point x="265" y="1425" type="line"/>
      <point x="465" y="1425" type="line" smooth="yes"/>
      <point x="634" y="1425"/>
      <point x="691" y="1254"/>
      <point x="669" y="1084" type="curve"/>
      <point x="214" y="1084" type="line"/>
      <point x="203" y="1022" type="line"/>
      <point x="660" y="1022" type="line"/>
      <point x="587" y="765"/>
      <point x="476" y="667"/>
      <point x="298" y="667" type="curve" smooth="yes"/>
      <point x="253" y="667"/>
      <point x="173" y="673"/>
      <point x="152" y="677" type="curve"/>
      <point x="143" y="614" type="line"/>
      <point x="172" y="611"/>
      <point x="223" y="608"/>
      <point x="337" y="608" type="curve" smooth="yes"/>
      <point x="349" y="608"/>
      <point x="378" y="608"/>
      <point x="395" y="608" type="curve"/>
      <point x="554" y="529"/>
      <point x="546" y="0"/>
    </contour>
  </outline>
</glyph>
<glyph name="ruble" format="2">
  <advance width="1318"/>
  <unicode hex="20BD"/>
  <outline>
    <contour>
      <point x="159" y="0" type="line"/>
      <point x="878" y="0" type="line"/>
      <point x="883" y="37" type="line"/>
      <point x="627" y="83" type="line"/>
      <point x="664" y="355" type="line"/>
      <point x="978" y="355" type="line"/>
      <point x="989" y="421" type="line"/>
      <point x="674" y="421" type="line"/>
      <point x="699" y="611" type="line"/>
      <point x="769" y="608" type="line"/>
      <point x="1106" y="608"/>
      <point x="1365" y="810"/>
      <point x="1365" y="1139" type="curve" smooth="yes"/>
      <point x="1365" y="1400"/>
      <point x="1202" y="1497"/>
      <point x="915" y="1497" type="curve" smooth="yes"/>
      <point x="809" y="1497"/>
      <point x="713" y="1486"/>
      <point x="649" y="1486" type="curve" smooth="yes"/>
      <point x="365" y="1486" type="line"/>
      <point x="358" y="1450" type="line"/>
      <point x="499" y="1412" type="line"/>
      <point x="399" y="680" type="line"/>
      <point x="176" y="680" type="line"/>
      <point x="165" y="613" type="line"/>
      <point x="387" y="613" type="line"/>
      <point x="363" y="421" type="line"/>
      <point x="141" y="421" type="line"/>
      <point x="130" y="355" type="line"/>
      <point x="352" y="355" type="line"/>
      <point x="315" y="73" type="line"/>
      <point x="164" y="37" type="line"/>
    </contour>
    <contour>
      <point x="709" y="680" type="curve"/>
      <point x="811" y="1430" type="line"/>
      <point x="840" y="1434"/>
      <point x="870" y="1441"/>
      <point x="899" y="1441" type="curve" smooth="yes"/>
      <point x="1009" y="1441"/>
      <point x="1047" y="1361"/>
      <point x="1047" y="1204" type="curve" smooth="yes"/>
      <point x="1047" y="912"/>
      <point x="920" y="674"/>
      <point x="773" y="674" type="curve" smooth="yes"/>
      <point x="758" y="674"/>
      <point x="737" y="677"/>
    </contour>
  </outline>
</glyph>
<glyph name="bitcoin" format="2">
  <advance width="1251"/>
  <unicode hex="20BF"/>
  <anchor x="564" y="0" name="bottom"/>
  <anchor x="785" y="1486" name="top"/>
  <outline>
    <contour>
      <point x="680" y="1738" type="line"/>
      <point x="583" y="1738" type="line"/>
      <point x="539" y="1460" type="line"/>
      <point x="636" y="1460" type="line"/>
    </contour>
    <contour>
      <point x="1006" y="1738" type="line"/>
      <point x="909" y="1738" type="line"/>
      <point x="866" y="1460" type="line"/>
      <point x="963" y="1460" type="line"/>
    </contour>
    <contour>
      <point x="414" y="38" type="line"/>
      <point x="317" y="38" type="line"/>
      <point x="272" y="-260" type="line"/>
      <point x="369" y="-260" type="line"/>
    </contour>
    <contour>
      <point x="742" y="38" type="line"/>
      <point x="645" y="38" type="line"/>
      <point x="599" y="-260" type="line"/>
      <point x="696" y="-260" type="line"/>
    </contour>
    <contour>
      <point x="506" y="1486" type="curve" smooth="yes"/>
      <point x="161" y="1486" type="line"/>
      <point x="156" y="1450" type="line"/>
      <point x="284" y="1413" type="line"/>
      <point x="100" y="72" type="line"/>
      <point x="-40" y="38" type="line"/>
      <point x="-45" y="0" type="line"/>
      <point x="288" y="0" type="line" smooth="yes"/>
      <point x="388" y="0"/>
      <point x="424" y="-20"/>
      <point x="559" y="-20" type="curve" smooth="yes"/>
      <point x="942" y="-20"/>
      <point x="1200" y="122"/>
      <point x="1200" y="488" type="curve" smooth="yes"/>
      <point x="1200" y="646"/>
      <point x="1103" y="776"/>
      <point x="855" y="777" type="curve"/>
      <point x="1101" y="817"/>
      <point x="1224" y="970"/>
      <point x="1224" y="1184" type="curve" smooth="yes"/>
      <point x="1224" y="1344"/>
      <point x="1128" y="1502"/>
      <point x="769" y="1502" type="curve" smooth="yes"/>
      <point x="626" y="1502"/>
      <point x="619" y="1488"/>
    </contour>
    <contour>
      <point x="447" y="63" type="curve"/>
      <point x="537" y="726" type="line"/>
      <point x="578" y="728"/>
      <point x="618" y="730"/>
      <point x="646" y="730" type="curve" smooth="yes"/>
      <point x="777" y="730"/>
      <point x="846" y="655"/>
      <point x="846" y="481" type="curve" smooth="yes"/>
      <point x="846" y="204"/>
      <point x="759" y="40"/>
      <point x="558" y="40" type="curve" smooth="yes"/>
      <point x="501" y="40"/>
      <point x="464" y="48"/>
    </contour>
    <contour>
      <point x="547" y="791" type="curve"/>
      <point x="634" y="1426" type="line"/>
      <point x="662" y="1433"/>
      <point x="694" y="1438"/>
      <point x="723" y="1438" type="curve" smooth="yes"/>
      <point x="845" y="1438"/>
      <point x="891" y="1349"/>
      <point x="891" y="1183" type="curve" smooth="yes"/>
      <point x="891" y="914"/>
      <point x="752" y="791"/>
      <point x="654" y="791" type="curve" smooth="yes"/>
      <point x="618" y="791"/>
      <point x="583" y="791"/>
    </contour>
  </outline>
</glyph>
<glyph name="numero" format="2">
  <advance width="2258"/>
  <unicode hex="2116"/>
  <outline>
    <contour>
      <point x="-55" y="36" type="line"/>
      <point x="-57" y="0" type="line"/>
      <point x="398" y="0" type="line"/>
      <point x="403" y="36" type="line"/>
      <point x="187" y="95" type="line"/>
      <point x="338" y="1304" type="line"/>
      <point x="408" y="1058" type="line"/>
      <point x="786" y="-1" type="line"/>
      <point x="999" y="0" type="line"/>
      <point x="1190" y="1391" type="line"/>
      <point x="1344" y="1450" type="line"/>
      <point x="1346" y="1486" type="line"/>
      <point x="891" y="1486" type="line"/>
      <point x="886" y="1450" type="line"/>
      <point x="1102" y="1391" type="line"/>
      <point x="982" y="404" type="line"/>
      <point x="926" y="619" type="line"/>
      <point x="616" y="1486" type="line"/>
      <point x="149" y="1486" type="line"/>
      <point x="143" y="1447" type="line"/>
      <point x="281" y="1411" type="line"/>
      <point x="99" y="95" type="line"/>
    </contour>
    <contour>
      <point x="1295" y="914" type="curve" smooth="yes"/>
      <point x="1295" y="626"/>
      <point x="1444" y="509"/>
      <point x="1662" y="509" type="curve" smooth="yes"/>
      <point x="1948" y="509"/>
      <point x="2149" y="712"/>
      <point x="2190" y="1027" type="curve" smooth="yes"/>
      <point x="2231" y="1340"/>
      <point x="2085" y="1510"/>
      <point x="1824" y="1510" type="curve" smooth="yes"/>
      <point x="1503" y="1510"/>
      <point x="1295" y="1254"/>
    </contour>
    <contour>
      <point x="1561" y="895" type="curve" smooth="yes"/>
      <point x="1561" y="1172"/>
      <point x="1645" y="1448"/>
      <point x="1792" y="1448" type="curve" smooth="yes"/>
      <point x="1882" y="1448"/>
      <point x="1931" y="1343"/>
      <point x="1931" y="1126" type="curve" smooth="yes"/>
      <point x="1931" y="836"/>
      <point x="1844" y="580"/>
      <point x="1701" y="580" type="curve" smooth="yes"/>
      <point x="1610" y="580"/>
      <point x="1561" y="684"/>
    </contour>
    <contour>
      <point x="1212" y="77" type="line"/>
      <point x="1199" y="0" type="line"/>
      <point x="2034" y="0" type="line"/>
      <point x="2045" y="77" type="line"/>
    </contour>
  </outline>
</glyph>
<glyph name="published" format="2">
  <advance width="2070"/>
  <unicode hex="2117"/>
  <outline>
    <contour>
      <point x="254" y="979" type="curve" smooth="yes"/>
      <point x="254" y="503"/>
      <point x="631" y="129"/>
      <point x="1101" y="129" type="curve" smooth="yes"/>
      <point x="1574" y="129"/>
      <point x="1946" y="503"/>
      <point x="1946" y="979" type="curve" smooth="yes"/>
      <point x="1946" y="1453"/>
      <point x="1574" y="1826"/>
      <point x="1101" y="1826" type="curve" smooth="yes"/>
      <point x="631" y="1826"/>
      <point x="254" y="1453"/>
    </contour>
    <contour>
      <point x="335" y="978" type="curve" smooth="yes"/>
      <point x="335" y="1414"/>
      <point x="673" y="1757"/>
      <point x="1101" y="1757" type="curve" smooth="yes"/>
      <point x="1533" y="1757"/>
      <point x="1867" y="1417"/>
      <point x="1867" y="979" type="curve" smooth="yes"/>
      <point x="1867" y="540"/>
      <point x="1533" y="200"/>
      <point x="1101" y="200" type="curve" smooth="yes"/>
      <point x="669" y="200"/>
      <point x="335" y="540"/>
    </contour>
    <contour>
      <point x="819" y="580" type="line"/>
      <point x="736" y="546" type="line"/>
      <point x="736" y="509" type="line"/>
      <point x="1150" y="509" type="line"/>
      <point x="1150" y="546" type="line"/>
      <point x="1037" y="580" type="line"/>
      <point x="1037" y="823" type="line"/>
      <point x="1138" y="823" type="line"/>
      <point x="1439" y="823"/>
      <point x="1525" y="988"/>
      <point x="1525" y="1153" type="curve" smooth="yes"/>
      <point x="1525" y="1330"/>
      <point x="1425" y="1453"/>
      <point x="1157" y="1453" type="curve"/>
      <point x="1046" y="1453"/>
      <point x="1006" y="1448"/>
      <point x="921" y="1448" type="curve" smooth="yes"/>
      <point x="736" y="1448" type="line"/>
      <point x="736" y="1406" type="line"/>
      <point x="819" y="1376" type="line"/>
    </contour>
    <contour>
      <point x="1037" y="893" type="curve"/>
      <point x="1037" y="1384" type="line"/>
      <point x="1060" y="1389"/>
      <point x="1094" y="1394"/>
      <point x="1122" y="1394" type="curve" smooth="yes"/>
      <point x="1233" y="1394"/>
      <point x="1292" y="1314"/>
      <point x="1292" y="1166" type="curve" smooth="yes"/>
      <point x="1292" y="1003"/>
      <point x="1221" y="886"/>
      <point x="1123" y="886" type="curve" smooth="yes"/>
      <point x="1097" y="886"/>
      <point x="1061" y="886"/>
    </contour>
  </outline>
</glyph>
<glyph name="servicemark" format="2">
  <advance width="1638"/>
  <unicode hex="2120"/>
  <outline>
    <contour>
      <point x="665" y="916" type="line"/>
      <point x="663" y="897" type="line"/>
      <point x="869" y="897" type="line"/>
      <point x="871" y="916" type="line"/>
      <point x="804" y="938" type="line"/>
      <point x="879" y="1305" type="line"/>
      <point x="906" y="1442" type="line"/>
      <point x="932" y="1306" type="line"/>
      <point x="1006" y="891" type="line"/>
      <point x="1118" y="891" type="line"/>
      <point x="1311" y="1352" type="line"/>
      <point x="1356" y="1457" type="line"/>
      <point x="1345" y="1305" type="line"/>
      <point x="1315" y="938" type="line"/>
      <point x="1241" y="916" type="line"/>
      <point x="1238" y="897" type="line"/>
      <point x="1521" y="897" type="line"/>
      <point x="1523" y="916" type="line"/>
      <point x="1449" y="938" type="line"/>
      <point x="1476" y="1450" type="line"/>
      <point x="1563" y="1470" type="line"/>
      <point x="1566" y="1495" type="line"/>
      <point x="1320" y="1495" type="line"/>
      <point x="1115" y="996" type="line"/>
      <point x="1086" y="1201" type="line"/>
      <point x="1047" y="1495" type="line"/>
      <point x="774" y="1495" type="line"/>
      <point x="771" y="1470" type="line"/>
      <point x="857" y="1450" type="line"/>
      <point x="744" y="938" type="line"/>
    </contour>
    <contour>
      <point x="210" y="1072" type="line"/>
      <point x="189" y="919" type="line"/>
      <point x="255" y="898"/>
      <point x="325" y="887"/>
      <point x="382" y="887" type="curve" smooth="yes"/>
      <point x="539" y="887"/>
      <point x="650" y="972"/>
      <point x="650" y="1091" type="curve" smooth="yes"/>
      <point x="650" y="1274"/>
      <point x="390" y="1230"/>
      <point x="390" y="1376" type="curve" smooth="yes"/>
      <point x="390" y="1431"/>
      <point x="426" y="1470"/>
      <point x="493" y="1470" type="curve" smooth="yes"/>
      <point x="521" y="1470"/>
      <point x="550" y="1462"/>
      <point x="555" y="1449" type="curve"/>
      <point x="563" y="1332" type="line"/>
      <point x="650" y="1332" type="line"/>
      <point x="669" y="1473" type="line"/>
      <point x="649" y="1481"/>
      <point x="588" y="1505"/>
      <point x="504" y="1505" type="curve" smooth="yes"/>
      <point x="349" y="1505"/>
      <point x="250" y="1424"/>
      <point x="250" y="1307" type="curve" smooth="yes"/>
      <point x="250" y="1118"/>
      <point x="507" y="1167"/>
      <point x="507" y="1025" type="curve" smooth="yes"/>
      <point x="507" y="966"/>
      <point x="463" y="921"/>
      <point x="389" y="921" type="curve" smooth="yes"/>
      <point x="356" y="921"/>
      <point x="321" y="930"/>
      <point x="312" y="943" type="curve"/>
      <point x="311" y="1071" type="line"/>
    </contour>
  </outline>
</glyph>
<glyph name="leftRightArrow" format="2">
  <advance width="2054"/>
  <unicode hex="2194"/>
  <outline>
    <contour>
      <point x="74" y="752" type="line"/>
      <point x="582" y="244" type="line"/>
      <point x="734" y="402" type="line"/>
      <point x="450" y="682" type="line"/>
      <point x="698" y="628" type="line"/>
      <point x="1422" y="624" type="line"/>
      <point x="1670" y="680" type="line"/>
      <point x="1388" y="392" type="line"/>
      <point x="1540" y="238" type="line"/>
      <point x="2048" y="748" type="line"/>
      <point x="1540" y="1254" type="line"/>
      <point x="1388" y="1098" type="line"/>
      <point x="1670" y="818" type="line"/>
      <point x="1422" y="870" type="line"/>
      <point x="698" y="874" type="line"/>
      <point x="450" y="822" type="line"/>
      <point x="734" y="1106" type="line"/>
      <point x="582" y="1260" type="line"/>
    </contour>
  </outline>
</glyph>
<glyph name="integral" format="2">
  <advance width="933"/>
  <unicode hex="222B"/>
  <outline>
    <contour>
      <point x="101" y="-244" type="curve"/>
      <point x="10" y="-388" type="line"/>
      <point x="67" y="-459"/>
      <point x="154" y="-504"/>
      <point x="266" y="-504" type="curve" smooth="yes"/>
      <point x="534" y="-504"/>
      <point x="741" y="-249"/>
      <point x="741" y="97" type="curve" smooth="yes"/>
      <point x="741" y="465"/>
      <point x="506" y="930"/>
      <point x="506" y="1262" type="curve" smooth="yes"/>
      <point x="506" y="1456"/>
      <point x="586" y="1577"/>
      <point x="705" y="1577" type="curve" smooth="yes"/>
      <point x="806" y="1577"/>
      <point x="851" y="1490"/>
      <point x="868" y="1407" type="curve"/>
      <point x="969" y="1532" type="line"/>
      <point x="914" y="1607"/>
      <point x="816" y="1646"/>
      <point x="717" y="1646" type="curve" smooth="yes"/>
      <point x="513" y="1646"/>
      <point x="259" y="1479"/>
      <point x="259" y="1087" type="curve" smooth="yes"/>
      <point x="259" y="723"/>
      <point x="478" y="300"/>
      <point x="478" y="-85" type="curve" smooth="yes"/>
      <point x="478" y="-302"/>
      <point x="407" y="-433"/>
      <point x="291" y="-433" type="curve" smooth="yes"/>
      <point x="204" y="-433"/>
      <point x="149" y="-356"/>
    </contour>
  </outline>
</glyph>
<glyph name="approxequal" format="2">
  <advance width="1124"/>
  <unicode hex="2248"/>
  <outline>
    <contour>
      <point x="185" y="775" type="curve"/>
      <point x="211" y="718" type="line"/>
      <point x="277" y="809"/>
      <point x="320" y="858"/>
      <point x="413" y="858" type="curve" smooth="yes"/>
      <point x="562" y="858"/>
      <point x="598" y="650"/>
      <point x="779" y="650" type="curve" smooth="yes"/>
      <point x="892" y="650"/>
      <point x="980" y="710"/>
      <point x="1018" y="810" type="curve"/>
      <point x="986" y="874" type="line"/>
      <point x="925" y="779"/>
      <point x="883" y="730"/>
      <point x="791" y="730" type="curve" smooth="yes"/>
      <point x="641" y="730"/>
      <point x="605" y="938"/>
      <point x="425" y="938" type="curve" smooth="yes"/>
      <point x="312" y="938"/>
      <point x="222" y="878"/>
    </contour>
    <contour>
      <point x="122" y="314" type="curve"/>
      <point x="148" y="257" type="line"/>
      <point x="214" y="348"/>
      <point x="257" y="397"/>
      <point x="350" y="397" type="curve" smooth="yes"/>
      <point x="499" y="397"/>
      <point x="535" y="189"/>
      <point x="716" y="189" type="curve" smooth="yes"/>
      <point x="829" y="189"/>
      <point x="917" y="249"/>
      <point x="955" y="349" type="curve"/>
      <point x="923" y="413" type="line"/>
      <point x="862" y="318"/>
      <point x="820" y="269"/>
      <point x="728" y="269" type="curve" smooth="yes"/>
      <point x="578" y="269"/>
      <point x="542" y="477"/>
      <point x="362" y="477" type="curve" smooth="yes"/>
      <point x="249" y="477"/>
      <point x="159" y="417"/>
    </contour>
  </outline>
</glyph>
<glyph name="Ef-cy.loclBGR" format="2">
  <advance width="1715"/>
  <outline>
    <contour>
      <point x="474" y="-97" type="line"/>
      <point x="1081" y="-97" type="line"/>
      <point x="1088" y="-59" type="line"/>
      <point x="958" y="-25" type="line"/>
      <point x="1176" y="1497" type="line"/>
      <point x="1306" y="1534" type="line"/>
      <point x="1310" y="1570" type="line"/>
      <point x="702" y="1570" type="line"/>
      <point x="697" y="1534" type="line"/>
      <point x="827" y="1497" type="line"/>
      <point x="609" y="-25" type="line"/>
      <point x="479" y="-59" type="line"/>
    </contour>
    <contour>
      <point x="730" y="197" type="line"/>
      <point x="530" y="245"/>
      <point x="415" y="421"/>
      <point x="415" y="708" type="curve" smooth="yes"/>
      <point x="415" y="1050"/>
      <point x="585" y="1260"/>
      <point x="858" y="1290" type="curve"/>
      <point x="863" y="1346" type="line"/>
      <point x="380" y="1325"/>
      <point x="61" y="1084"/>
      <point x="61" y="688" type="curve" smooth="yes"/>
      <point x="61" y="350"/>
      <point x="294" y="154"/>
      <point x="725" y="129" type="curve"/>
    </contour>
    <contour>
      <point x="921" y="131" type="line"/>
      <point x="1393" y="156"/>
      <point x="1720" y="409"/>
      <point x="1720" y="805" type="curve" smooth="yes"/>
      <point x="1720" y="1143"/>
      <point x="1483" y="1317"/>
      <point x="1045" y="1346" type="curve"/>
      <point x="1039" y="1286" type="line"/>
      <point x="1247" y="1245"/>
      <point x="1366" y="1077"/>
      <point x="1366" y="781" type="curve" smooth="yes"/>
      <point x="1366" y="433"/>
      <point x="1195" y="212"/>
      <point x="924" y="187" type="curve"/>
    </contour>
  </outline>
</glyph>
<glyph name="El-cy.loclBGR" format="2">
  <advance width="1088"/>
  <outline>
    <contour>
      <point x="-177" y="0" type="line"/>
      <point x="243" y="-1" type="line"/>
      <point x="248" y="35" type="line"/>
      <point x="65" y="72" type="line"/>
      <point x="476" y="1162" type="line"/>
      <point x="557" y="1400" type="line"/>
      <point x="512" y="1363" type="line"/>
      <point x="543" y="1095" type="line"/>
      <point x="667" y="72" type="line"/>
      <point x="515" y="38" type="line"/>
      <point x="510" y="0" type="line"/>
      <point x="1159" y="0" type="line"/>
      <point x="1163" y="38" type="line"/>
      <point x="1048" y="72" type="line"/>
      <point x="849" y="1490" type="line"/>
      <point x="543" y="1488" type="line"/>
      <point x="-34" y="75" type="line"/>
      <point x="-175" y="36" type="line"/>
    </contour>
  </outline>
</glyph>
<glyph name="acutecomb.case" format="2">
  <anchor x="302" y="1488" name="_top"/>
  <anchor x="362" y="1966" name="top"/>
  <outline>
    <contour>
      <point x="163" y="1616" type="line"/>
      <point x="193" y="1582" type="line"/>
      <point x="329" y="1619"/>
      <point x="495" y="1686"/>
      <point x="609" y="1785" type="curve"/>
      <point x="449" y="1975" type="line"/>
    </contour>
  </outline>
</glyph>
<glyph name="bracketleft.sc" format="2">
  <advance width="743"/>
  <outline>
    <contour>
      <point x="253" y="-300" type="curve" smooth="yes"/>
      <point x="359" y="-300"/>
      <point x="443" y="-281"/>
      <point x="526" y="-260" type="curve"/>
      <point x="531" y="-223" type="line"/>
      <point x="328" y="-223" type="line"/>
      <point x="572" y="1600" type="line"/>
      <point x="775" y="1600" type="line"/>
      <point x="780" y="1635" type="line"/>
      <point x="702" y="1654"/>
      <point x="626" y="1675"/>
      <point x="519" y="1675" type="curve" smooth="yes"/>
      <point x="364" y="1675"/>
      <point x="294" y="1638"/>
      <point x="270" y="1453" type="curve" smooth="yes"/>
      <point x="68" y="-78" type="line" smooth="yes"/>
      <point x="44" y="-263"/>
      <point x="98" y="-300"/>
    </contour>
  </outline>
</glyph>
<glyph name="brevecomb_gravecomb.case" format="2">
  <anchor x="459" y="1486" name="_top"/>
  <outline>
    <contour>
      <point x="564" y="1914" type="curve"/>
      <point x="592" y="1941" type="line"/>
      <point x="371" y="2293" type="line"/>
      <point x="237" y="2156" type="line"/>
      <point x="322" y="2050"/>
      <point x="441" y="1967"/>
    </contour>
    <contour>
      <point x="472" y="1587" type="curve" smooth="yes"/>
      <point x="646" y="1587"/>
      <point x="741" y="1715"/>
      <point x="741" y="1891" type="curve" smooth="yes"/>
      <point x="741" y="1903"/>
      <point x="741" y="1913"/>
      <point x="741" y="1925" type="curve"/>
      <point x="676" y="1925" type="line"/>
      <point x="668" y="1821"/>
      <point x="591" y="1769"/>
      <point x="485" y="1769" type="curve" smooth="yes"/>
      <point x="362" y="1769"/>
      <point x="313" y="1820"/>
      <point x="313" y="1890" type="curve" smooth="yes"/>
      <point x="313" y="1905"/>
      <point x="314" y="1917"/>
      <point x="315" y="1925" type="curve"/>
      <point x="251" y="1925" type="line"/>
      <point x="246" y="1903"/>
      <point x="241" y="1871"/>
      <point x="241" y="1833" type="curve" smooth="yes"/>
      <point x="241" y="1711"/>
      <point x="302" y="1587"/>
    </contour>
  </outline>
</glyph>
<glyph name="brevecomb_gravecomb" format="2">
  <anchor x="452" y="1110" name="_top"/>
  <outline>
    <contour>
      <point x="447" y="1138" type="curve" smooth="yes"/>
      <point x="619" y="1138"/>
      <point x="713" y="1261"/>
      <point x="713" y="1444" type="curve" smooth="yes"/>
      <point x="713" y="1461"/>
      <point x="712" y="1468"/>
      <point x="712" y="1478" type="curve"/>
      <point x="641" y="1478" type="line"/>
      <point x="640" y="1441"/>
      <point x="629" y="1410"/>
      <point x="611" y="1385" type="curve" smooth="yes"/>
      <point x="580" y="1342"/>
      <point x="527" y="1318"/>
      <point x="458" y="1318" type="curve" smooth="yes"/>
      <point x="345" y="1318"/>
      <point x="298" y="1365"/>
      <point x="298" y="1442" type="curve" smooth="yes"/>
      <point x="298" y="1461"/>
      <point x="300" y="1471"/>
      <point x="300" y="1478" type="curve"/>
      <point x="234" y="1478" type="line"/>
      <point x="227" y="1455"/>
      <point x="219" y="1425"/>
      <point x="219" y="1366" type="curve" smooth="yes"/>
      <point x="219" y="1254"/>
      <point x="278" y="1138"/>
    </contour>
    <contour>
      <point x="518" y="1486" type="curve"/>
      <point x="551" y="1511" type="line"/>
      <point x="391" y="1790" type="line"/>
      <point x="249" y="1708" type="line"/>
      <point x="318" y="1617"/>
      <point x="422" y="1535"/>
    </contour>
  </outline>
</glyph>
<glyph name="brevecomb_tildecomb" format="2">
  <anchor x="383" y="1110" name="_top"/>
  <outline>
    <contour>
      <point x="378" y="1158" type="curve" smooth="yes"/>
      <point x="561" y="1158"/>
      <point x="661" y="1281"/>
      <point x="661" y="1464" type="curve" smooth="yes"/>
      <point x="661" y="1481"/>
      <point x="660" y="1488"/>
      <point x="660" y="1498" type="curve"/>
      <point x="584" y="1498" type="line"/>
      <point x="583" y="1472"/>
      <point x="577" y="1448"/>
      <point x="567" y="1427" type="curve" smooth="yes"/>
      <point x="539" y="1369"/>
      <point x="475" y="1328"/>
      <point x="390" y="1328" type="curve" smooth="yes"/>
      <point x="269" y="1328"/>
      <point x="219" y="1385"/>
      <point x="219" y="1462" type="curve" smooth="yes"/>
      <point x="219" y="1481"/>
      <point x="222" y="1491"/>
      <point x="222" y="1498" type="curve"/>
      <point x="151" y="1498" type="line"/>
      <point x="144" y="1475"/>
      <point x="135" y="1445"/>
      <point x="135" y="1386" type="curve" smooth="yes"/>
      <point x="135" y="1274"/>
      <point x="198" y="1158"/>
    </contour>
    <contour>
      <point x="206" y="1593" type="curve"/>
      <point x="245" y="1576" type="line"/>
      <point x="260" y="1631"/>
      <point x="276" y="1657"/>
      <point x="314" y="1657" type="curve" smooth="yes"/>
      <point x="364" y="1657"/>
      <point x="438" y="1571"/>
      <point x="522" y="1571" type="curve" smooth="yes"/>
      <point x="628" y="1571"/>
      <point x="655" y="1651"/>
      <point x="652" y="1771" type="curve"/>
      <point x="613" y="1784" type="line"/>
      <point x="602" y="1734"/>
      <point x="587" y="1712"/>
      <point x="552" y="1712" type="curve" smooth="yes"/>
      <point x="498" y="1712"/>
      <point x="435" y="1798"/>
      <point x="341" y="1797" type="curve" smooth="yes"/>
      <point x="250" y="1796"/>
      <point x="203" y="1714"/>
    </contour>
  </outline>
</glyph>
<glyph name="breveinvertedcomb.case" format="2">
  <anchor x="395" y="1486" name="_top"/>
  <outline>
    <contour>
      <point x="446" y="1947" type="curve" smooth="yes"/>
      <point x="265" y="1947"/>
      <point x="168" y="1797"/>
      <point x="168" y="1621" type="curve" smooth="yes"/>
      <point x="168" y="1609"/>
      <point x="168" y="1599"/>
      <point x="168" y="1587" type="curve"/>
      <point x="233" y="1587" type="line"/>
      <point x="237" y="1674"/>
      <point x="304" y="1754"/>
      <point x="433" y="1754" type="curve" smooth="yes"/>
      <point x="554" y="1754"/>
      <point x="605" y="1695"/>
      <point x="605" y="1622" type="curve" smooth="yes"/>
      <point x="605" y="1607"/>
      <point x="604" y="1595"/>
      <point x="603" y="1587" type="curve"/>
      <point x="668" y="1587" type="line"/>
      <point x="672" y="1609"/>
      <point x="678" y="1641"/>
      <point x="678" y="1679" type="curve" smooth="yes"/>
      <point x="678" y="1801"/>
      <point x="625" y="1947"/>
    </contour>
  </outline>
</glyph>
<glyph name="c.sc" format="2">
  <advance width="1048"/>
  <anchor x="613" y="0" name="bottom"/>
  <anchor x="711" y="1383" name="top"/>
  <outline>
    <contour>
      <point x="977" y="408" type="line"/>
      <point x="809" y="408" type="line"/>
      <point x="793" y="345"/>
      <point x="718" y="141"/>
      <point x="698" y="112" type="curve"/>
      <point x="674" y="63"/>
      <point x="625" y="31"/>
      <point x="575" y="31" type="curve" smooth="yes"/>
      <point x="451" y="31"/>
      <point x="410" y="239"/>
      <point x="410" y="464" type="curve" smooth="yes"/>
      <point x="410" y="904"/>
      <point x="491" y="1260"/>
      <point x="690" y="1260" type="curve" smooth="yes"/>
      <point x="711" y="1260"/>
      <point x="753" y="1251"/>
      <point x="778" y="1235" type="curve"/>
      <point x="800" y="867" type="line"/>
      <point x="1000" y="867" type="line"/>
      <point x="1058" y="1261" type="line"/>
      <point x="938" y="1261"/>
      <point x="915" y="1310"/>
      <point x="702" y="1310" type="curve" smooth="yes"/>
      <point x="253" y="1310"/>
      <point x="46" y="925"/>
      <point x="46" y="546" type="curve" smooth="yes"/>
      <point x="46" y="285"/>
      <point x="147" y="-19"/>
      <point x="526" y="-19" type="curve" smooth="yes"/>
      <point x="728" y="-19"/>
      <point x="825" y="53"/>
      <point x="901" y="52" type="curve"/>
    </contour>
  </outline>
</glyph>
<glyph name="circumflexcomb.case" format="2">
  <anchor x="479" y="1486" name="_top"/>
  <anchor x="546" y="2073" name="top"/>
  <outline>
    <contour>
      <point x="162" y="1610" type="line"/>
      <point x="198" y="1582" type="line"/>
      <point x="301" y="1628"/>
      <point x="423" y="1690"/>
      <point x="515" y="1764" type="curve"/>
      <point x="577" y="1701"/>
      <point x="658" y="1633"/>
      <point x="743" y="1576" type="curve"/>
      <point x="782" y="1597" type="line"/>
      <point x="615" y="1971" type="line"/>
      <point x="464" y="1971" type="line"/>
    </contour>
  </outline>
</glyph>
<glyph name="circumflexcomb_acutecomb.case" format="2">
  <anchor x="435" y="1486" name="_top"/>
  <outline>
    <contour>
      <point x="422" y="1919" type="line"/>
      <point x="160" y="1598" type="line"/>
      <point x="193" y="1569" type="line"/>
      <point x="287" y="1605"/>
      <point x="388" y="1661"/>
      <point x="473" y="1726" type="curve"/>
      <point x="535" y="1669"/>
      <point x="606" y="1618"/>
      <point x="687" y="1569" type="curve"/>
      <point x="722" y="1590" type="line"/>
      <point x="567" y="1919" type="line"/>
    </contour>
    <contour>
      <point x="709" y="1810" type="line"/>
      <point x="825" y="1863"/>
      <point x="952" y="1946"/>
      <point x="1038" y="2052" type="curve"/>
      <point x="904" y="2189" type="line"/>
      <point x="683" y="1836" type="line"/>
    </contour>
  </outline>
</glyph>
<glyph name="circumflexcomb_acutecomb" format="2">
  <anchor x="421" y="1110" name="_top"/>
  <outline>
    <contour>
      <point x="387" y="1479" type="line"/>
      <point x="99" y="1150" type="line"/>
      <point x="135" y="1121" type="line"/>
      <point x="230" y="1157"/>
      <point x="339" y="1210"/>
      <point x="424" y="1275" type="curve"/>
      <point x="476" y="1218"/>
      <point x="556" y="1162"/>
      <point x="634" y="1116" type="curve"/>
      <point x="676" y="1139" type="line"/>
      <point x="524" y="1479" type="line"/>
    </contour>
    <contour>
      <point x="696" y="1359" type="line"/>
      <point x="814" y="1395"/>
      <point x="924" y="1459"/>
      <point x="1022" y="1541" type="curve"/>
      <point x="911" y="1664" type="line"/>
      <point x="669" y="1392" type="line"/>
    </contour>
  </outline>
</glyph>
<glyph name="circumflexcomb_tildecomb" format="2">
  <anchor x="396" y="1110" name="_top"/>
  <outline>
    <contour>
      <point x="248" y="1594" type="curve"/>
      <point x="287" y="1576" type="line"/>
      <point x="303" y="1635"/>
      <point x="320" y="1662"/>
      <point x="358" y="1662" type="curve" smooth="yes"/>
      <point x="409" y="1662"/>
      <point x="484" y="1561"/>
      <point x="570" y="1561" type="curve" smooth="yes"/>
      <point x="677" y="1561"/>
      <point x="706" y="1656"/>
      <point x="702" y="1783" type="curve"/>
      <point x="663" y="1797" type="line"/>
      <point x="651" y="1744"/>
      <point x="635" y="1721"/>
      <point x="601" y="1721" type="curve" smooth="yes"/>
      <point x="546" y="1721"/>
      <point x="481" y="1822"/>
      <point x="385" y="1821" type="curve" smooth="yes"/>
      <point x="293" y="1820"/>
      <point x="245" y="1724"/>
    </contour>
    <contour>
      <point x="387" y="1479" type="line"/>
      <point x="99" y="1150" type="line"/>
      <point x="135" y="1121" type="line"/>
      <point x="230" y="1157"/>
      <point x="339" y="1210"/>
      <point x="424" y="1275" type="curve"/>
      <point x="476" y="1218"/>
      <point x="556" y="1162"/>
      <point x="634" y="1116" type="curve"/>
      <point x="676" y="1139" type="line"/>
      <point x="524" y="1479" type="line"/>
    </contour>
  </outline>
</glyph>
<glyph name="dblgravecomb.case" format="2">
  <anchor x="644" y="1486" name="_top"/>
  <outline>
    <contour>
      <point x="935" y="1609" type="line"/>
      <point x="733" y="1976" type="line"/>
      <point x="554" y="1849" type="line"/>
      <point x="637" y="1735"/>
      <point x="777" y="1635"/>
      <point x="902" y="1582" type="curve"/>
    </contour>
    <contour>
      <point x="575" y="1609" type="line"/>
      <point x="374" y="1976" type="line"/>
      <point x="194" y="1849" type="line"/>
      <point x="277" y="1735"/>
      <point x="417" y="1635"/>
      <point x="542" y="1582" type="curve"/>
    </contour>
  </outline>
</glyph>
<glyph name="descender" format="2">
  <advance width="1209"/>
  <anchor x="532" y="0" name="_bottom"/>
  <outline>
    <contour>
      <point x="489" y="-475" type="curve" smooth="yes"/>
      <point x="571" y="-475"/>
      <point x="644" y="-426"/>
      <point x="657" y="-318" type="curve" smooth="yes"/>
      <point x="669" y="-220"/>
      <point x="608" y="-74"/>
      <point x="551" y="-8" type="curve"/>
      <point x="489" y="-12" type="line"/>
      <point x="520" y="-93"/>
      <point x="526" y="-178"/>
      <point x="508" y="-236" type="curve"/>
      <point x="364" y="-324" type="line"/>
      <point x="364" y="-421"/>
      <point x="417" y="-475"/>
    </contour>
  </outline>
</glyph>
